<svg
  width="672"
  height="526"
  viewBox="0 0 672 526"
  fill="none"
  xmlns="http://www.w3.org/2000/svg"
>
  <path
    opacity="0.1"
    d="M150.182 0.693243C117.461 2.44307 84.3996 12.0031 58.8706 32.5529C36.4713 50.5918 20.3174 78.9519 24.2581 107.447C28.9101 141.085 58.9204 165.554 70.0524 197.641C77.2153 218.27 76.0986 241.032 71.411 262.371C68.395 276.121 63.7573 289.885 54.8445 300.782C38.7902 320.386 9.81844 329.846 1.92999 353.924C-6.64845 380.107 14.9683 405.786 35.2763 424.408C51.4871 439.267 68.4662 454.055 88.8951 462.2C103.833 468.161 120.043 470.302 136.112 471.155C180.483 473.483 224.845 466.395 266.282 450.357C286.135 442.653 305.34 432.887 326.118 428.242C370.397 418.34 415.957 432.616 460.833 439.303C499.302 445.018 538.396 445.133 576.898 439.644C601.126 436.187 626.157 429.949 644.402 413.646C662.896 397.094 672.143 371.472 671.119 346.647C670.094 321.822 659.624 297.922 644.203 278.432C624.286 253.259 596.815 235.348 572.915 213.895C548.579 192.039 527.877 166.448 511.585 138.083C502.196 121.723 494.208 104.36 482.045 89.9559C463.074 67.5068 435.56 54.1555 408.068 43.8415C344.648 20.0836 278.865 15.2467 212.742 4.74773C192.078 1.45435 171.116 -0.402178 150.182 0.693243Z"
    fill="#4DCAB1"
  />
  <path
    opacity="0.7"
    d="M274.723 261.497H138.891V337.401H274.723V261.497Z"
    fill="#F6F7F9"
  />
  <path
    opacity="0.7"
    d="M389.082 51.7236H253.25V127.628H389.082V51.7236Z"
    fill="#F6F7F9"
  />
  <path
    opacity="0.7"
    d="M434.293 179.162H298.461V255.066H434.293V179.162Z"
    fill="#F6F7F9"
  />
  <path
    d="M319.886 96.8984H91.4766V225.959H319.886V96.8984Z"
    fill="url(#paint0_linear)"
  />
  <path d="M318.295 98.499H93.0938V224.352H318.295V98.499Z" fill="#F6F7F9" />
  <path
    opacity="0.1"
    d="M135.484 177.817C148.432 177.817 158.929 167.321 158.929 154.373C158.929 141.424 148.432 130.928 135.484 130.928C122.536 130.928 112.039 141.424 112.039 154.373C112.039 167.321 122.536 177.817 135.484 177.817Z"
    fill="#21BD9E"
  />
  <path
    opacity="0.1"
    d="M289.69 126.582H187.531V133.005H289.69V126.582Z"
    fill="#21BD9E"
  />
  <path
    opacity="0.1"
    d="M239.571 142.971H187.531V149.394H239.571V142.971Z"
    fill="#21BD9E"
  />
  <path
    opacity="0.1"
    d="M271.701 159.352H187.531V165.775H271.701V159.352Z"
    fill="#21BD9E"
  />
  <path
    opacity="0.1"
    d="M289.69 175.733H187.531V182.157H289.69V175.733Z"
    fill="#21BD9E"
  />
  <path d="M289.682 199.378H261.414V211.797H289.682V199.378Z" fill="#21BD9E" />
  <path
    d="M468.94 271.248H251.691V392.648H468.94V271.248Z"
    fill="url(#paint1_linear)"
  />
  <path d="M467.443 272.081H253.195V391.809H467.443V272.081Z" fill="#F6F7F9" />
  <path
    opacity="0.1"
    d="M293.533 347.544C305.853 347.544 315.84 337.557 315.84 325.237C315.84 312.918 305.853 302.931 293.533 302.931C281.214 302.931 271.227 312.918 271.227 325.237C271.227 337.557 281.214 347.544 293.533 347.544Z"
    fill="#21BD9E"
  />
  <path
    opacity="0.1"
    d="M440.226 298.797H343.039V304.907H440.226V298.797Z"
    fill="#21BD9E"
  />
  <path
    opacity="0.1"
    d="M392.546 314.39H343.039V320.5H392.546V314.39Z"
    fill="#21BD9E"
  />
  <path
    opacity="0.1"
    d="M423.112 329.975H343.039V336.085H423.112V329.975Z"
    fill="#21BD9E"
  />
  <path
    opacity="0.1"
    d="M440.226 345.56H343.039V351.67H440.226V345.56Z"
    fill="#21BD9E"
  />
  <path d="M440.227 368.051H413.332V379.866H440.227V368.051Z" fill="#21BD9E" />
  <path
    d="M558.412 337.951C555.39 351.259 543.346 331.13 540.603 326.303L540.047 325.302L541.353 319.183L548.257 316.37C549.347 316.94 550.38 317.615 551.341 318.384C555.14 321.329 560.745 327.643 558.412 337.951Z"
    fill="#EFB7B9"
  />
  <path
    d="M651.833 316.169L651.757 316.468C651.757 316.558 651.694 316.662 651.659 316.794C650.479 320.962 643.456 344.341 636.677 337.847C629.259 330.721 632.864 314.356 632.864 314.356H632.933L648.541 312.759L651.632 315.94L651.833 316.169Z"
    fill="#EFB7B9"
  />
  <path
    d="M642.8 431.267L643.196 475.915C637.084 486.055 637.577 495.085 637.577 495.085L617.434 495.884C612.517 492.577 616.045 483.347 616.045 483.347V460.363C616.045 460.363 612.899 437.9 614.399 431.649C615.899 425.398 608.078 413.889 608.078 413.889L606.981 401.351C603.161 396.336 601.355 368.637 601.355 368.637L597.25 354.745C597.354 355.349 599.486 367.025 597.25 369.171C595.013 371.318 594.138 380.813 594.138 380.813C594.138 380.813 596.347 407.102 594.138 412.416C591.929 417.73 594.735 420.751 594.735 420.751L595.145 448.041C595.145 448.041 593.235 455.369 595.34 465.704C597.444 476.04 595.34 491.994 595.34 491.994H573.669L573.766 480.881L570.258 471.448C570.258 471.448 567.848 432.517 565.945 424.092C564.801 419.094 565.512 413.851 567.945 409.339C567.945 409.339 563.938 402.914 564.139 398.399C564.341 393.885 561.076 385.258 561.076 385.258L556.408 353.55C556.54 347.45 555.763 341.363 554.102 335.491C551.387 326.462 547.379 314.619 547.379 314.619L551.908 315.022L574.773 317.057C574.773 317.057 630.34 313.32 632.847 316.425C633.375 317.438 633.732 318.532 633.903 319.662C636.396 330.879 639.696 365.997 639.696 365.997C639.696 365.997 646.419 393.391 643.53 396.1C640.64 398.809 641.001 407.637 641.001 407.637C645.308 415.917 642.8 431.267 642.8 431.267Z"
    fill="#444053"
  />
  <path
    d="M595.811 508.901C595.652 511.388 592.873 511.54 592.873 511.54C584.747 512.818 583.024 515.986 583.024 515.986C583.024 515.986 575.196 523.73 563.472 522.64C553.477 521.681 554.442 519.861 554.956 516.597C555.058 515.982 555.112 515.359 555.116 514.735C555.116 510.221 558.589 508.936 564 505.553C569.41 502.171 569.264 499.302 571.522 496.822C573.779 494.343 574.008 489.529 574.008 489.529C576.564 485.084 583.038 490.224 583.038 490.224C583.337 491.8 592.97 491.613 592.97 491.613C592.97 491.613 594.249 496.732 594.901 497.031C595.332 497.232 595.658 501.247 595.79 504.671C595.853 506.407 595.86 508.054 595.811 508.901Z"
    fill="#B07473"
  />
  <path
    opacity="0.1"
    d="M595.811 508.9C595.652 511.387 592.873 511.54 592.873 511.54C584.747 512.818 583.024 515.985 583.024 515.985C583.024 515.985 575.196 523.73 563.472 522.639C553.477 521.681 554.442 519.861 554.956 516.596C559.422 517.708 567.966 519.25 572.953 516.541C579.898 512.776 584.851 510.144 584.851 510.144L595.777 504.58C595.853 506.407 595.86 508.053 595.811 508.9Z"
    fill="black"
  />
  <path
    d="M657.061 522.299C656.527 523.29 655.631 524.037 654.56 524.383C654.497 524.405 654.432 524.422 654.366 524.431C651.053 525.126 638.258 525.126 638.258 525.126C638.258 525.126 625.291 515.082 621.401 514.853C617.511 514.624 615.379 511.241 615.379 511.241C615.379 511.241 615.455 508.907 615.705 506.198C616.011 502.996 616.546 499.253 617.483 498.294C619.22 496.488 619.567 494.009 623.505 495.585C623.505 495.585 629.062 485.785 635.619 493.356L642.398 503.642C642.398 503.642 643.676 507.928 652.261 512.519C655.699 514.36 657.248 516.527 657.658 518.506C657.94 519.801 657.727 521.154 657.061 522.299V522.299Z"
    fill="#B07473"
  />
  <path
    opacity="0.1"
    d="M657.061 522.3C656.297 522.946 655.442 523.64 654.56 524.383C654.497 524.406 654.432 524.422 654.366 524.432C651.053 525.127 638.258 525.127 638.258 525.127C638.258 525.127 625.291 515.083 621.401 514.854C617.511 514.624 615.379 511.242 615.379 511.242C615.379 511.242 615.455 508.908 615.705 506.199C619.685 507.394 625.728 509.498 627.347 511.756C629.826 515.229 637.362 520.028 637.362 520.028C637.362 520.028 651.414 518.681 657.658 518.493C657.943 519.792 657.73 521.151 657.061 522.3Z"
    fill="black"
  />
  <path
    d="M602.37 172.127L583.853 191.693C583.853 191.693 561.425 190.04 565.342 183.414C567.336 180.045 567.648 172.995 567.474 166.841C567.308 160.916 566.697 155.874 566.697 155.874C566.697 155.874 598.154 140.218 595.744 154.818C595.232 157.57 595.202 160.39 595.654 163.153C597.022 170.529 602.37 172.127 602.37 172.127Z"
    fill="#EFB7B9"
  />
  <path
    opacity="0.1"
    d="M595.735 154.818C595.223 157.57 595.193 160.39 595.645 163.153C593.493 165.332 590.93 167.062 588.104 168.241C585.278 169.421 582.245 170.026 579.183 170.022C574.904 170.022 570.327 166.549 566.889 164.5C566.722 158.576 566.688 155.874 566.688 155.874C566.688 155.874 598.145 140.218 595.735 154.818Z"
    fill="black"
  />
  <path
    d="M602.37 145.635C602.372 150.888 600.59 155.986 597.316 160.094C594.041 164.202 589.469 167.076 584.348 168.246C579.227 169.416 573.861 168.812 569.127 166.533C564.394 164.254 560.576 160.436 558.296 155.703C556.017 150.97 555.412 145.604 556.582 140.482C557.751 135.361 560.625 130.789 564.732 127.514C568.839 124.24 573.937 122.457 579.19 122.458C584.443 122.459 589.54 124.244 593.646 127.521C596.367 129.692 598.564 132.447 600.074 135.583C601.584 138.719 602.369 142.155 602.37 145.635V145.635Z"
    fill="#EFB7B9"
  />
  <path
    d="M590.992 331.825V316.843L588.742 316.704C589.714 320.989 587.353 331.45 587.353 331.45C565.272 334.561 555.749 325.893 552.394 321.378C551.794 320.602 551.28 319.764 550.859 318.878L559.813 268.458L561.896 194.256L565.126 181.24L565.876 174.988V174.919L565.953 174.954L568.231 175.933L581.9 181.837L597.507 170.119L597.737 169.946L598.508 169.362L599.793 170.397L602.981 172.953L613.219 239.036C613.219 239.036 630.972 289.921 634.265 310.459C634.397 311.279 634.508 312.043 634.591 312.758C636.751 331.477 590.992 331.825 590.992 331.825Z"
    fill="#E1E7EF"
  />
  <path
    d="M583.617 184.588C584.345 184.588 584.936 183.997 584.936 183.268C584.936 182.539 584.345 181.948 583.617 181.948C582.888 181.948 582.297 182.539 582.297 183.268C582.297 183.997 582.888 184.588 583.617 184.588Z"
    fill="#444053"
  />
  <path
    d="M584.226 196.625C584.955 196.625 585.546 196.034 585.546 195.305C585.546 194.576 584.955 193.985 584.226 193.985C583.497 193.985 582.906 194.576 582.906 195.305C582.906 196.034 583.497 196.625 584.226 196.625Z"
    fill="#444053"
  />
  <path
    d="M585.538 216.121C586.267 216.121 586.858 215.53 586.858 214.801C586.858 214.072 586.267 213.481 585.538 213.481C584.81 213.481 584.219 214.072 584.219 214.801C584.219 215.53 584.81 216.121 585.538 216.121Z"
    fill="#444053"
  />
  <path
    d="M587.73 237.112C588.459 237.112 589.05 236.521 589.05 235.792C589.05 235.064 588.459 234.473 587.73 234.473C587.001 234.473 586.41 235.064 586.41 235.792C586.41 236.521 587.001 237.112 587.73 237.112Z"
    fill="#444053"
  />
  <path
    d="M589.042 256.831C589.771 256.831 590.362 256.24 590.362 255.511C590.362 254.782 589.771 254.191 589.042 254.191C588.314 254.191 587.723 254.782 587.723 255.511C587.723 256.24 588.314 256.831 589.042 256.831Z"
    fill="#444053"
  />
  <path
    d="M590.359 277.828C591.088 277.828 591.678 277.237 591.678 276.508C591.678 275.779 591.088 275.188 590.359 275.188C589.63 275.188 589.039 275.779 589.039 276.508C589.039 277.237 589.63 277.828 590.359 277.828Z"
    fill="#444053"
  />
  <path
    d="M589.831 298.603C590.56 298.603 591.151 298.012 591.151 297.284C591.151 296.555 590.56 295.964 589.831 295.964C589.103 295.964 588.512 296.555 588.512 297.284C588.512 298.012 589.103 298.603 589.831 298.603Z"
    fill="#444053"
  />
  <path
    opacity="0.1"
    d="M566.805 275.792C566.805 275.792 565.332 295.101 562.637 300.713C559.942 306.326 558.72 322.086 558.72 322.086L552.469 321.391C551.869 320.615 551.354 319.777 550.934 318.89L559.887 268.471L561.97 194.269L565.2 181.253L565.95 175.001C565.975 174.983 566.003 174.971 566.034 174.967C566.384 174.801 566.768 174.718 567.156 174.724C567.544 174.73 567.925 174.825 568.27 175.001L568.576 175.154C568.486 175.411 568.395 175.675 568.312 175.946C565.867 183.621 564.95 197.777 564.95 197.777C564.95 197.777 568.465 223.664 568.861 235.708C569.257 247.752 566.805 275.792 566.805 275.792Z"
    fill="black"
  />
  <path
    opacity="0.1"
    d="M551.341 318.384C551.272 318.544 551.193 318.7 551.105 318.85C548.667 322.969 542.485 325.587 540.603 326.303L540.047 325.302L541.353 319.183L548.257 316.37C549.347 316.94 550.38 317.615 551.341 318.384V318.384Z"
    fill="black"
  />
  <path
    d="M534.34 219.378L528.623 222.809L523.4 245.987C523.4 245.987 516.878 265.658 521.9 279.702C526.922 293.747 529.846 301.755 529.846 301.755C529.846 301.755 531.853 317.73 534.861 319.015C537.868 320.3 539.181 321.023 539.181 321.023L539.778 324.836C539.778 324.836 547.947 322.058 550.836 317.196C553.726 312.334 548.711 300.171 548.711 300.171C548.711 300.171 544.397 289.836 545.502 285.023C546.606 280.209 543.293 267.561 543.293 267.262C543.293 266.964 542.994 260.233 545.377 255.065C547.759 249.898 546.182 247.696 546.182 247.696L544.675 232.943L534.34 219.378Z"
    fill="#444053"
  />
  <path
    opacity="0.1"
    d="M651.83 316.773H651.656C649.753 317.016 632.902 319.051 632.84 315.55C632.84 315.144 632.863 314.738 632.909 314.335L648.517 312.737L651.607 315.918C651.663 316.127 651.712 316.307 651.753 316.446L651.83 316.773Z"
    fill="black"
  />
  <path
    d="M635.71 196.625L646.788 202.397C646.788 202.397 655.978 226.263 657.485 236.501C657.485 236.501 664.306 263.916 659.569 275.189C654.832 286.462 655.255 308.848 655.255 308.848C655.255 308.848 652.546 312.96 651.442 311.856C650.338 310.751 651.845 316.169 651.845 316.169C651.845 316.169 632.932 318.684 632.841 314.961C632.751 311.238 637.182 293.484 637.182 293.484C637.182 293.484 638.384 251.24 636.675 244.62C634.967 238.001 635.71 196.625 635.71 196.625Z"
    fill="#444053"
  />
  <path
    opacity="0.1"
    d="M602.662 241.619C602.662 241.619 596.41 256.865 594.431 257.872C592.451 258.879 594.834 262.887 594.834 262.887C594.834 262.887 606.176 247.037 602.662 241.619Z"
    fill="black"
  />
  <path
    opacity="0.1"
    d="M598.951 188.13C599.02 187.838 591.519 195.486 589.518 196.625C587.518 197.764 596.812 196.562 598.951 188.13Z"
    fill="black"
  />
  <path
    opacity="0.1"
    d="M578.059 240.411C578.059 240.411 566.62 247.815 568.12 250.733C569.62 253.65 578.059 240.411 578.059 240.411Z"
    fill="black"
  />
  <path
    opacity="0.1"
    d="M598.848 348.384C598.848 348.384 608.572 354.635 623.734 356.212L598.848 348.384Z"
    fill="black"
  />
  <path
    opacity="0.1"
    d="M575.469 363.435C575.469 363.435 584.498 374.77 588.617 375.076C592.736 375.381 575.469 363.435 575.469 363.435Z"
    fill="black"
  />
  <path
    opacity="0.1"
    d="M588.109 407.888C587.706 408.089 582.99 418.119 578.177 418.425C573.363 418.73 588.109 407.888 588.109 407.888Z"
    fill="black"
  />
  <path
    opacity="0.1"
    d="M629.957 429.857C629.957 429.857 638.903 427.857 640.89 434.275C640.89 434.275 640.292 432.268 629.957 429.857Z"
    fill="black"
  />
  <path
    opacity="0.1"
    d="M623.938 466.587C623.938 466.587 634.773 464.378 637.079 467.393C639.385 470.407 623.938 466.587 623.938 466.587Z"
    fill="black"
  />
  <path
    opacity="0.1"
    d="M593.264 471.706C593.264 471.803 582.227 473.915 582.665 475.318C583.103 476.721 594.431 476.519 594.834 474.311C594.912 474.036 594.932 473.749 594.894 473.467C594.856 473.184 594.761 472.912 594.614 472.668C594.466 472.424 594.271 472.213 594.039 472.047C593.807 471.882 593.543 471.766 593.264 471.706V471.706Z"
    fill="black"
  />
  <path
    opacity="0.1"
    d="M620.324 481.236C620.324 481.236 638.453 479.027 637.314 482.84C636.175 486.654 620.324 481.236 620.324 481.236Z"
    fill="black"
  />
  <path
    opacity="0.1"
    d="M525.395 257.872C525.499 258.171 537.334 259.775 538.939 263.588C538.939 263.588 527.305 258.171 525.499 258.171"
    fill="black"
  />
  <path
    opacity="0.1"
    d="M582.648 499.428C582.648 499.428 586.177 503.942 585.274 506.499C584.371 509.055 582.648 499.428 582.648 499.428Z"
    fill="black"
  />
  <path
    opacity="0.1"
    d="M630.625 510.714C630.625 510.714 631.41 504.657 634.57 504.601C637.731 504.546 637.883 504.275 640.294 505.199C642.704 506.122 644.961 507.567 644.246 507.789C643.53 508.012 640.078 504.317 636.605 506.199C634.399 507.399 632.383 508.92 630.625 510.714V510.714Z"
    fill="black"
  />
  <path
    opacity="0.1"
    d="M572.073 189.401L581.963 182.455C581.963 182.455 567.44 173.87 565.71 175.079C563.981 176.287 562.793 187.123 562.793 187.123L572.073 189.401Z"
    fill="black"
  />
  <path
    d="M572.031 188.95L581.963 181.838C581.963 181.838 567.44 173.259 565.71 174.461C563.981 175.663 562.793 187.109 562.793 187.109L572.031 188.95Z"
    fill="#E1E7EF"
  />
  <path
    opacity="0.03"
    d="M572.031 188.95L581.963 181.838C581.963 181.838 567.44 173.259 565.71 174.461C563.981 175.663 562.793 187.109 562.793 187.109L572.031 188.95Z"
    fill="black"
  />
  <path
    d="M567.35 174.544L567.051 174.391C566.61 174.166 566.112 174.074 565.619 174.125C565.126 174.177 564.658 174.371 564.273 174.683L534.489 198.847C534.489 198.847 528.016 207.801 528.933 223.255L546.492 248.142C546.492 248.142 548.499 239.71 550.909 241.314C550.909 241.314 554.32 284.461 550.909 290.685C547.499 296.908 545.992 320.184 545.992 320.184L557.529 321.489C557.529 321.489 558.73 305.736 561.439 300.117C564.148 294.498 565.607 275.189 565.607 275.189C565.607 275.189 568.044 247.135 567.642 235.084C567.239 223.033 563.731 197.16 563.731 197.16C563.731 197.16 564.711 181.99 567.35 174.544Z"
    fill="#444053"
  />
  <path
    opacity="0.1"
    d="M597.015 184.998L584.645 180.414C584.645 180.414 600.405 163.16 602.363 172.732L597.015 184.998Z"
    fill="black"
  />
  <path
    d="M597.015 184.379L584.645 179.802C584.645 179.802 600.405 162.541 602.363 172.113L597.015 184.379Z"
    fill="#E1E7EF"
  />
  <path
    opacity="0.03"
    d="M597.015 184.379L584.645 179.802C584.645 179.802 600.405 162.541 602.363 172.113L597.015 184.379Z"
    fill="black"
  />
  <path
    opacity="0.1"
    d="M596.617 169.716C596.793 169.684 596.975 169.722 597.124 169.82L596.617 169.716Z"
    fill="black"
  />
  <path
    d="M597.82 168.508L630.66 175.592C630.66 175.592 639.69 177.6 646.212 200.271C652.734 222.942 637.279 250.732 637.279 250.732L633.869 247.836L635.578 314.064C635.578 314.064 620.422 319.78 615.609 314.758C610.795 309.737 611.288 286.281 611.288 286.281C611.288 286.281 606.676 242.918 603.759 235.778C600.842 228.637 602.37 177.273 602.37 177.273C602.37 177.273 599.654 168.112 597.82 168.508Z"
    fill="#444053"
  />
  <path
    opacity="0.2"
    d="M627.847 210.711C627.381 211.142 626.846 231.18 628.854 246.433C630.085 255.722 631.987 264.91 634.542 273.925L631.563 212.802C631.563 212.802 629.25 209.385 627.847 210.711Z"
    fill="black"
  />
  <path
    opacity="0.2"
    d="M623.832 193.451C624.638 193.951 628.152 202.279 626.541 205.697C624.929 209.114 623.832 193.451 623.832 193.451Z"
    fill="black"
  />
  <path
    opacity="0.1"
    d="M558.419 135.479C558.872 135.642 559.344 135.747 559.824 135.792C563.105 136.13 564.832 138.111 567.296 140.256C569.538 142.195 571.974 144.246 574.901 144.575C578.685 145.031 582.317 142.607 586.121 142.787C587.817 142.889 589.445 143.495 590.795 144.527C592.145 145.559 593.158 146.969 593.703 148.579C594.036 149.859 594.266 151.164 594.39 152.481C594.801 155.267 595.634 157.974 596.861 160.508C596.887 160.59 596.922 160.669 596.966 160.743C599.026 158.226 600.533 155.305 601.389 152.168C602.246 149.031 602.433 145.749 601.939 142.535C601.444 139.321 600.279 136.247 598.52 133.512C596.76 130.778 594.444 128.444 591.724 126.663C589.003 124.882 585.939 123.693 582.729 123.173C579.519 122.653 576.235 122.814 573.092 123.646C569.948 124.478 567.015 125.962 564.482 128.002C561.949 130.041 559.874 132.59 558.391 135.484L558.419 135.479Z"
    fill="black"
  />
  <path
    d="M556.111 128.87C556.242 122.94 559.906 117.586 564.412 113.719C567.864 110.791 571.998 108.484 576.499 107.978C579.063 107.686 581.642 107.951 584.229 108.099C589.041 108.32 594.059 107.947 598.468 109.88C599.491 110.327 600.563 111.018 600.81 112.11C600.994 112.926 600.667 113.758 600.592 114.591C600.416 116.453 601.464 118.228 602.767 119.584C604.069 120.941 605.589 122.07 606.74 123.548C607.891 125.026 608.607 127.042 607.91 128.779C607.527 129.517 607.107 130.234 606.652 130.928C606.243 131.814 605.954 132.75 605.793 133.712L604.445 140.052C603.755 142.907 603.303 145.814 603.096 148.744C602.999 150.867 603.158 153.018 602.693 155.085C602.228 157.152 600.968 159.211 598.965 159.905C598.818 159.977 598.657 160.012 598.493 160.009C598.33 160.005 598.17 159.963 598.027 159.885C597.883 159.768 597.773 159.615 597.706 159.442C596.474 156.91 595.64 154.202 595.235 151.415C595.111 150.098 594.881 148.793 594.548 147.513C594.002 145.904 592.99 144.494 591.639 143.462C590.289 142.43 588.662 141.824 586.966 141.721C583.159 141.55 579.526 143.974 575.743 143.519C572.801 143.157 570.376 141.132 568.135 139.192C565.663 137.082 563.944 135.067 560.662 134.729C557.381 134.391 555.978 132.013 556.111 128.87Z"
    fill="#A3876E"
  />
  <path
    opacity="0.1"
    d="M556.289 128.79C556.455 125.234 557.668 121.807 559.775 118.939C558.349 121.377 557.548 124.131 557.444 126.953C557.329 130.089 558.84 132.502 562.01 132.829C565.179 133.156 567.018 135.148 569.475 137.295C571.717 139.235 574.16 141.282 577.087 141.612C580.873 142.074 584.499 139.653 588.304 139.817C590.001 139.922 591.629 140.529 592.979 141.561C594.33 142.594 595.343 144.005 595.889 145.616C596.225 146.895 596.455 148.201 596.576 149.518C596.982 152.305 597.818 155.011 599.053 157.542C599.118 157.715 599.226 157.869 599.368 157.987C599.511 158.066 599.671 158.108 599.834 158.112C599.997 158.115 600.159 158.08 600.306 158.008C601.109 157.72 601.822 157.227 602.373 156.576C602.089 157.313 601.656 157.983 601.102 158.545C600.547 159.107 599.883 159.549 599.151 159.844C599.004 159.916 598.842 159.951 598.679 159.948C598.516 159.944 598.356 159.902 598.213 159.824C598.072 159.704 597.962 159.552 597.892 159.381C596.663 156.848 595.83 154.14 595.421 151.354C595.3 150.037 595.07 148.731 594.734 147.452C594.188 145.843 593.175 144.433 591.825 143.401C590.475 142.369 588.848 141.763 587.152 141.66C583.344 141.489 579.719 143.91 575.935 143.455C572.994 143.093 570.562 141.071 568.32 139.131C565.849 137.021 564.136 135.003 560.855 134.665C557.573 134.327 556.162 131.931 556.289 128.79Z"
    fill="black"
  />
  <path
    d="M488.652 487.311L487.656 506.046L481.354 504.475L480.023 496.679L488.652 487.311Z"
    fill="#5D5A71"
  />
  <path
    d="M511.785 508.535L521.402 510.527L528.515 504.224V486.477L528.672 484.052V483.98L528.707 483.468L530.002 463.765C530.002 463.765 539.619 430.924 541.113 424.643C542.172 420.169 541.731 406.675 541.383 399.22C541.241 396.162 541.113 394.12 541.113 394.12L519.887 388.978L519.439 405.338L517.888 462.527C517.782 466.171 517.046 469.769 515.712 473.161L515.64 473.353C513.792 478.145 512.751 483.209 512.56 488.341L511.849 506.515V507.02L511.785 508.535Z"
    fill="#FFB8B8"
  />
  <path
    opacity="0.1"
    d="M528.699 483.476V483.981L528.735 483.469L528.699 483.476Z"
    fill="black"
  />
  <path
    opacity="0.1"
    d="M511.785 508.535L521.402 510.527L528.515 504.225V502.717C528.493 503.052 528.388 503.377 528.209 503.661C528.031 503.945 527.784 504.181 527.491 504.346L527.391 504.403C524.079 506.156 520.324 506.899 516.594 506.537L512.838 506.216C512.499 506.254 512.167 506.335 511.849 506.458V506.963L511.785 508.535Z"
    fill="black"
  />
  <path
    d="M527.411 504.901L527.511 504.844C527.825 504.668 528.086 504.412 528.267 504.102C528.448 503.792 528.543 503.439 528.542 503.08L528.699 483.974C528.699 483.974 530.776 482.501 530.278 489.216C529.78 495.931 529.446 505.968 529.446 505.968C529.446 505.968 529.367 516.915 518.918 516.915C518.918 516.915 508.469 518.899 508.547 512.931C508.626 506.963 512.865 506.714 512.865 506.714L516.614 507.042C520.345 507.397 524.098 506.653 527.411 504.901V504.901Z"
    fill="#67647E"
  />
  <path
    d="M461.702 504.474C461.951 508.784 474.634 506.295 474.634 506.295L483.169 489.714C483.169 489.714 490.283 484.237 486.726 479.428C486.533 479.168 486.357 478.894 486.2 478.61V478.568C486.121 478.44 486.057 478.312 485.986 478.176C483.426 473.098 484.685 464.768 484.685 464.768C484.685 464.768 487.999 440.584 489.166 434.182C489.984 429.665 489.649 414.877 489.372 406.597C489.265 403.161 489.166 400.843 489.166 400.843L468.097 395.209C468.097 395.209 468.097 397.834 468.097 401.49C468.054 406.682 467.898 413.952 467.385 418.675C466.475 426.72 469.711 453.337 469.711 453.337L470.828 477.565C470.987 481.666 470.02 485.732 468.033 489.323C465.387 494.16 461.944 500.967 461.702 503.983C461.688 504.146 461.688 504.31 461.702 504.474Z"
    fill="#FFB8B8"
  />
  <path
    opacity="0.1"
    d="M461.699 504.474C461.948 508.784 474.631 506.295 474.631 506.295L483.167 489.714C483.167 489.714 490.28 484.237 486.723 479.428C486.53 479.168 486.354 478.894 486.197 478.61C486.083 481.121 483.352 487.388 483.352 487.388C483.352 487.388 476.302 501.493 474.105 504.723C471.907 507.952 462.119 504.125 461.756 504.011C461.725 504.164 461.706 504.318 461.699 504.474Z"
    fill="black"
  />
  <path
    d="M485.971 478.163C485.971 478.163 490.139 477.195 488.902 488.057C488.947 489.292 488.665 490.517 488.084 491.607C487.503 492.698 486.644 493.615 485.594 494.267C482.614 496.145 478.004 500.178 475.678 508.024C475.68 509.718 475.109 511.363 474.058 512.692C473.007 514.02 471.537 514.955 469.888 515.343C466.125 516.218 461.431 516.993 458.714 516.232C453.656 514.81 455.868 511.345 455.868 511.345L461.673 504.46C461.673 504.46 471.788 508.443 474.028 505.207C476.269 501.97 483.275 487.872 483.275 487.872C483.275 487.872 487.237 479.073 485.971 478.163Z"
    fill="#67647E"
  />
  <path
    opacity="0.1"
    d="M519.917 390.948L519.469 407.308C525.159 406.761 529.171 405.993 529.868 404.918C531.355 402.607 536.789 401.625 541.413 401.227C541.27 398.168 541.142 396.127 541.142 396.127L519.917 390.948Z"
    fill="black"
  />
  <path
    opacity="0.1"
    d="M468.074 403.454C468.62 402.351 469.417 401.391 470.4 400.651C472.641 399.406 472.399 408.611 472.399 408.611C472.399 408.611 479.832 408.682 489.357 408.561C489.25 405.118 489.15 402.806 489.15 402.806L468.081 397.173C468.081 397.173 468.11 399.798 468.074 403.454Z"
    fill="black"
  />
  <path
    d="M465.677 405.644C465.677 405.644 468.167 398.908 470.401 397.67C472.634 396.433 472.399 405.63 472.399 405.63C472.399 405.63 527.128 406.128 529.866 401.895C532.605 397.663 548.524 397.919 548.524 397.919C548.524 397.919 548.026 345.175 546.781 325.273C545.536 305.37 543.545 287.211 538.573 281.741C535.35 278.184 530.748 266.739 527.946 259.099C526.402 254.924 525.385 251.887 525.385 251.887L473.146 254.874L472.719 259.099L467.171 314.582C467.171 314.582 466.46 375.755 464.184 389.711C461.907 403.667 465.677 405.644 465.677 405.644Z"
    fill="#225CA5"
  />
  <path
    d="M481.818 124.278C478.204 129.214 481.86 136.22 477.984 141.015C476.703 142.601 474.733 143.732 473.396 145.283C470.92 148.171 471.02 152.083 472.236 155.476C473.452 158.869 475.65 161.949 477.158 165.249C477.813 166.672 478.339 168.286 477.663 169.709C477.194 170.698 476.241 171.445 475.444 172.305C472.955 175.087 472.883 178.956 474.221 182.228C475.558 185.5 478.126 188.338 480.623 191.098C481.618 192.194 482.877 193.396 484.535 193.367C485.408 193.296 486.252 193.018 486.996 192.556C492.896 189.45 497.372 184.189 499.494 177.868C501.287 171.921 500.909 165.53 498.427 159.836C496.293 154.807 492.822 149.984 492.793 144.664C492.793 140.446 494.963 136.42 495.347 132.216C495.816 127.116 492.793 119.007 486.633 116.78C487.039 120.074 483.681 121.774 481.818 124.278Z"
    fill="#4F4135"
  />
  <path
    opacity="0.1"
    d="M481.818 124.278C478.204 129.214 481.86 136.22 477.984 141.015C476.703 142.601 474.733 143.732 473.396 145.283C470.92 148.171 471.02 152.083 472.236 155.476C473.452 158.869 475.65 161.949 477.158 165.249C477.813 166.672 478.339 168.286 477.663 169.709C477.194 170.698 476.241 171.445 475.444 172.305C472.955 175.087 472.883 178.956 474.221 182.228C475.558 185.5 478.126 188.338 480.623 191.098C481.618 192.194 482.877 193.396 484.535 193.367C485.408 193.296 486.252 193.018 486.996 192.556C492.896 189.45 497.372 184.189 499.494 177.868C501.287 171.921 500.909 165.53 498.427 159.836C496.293 154.807 492.822 149.984 492.793 144.664C492.793 140.446 494.963 136.42 495.347 132.216C495.816 127.116 492.793 119.007 486.633 116.78C487.039 120.074 483.681 121.774 481.818 124.278Z"
    fill="black"
  />
  <path
    opacity="0.1"
    d="M521.926 303.613C514.685 303.997 507.871 307.106 501.533 310.627C495.195 314.148 489.064 318.167 482.242 320.642"
    fill="black"
  />
  <path
    opacity="0.1"
    d="M517.427 320.671C510.263 321.358 503.587 324.603 498.62 329.811C496.863 331.675 495.348 333.766 493.513 335.552C490.7 338.285 487.228 340.245 483.434 341.242"
    fill="black"
  />
  <path
    opacity="0.1"
    d="M518.912 333.645C513.137 335.247 507.911 338.398 503.797 342.756C502.687 343.951 501.663 345.239 500.568 346.427C494.571 352.829 486.107 356.278 477.934 359.508"
    fill="black"
  />
  <path
    d="M518.292 153.619C518.454 159.404 518.953 165.176 519.786 170.904C520.455 174.987 521.408 178.621 522.774 180.236C526.75 184.966 503.369 191.311 503.369 191.311L489.562 180.641C489.562 180.641 500.51 170.562 495.409 160.725C490.309 150.887 518.292 153.619 518.292 153.619Z"
    fill="#FFB8B8"
  />
  <path
    opacity="0.1"
    d="M472.719 259.099H527.945C526.401 254.924 525.384 251.887 525.384 251.887L473.146 254.874L472.719 259.099Z"
    fill="black"
  />
  <path
    d="M469.163 258.103H528.202C526.545 252.171 528.202 246.673 530.571 242.454C532.226 239.491 534.309 236.787 536.752 234.431L537.157 234.068L557.786 229.494L558.895 229.253C558.895 229.253 559.059 191.773 545.793 186.631C532.527 181.488 524.56 174.538 524.56 174.538L506.322 180.172L492.885 173.379C488.575 178.024 477.13 176.224 477.13 176.224C458.387 178.358 458.387 192.478 458.387 192.478C458.387 192.478 469.334 218.021 470.166 218.021C470.998 218.021 469.163 258.103 469.163 258.103Z"
    fill="#67647E"
  />
  <path
    opacity="0.1"
    d="M489.55 234.275C489.55 234.275 477.507 231.608 473.41 226.941Z"
    fill="black"
  />
  <path
    opacity="0.1"
    d="M550.258 220.29L536.316 231.735C536.418 232.64 536.572 233.537 536.779 234.424L537.184 234.061L557.812 229.487L550.258 220.29Z"
    fill="black"
  />
  <path
    d="M466.672 187.954L458.378 192.428L450.248 212.992C450.248 212.992 441.79 235.548 442.615 241.523C442.615 241.523 439.635 255.614 444.941 258.104L458.784 264.363C459.027 264.474 459.3 264.505 459.562 264.453C459.825 264.401 460.065 264.268 460.248 264.072C460.43 263.877 460.548 263.629 460.582 263.363C460.617 263.098 460.567 262.828 460.441 262.592C458.471 258.858 456.308 253.025 459.73 249.788L455.746 241.502L470.165 217.972L474.966 209.877L466.672 187.954Z"
    fill="#67647E"
  />
  <path
    opacity="0.1"
    d="M502.865 168.798C514.682 168.798 524.261 159.219 524.261 147.402C524.261 135.585 514.682 126.006 502.865 126.006C491.048 126.006 481.469 135.585 481.469 147.402C481.469 159.219 491.048 168.798 502.865 168.798Z"
    fill="black"
  />
  <path
    d="M502.865 168.3C514.682 168.3 524.261 158.721 524.261 146.904C524.261 135.087 514.682 125.508 502.865 125.508C491.048 125.508 481.469 135.087 481.469 146.904C481.469 158.721 491.048 168.3 502.865 168.3Z"
    fill="#FFB8B8"
  />
  <path
    d="M516.117 192.613L509.715 180.109C509.715 180.109 519.133 176.31 519.815 171.9C520.498 167.49 528.835 177.064 527.028 180.237C525.221 183.409 516.117 192.613 516.117 192.613Z"
    fill="#5D5A71"
  />
  <path
    d="M451.523 213.15L466.511 206.144C466.947 205.941 467.466 206.129 467.67 206.565L484.969 243.576C485.173 244.012 484.984 244.531 484.548 244.735L469.56 251.74C469.124 251.944 468.606 251.756 468.402 251.32L451.103 214.308C450.899 213.872 451.087 213.354 451.523 213.15Z"
    fill="#656478"
  />
  <path
    d="M450.39 213.679L465.378 206.674C465.814 206.47 466.333 206.658 466.537 207.094L483.836 244.106C484.04 244.542 483.852 245.061 483.416 245.264L468.427 252.27C467.991 252.474 467.473 252.285 467.269 251.849L449.97 214.838C449.766 214.402 449.954 213.883 450.39 213.679Z"
    fill="#3F3D56"
  />
  <path
    d="M460.676 219.054C459.97 217.543 459.903 216.082 460.527 215.79C461.151 215.498 462.23 216.487 462.936 217.998C463.642 219.509 463.709 220.971 463.085 221.262C462.461 221.554 461.382 220.566 460.676 219.054Z"
    fill="#21BD9E"
  />
  <path
    d="M456.473 249.895L459.71 249.81C459.71 249.81 479.484 230.604 484.335 240.321C489.187 250.037 472.023 259.099 472.023 259.099L466.802 261.945L459.959 263.936L455.605 258.089L456.473 249.895Z"
    fill="#FFB8B8"
  />
  <path
    opacity="0.1"
    d="M461.245 260.267C461.544 261.369 461.828 262.586 461.33 263.61C461.215 263.886 461.006 264.113 460.74 264.25C460.515 264.344 460.27 264.378 460.029 264.35C458.316 264.203 456.722 263.413 455.569 262.137C454.431 260.871 453.458 259.466 452.674 257.955C451.792 256.426 450.874 254.718 451.194 252.976C451.543 251.069 453.243 249.746 454.864 248.708C458.144 246.538 458.222 249.063 458.969 251.852L461.245 260.267Z"
    fill="black"
  />
  <path
    d="M460.749 260.267C461.048 261.369 461.332 262.586 460.834 263.61C460.719 263.886 460.51 264.113 460.244 264.25C460.019 264.344 459.774 264.378 459.532 264.35C457.819 264.203 456.226 263.413 455.073 262.137C453.934 260.871 452.962 259.466 452.178 257.955C451.295 256.426 450.378 254.718 450.698 252.976C451.047 251.069 452.747 249.746 454.368 248.708C457.647 246.538 457.726 249.063 458.473 251.852L460.749 260.267Z"
    fill="#67647E"
  />
  <path
    opacity="0.1"
    d="M470.16 217.971L471.818 215.176L470.366 220.368L470.16 217.971Z"
    fill="black"
  />
  <path
    opacity="0.1"
    d="M514.977 249.163L518.789 250.891L520.411 239.197L516.733 237.191C519.244 240.079 517.046 245.443 514.977 249.163Z"
    fill="black"
  />
  <path
    opacity="0.1"
    d="M530.28 235.591C530.28 235.591 517.967 236.338 512.746 232.98Z"
    fill="black"
  />
  <path
    d="M614.507 224.531C611.855 223.095 606.883 221.883 600.244 226.699L588.965 228.418L579.52 232.512L575.682 234.183L583.275 243.224L587.228 241.838L591.83 240.243C591.83 240.243 611.312 244.809 616.084 228.484C616.312 227.744 616.279 226.949 615.993 226.229C615.706 225.51 615.182 224.911 614.507 224.531V224.531Z"
    fill="#FFB8B8"
  />
  <path
    d="M543.806 216.994L535.42 227.264L539.113 251.517C539.113 251.517 540.313 263.512 556.543 260.093C572.772 256.675 591.613 246.067 591.613 246.067C591.613 246.067 582.545 233.919 587.505 229.304L564.239 236.831C564.239 236.831 559.289 238.679 559.289 236.831C559.289 232.077 557.455 215.894 557.455 215.894L543.806 216.994Z"
    fill="#56546A"
  />
  <path
    d="M544.647 215.893L536.517 225.852L540.097 250.747C540.097 250.747 541.261 262.378 556.995 259.063C572.73 255.748 590.996 245.463 590.996 245.463C590.996 245.463 582.204 233.683 587.013 229.209L564.457 236.507C564.457 236.507 559.658 238.299 559.658 236.507C559.658 231.898 557.88 214.826 557.88 214.826L544.647 215.893Z"
    fill="#67647E"
  />
  <path
    opacity="0.1"
    d="M556.645 234.466L552.163 239.601C553.315 239.249 554.345 238.581 555.137 237.674C555.929 236.766 556.452 235.655 556.645 234.466V234.466Z"
    fill="black"
  />
  <path
    opacity="0.1"
    d="M557.809 238.114L550.845 247.07L554.323 247.902L557.809 238.114Z"
    fill="black"
  />
  <path
    d="M477.321 136.085C476.553 134.214 477.136 132.052 478.033 130.252C478.929 128.453 480.216 126.816 480.878 124.91C481.909 122.065 482.729 120.352 484.713 118.076C487.5 114.878 488.281 112.963 493.303 111.305C494.783 110.814 496.319 110.679 497.884 110.679C500 110.68 506 108.879 508.5 109.379C516.751 111.028 519.154 110.001 525.74 115.379C528.265 117.442 531.123 121.15 531.5 124.379C531.877 127.608 533.465 130.195 533.43 133.453C533.323 139.144 534.383 145.389 538.658 149.166C539.945 150.304 541.46 151.165 542.712 152.338C543.964 153.512 544.953 155.184 544.732 156.869C544.554 157.655 544.317 158.425 544.021 159.174C543.167 162.14 544.434 165.298 545.977 167.973C550.586 175.94 558.703 182.505 567.914 182.69C567.295 187.335 562.472 190.031 558.19 191.937C552.735 194.37 547.001 196.746 541.041 196.44C535.08 196.134 528.863 192.321 527.803 186.446C527.44 184.433 527.49 181.965 525.74 180.905C524.688 180.265 523.322 180.428 522.184 179.944C520.541 179.233 519.723 177.426 519.182 175.719C518.071 172.21 517.475 168.559 517.411 164.879C517.34 160.518 517.923 155.76 515.448 152.168C513.157 148.846 509.088 147.188 506.45 144.101C504.017 141.256 501.364 137.856 497.373 137.315C492.01 136.611 480.586 144.08 477.321 136.085Z"
    fill="#4F4135"
  />
  <path
    d="M492.486 191.062L504.749 181.104C504.749 181.104 496.356 176.552 495.353 172.668C494.35 168.784 487.635 174.51 488.318 177.996C489.001 181.481 492.486 191.062 492.486 191.062Z"
    fill="#5D5A71"
  />
  <path
    d="M505.724 188.921C506.263 188.921 506.699 188.484 506.699 187.946C506.699 187.408 506.263 186.972 505.724 186.972C505.186 186.972 504.75 187.408 504.75 187.946C504.75 188.484 505.186 188.921 505.724 188.921Z"
    fill="#5D5A71"
  />
  <path
    d="M505.724 194.342C506.263 194.342 506.699 193.905 506.699 193.367C506.699 192.829 506.263 192.393 505.724 192.393C505.186 192.393 504.75 192.829 504.75 193.367C504.75 193.905 505.186 194.342 505.724 194.342Z"
    fill="#5D5A71"
  />
  <path
    d="M505.724 199.755C506.263 199.755 506.699 199.318 506.699 198.78C506.699 198.242 506.263 197.806 505.724 197.806C505.186 197.806 504.75 198.242 504.75 198.78C504.75 199.318 505.186 199.755 505.724 199.755Z"
    fill="#5D5A71"
  />
  <path
    opacity="0.1"
    d="M559.64 189.291C554.185 191.724 548.451 194.1 542.484 193.794C536.516 193.488 530.313 189.675 529.253 183.8C528.89 181.787 528.94 179.318 527.19 178.259C526.138 177.618 524.772 177.782 523.634 177.298C521.984 176.587 521.173 174.78 520.632 173.073C519.52 169.56 518.923 165.903 518.861 162.219C518.79 157.858 519.366 153.099 516.898 149.507C514.607 146.186 510.539 144.528 507.9 141.441C505.46 138.596 502.814 135.196 498.816 134.655C493.339 133.944 481.908 141.413 478.65 133.417C478.128 131.906 478.202 130.253 478.857 128.794C478.622 129.192 478.394 129.591 478.188 129.996C477.263 131.796 476.68 133.958 477.477 135.829C480.742 143.824 492.165 136.32 497.65 137.067C501.64 137.607 504.293 141.029 506.733 143.852C509.372 146.911 513.434 148.597 515.724 151.926C518.199 155.482 517.623 160.277 517.694 164.63C517.753 168.312 518.347 171.966 519.458 175.477C519.999 177.177 520.817 179.034 522.46 179.703C523.598 180.179 524.964 180.023 526.017 180.663C527.759 181.716 527.717 184.219 528.072 186.197C529.132 192.072 535.349 195.892 541.31 196.198C547.271 196.504 553.011 194.121 558.46 191.688C562.386 189.945 566.761 187.52 567.934 183.551C566.028 186.161 562.699 187.932 559.64 189.291Z"
    fill="black"
  />
  <defs>
    <linearGradient
      id="paint0_linear"
      x1="205.678"
      y1="225.959"
      x2="205.678"
      y2="96.8984"
      gradientUnits="userSpaceOnUse"
    >
      <stop stop-color="#808080" stop-opacity="0.25" />
      <stop offset="0.54" stop-color="#808080" stop-opacity="0.12" />
      <stop offset="1" stop-color="#808080" stop-opacity="0.1" />
    </linearGradient>
    <linearGradient
      id="paint1_linear"
      x1="124047"
      y1="67222"
      x2="124047"
      y2="46502.7"
      gradientUnits="userSpaceOnUse"
    >
      <stop stop-color="#808080" stop-opacity="0.25" />
      <stop offset="0.54" stop-color="#808080" stop-opacity="0.12" />
      <stop offset="1" stop-color="#808080" stop-opacity="0.1" />
    </linearGradient>
  </defs>
</svg>
