<svg
  class="pwa-svg"
  width="611"
  height="385"
  viewBox="0 0 611 385"
  fill="none"
  xmlns="http://www.w3.org/2000/svg"
>
  <path
    opacity="0.1"
    d="M31.9294 135.211C46.6985 173.557 31.7357 217.415 13.3398 250.419C7.18294 261.471 0.362138 273.06 0.039009 286.997C-0.354963 304.039 9.28686 319.799 20.3811 330.156C40.615 349.005 67.4247 355.021 90.1948 345.809C109.859 337.851 125.914 319.613 145.778 312.382C178.997 300.269 215.643 321.176 245.613 347.074C266.813 365.364 289.634 387.645 314.145 383.973C331.386 381.401 345.461 365.887 354.682 347.548C359.133 338.694 362.918 328.765 369.692 322.828C373.722 319.299 378.546 317.446 383.4 316.14C427.697 304.243 476.508 334.7 520.08 319.653C549.509 309.496 572.054 279.381 585.407 244.609C598.76 209.837 604.017 170.472 608.143 131.464C611.072 103.73 613.217 73.8239 602.745 48.1974C591.665 21.091 567.959 4.48866 544.68 1.24796C521.401 -1.99275 498.545 6.25301 477.729 18.0326C451.714 32.7538 426.474 53.4632 397.402 53.2717C377.599 53.1421 358.313 43.2072 339.041 35.591C306.866 22.8667 273.689 16.3851 240.644 10.3816C209.008 4.63367 177.084 -0.742229 145.627 2.18723C123.367 4.26756 104.084 15.0612 82.6059 19.9454C68.6057 23.1287 54.2883 20.5378 40.6508 25.9838C23.8529 32.6942 6.93991 48.447 7.04019 73.493C7.14733 97.322 24.0935 114.863 31.9294 135.211Z"
    fill="#4DCAB1"
  />
  <path
    d="M238.947 65.9311H238.27V64.7488H238.778C238.868 64.7488 238.954 64.7132 239.017 64.6498C239.08 64.5865 239.116 64.5006 239.116 64.411V58.3303C239.116 58.2407 239.08 58.1547 239.017 58.0914C238.954 58.028 238.868 57.9924 238.778 57.9924H238.27V54.5391C238.27 53.573 238.08 52.6164 237.71 51.7238C237.339 50.8312 236.797 50.0202 236.113 49.3371C235.429 48.6539 234.616 48.1121 233.723 47.7423C232.829 47.3726 231.871 47.1823 230.903 47.1824H230.151V46.3378C230.151 46.2482 230.116 46.1623 230.052 46.0989C229.989 46.0356 229.903 46 229.813 46H223.724C223.634 46 223.548 46.0356 223.485 46.0989C223.421 46.1623 223.386 46.2482 223.386 46.3378V47.1824H113.367C112.4 47.1823 111.442 47.3726 110.548 47.7423C109.654 48.1121 108.842 48.6539 108.158 49.3371C107.474 50.0202 106.931 50.8312 106.561 51.7238C106.191 52.6164 106 53.573 106 54.5391V211.098C106 212.064 106.191 213.021 106.561 213.913C106.931 214.806 107.474 215.617 108.158 216.3C108.842 216.983 109.654 217.525 110.548 217.895C111.442 218.264 112.4 218.455 113.367 218.455H230.903C231.871 218.455 232.829 218.264 233.723 217.895C234.616 217.525 235.429 216.983 236.113 216.3C236.797 215.617 237.339 214.806 237.71 213.913C238.08 213.021 238.27 212.064 238.27 211.098V72.6874H238.947C239.037 72.6874 239.123 72.6518 239.186 72.5885C239.25 72.5251 239.285 72.4392 239.285 72.3496V66.2689C239.285 66.1793 239.25 66.0934 239.186 66.0301C239.123 65.9667 239.037 65.9311 238.947 65.9311Z"
    fill="var(--ion-color-step-200)"
  />
  <path
    d="M233.108 52H112V212.466H233.108V52Z"
    fill="var(--ion-background-color)"
  />
  <path
    fill-rule="evenodd"
    clip-rule="evenodd"
    d="M174.42 130.195L175.312 120L164 133.376L169.971 133.898L169.079 144.092L180.39 130.717L174.42 130.195Z"
    fill="var(--ion-color-primary)"
  />
  <path
    d="M455.904 88.1622H351V86H303.432V88.1622H198.096C197.164 88.1622 196.241 88.3457 195.38 88.7023C194.52 89.0589 193.737 89.5816 193.078 90.2405C192.419 90.8995 191.897 91.6817 191.54 92.5426C191.184 93.4035 191 94.3263 191 95.2581V238.904C191 240.786 191.748 242.591 193.078 243.922C194.409 245.252 196.214 246 198.096 246H455.904C457.786 246 459.591 245.252 460.922 243.922C462.252 242.591 463 240.786 463 238.904V95.2581C463 94.3263 462.816 93.4035 462.46 92.5426C462.103 91.6817 461.581 90.8995 460.922 90.2405C460.263 89.5816 459.48 89.0589 458.62 88.7023C457.759 88.3457 456.836 88.1622 455.904 88.1622V88.1622Z"
    fill="var(--ion-color-step-200)"
  />
  <path d="M454 101H201V244H454V101Z" fill="var(--ion-background-color)" />
  <path
    fill-rule="evenodd"
    clip-rule="evenodd"
    d="M329.935 170.655L331.042 158L317 174.604L324.414 175.253L323.306 187.908L337.349 171.304L329.935 170.655Z"
    fill="var(--ion-color-primary)"
  />
  <path
    d="M327.5 97C328.881 97 330 95.8807 330 94.5C330 93.1193 328.881 92 327.5 92C326.119 92 325 93.1193 325 94.5C325 95.8807 326.119 97 327.5 97Z"
    fill="#6C63FF"
  />
  <path
    d="M470.546 241.142H445.889V239.354C445.889 239.308 445.88 239.262 445.862 239.219C445.844 239.176 445.818 239.137 445.786 239.104C445.753 239.071 445.714 239.045 445.671 239.027C445.629 239.009 445.583 239 445.537 239H437.083C437.036 239 436.991 239.009 436.948 239.027C436.905 239.045 436.866 239.071 436.834 239.104C436.801 239.137 436.775 239.176 436.757 239.219C436.74 239.262 436.73 239.308 436.73 239.354V241.142H431.447V239.354C431.447 239.308 431.438 239.262 431.42 239.219C431.402 239.176 431.376 239.137 431.344 239.104C431.311 239.071 431.272 239.045 431.229 239.027C431.187 239.009 431.141 239 431.095 239H422.641C422.594 239 422.549 239.009 422.506 239.027C422.463 239.045 422.424 239.071 422.392 239.104C422.359 239.137 422.333 239.176 422.315 239.219C422.298 239.262 422.288 239.308 422.288 239.354V241.142H417.005V239.354C417.005 239.308 416.996 239.262 416.978 239.219C416.96 239.176 416.934 239.137 416.902 239.104C416.869 239.071 416.83 239.045 416.787 239.027C416.745 239.009 416.699 239 416.652 239H408.199C408.152 239 408.106 239.009 408.064 239.027C408.021 239.045 407.982 239.071 407.949 239.104C407.917 239.137 407.891 239.176 407.873 239.219C407.855 239.262 407.846 239.308 407.846 239.354V241.142H402.563V239.354C402.563 239.308 402.554 239.262 402.536 239.219C402.518 239.176 402.492 239.137 402.459 239.104C402.427 239.071 402.388 239.045 402.345 239.027C402.302 239.009 402.257 239 402.21 239H393.756C393.71 239 393.664 239.009 393.622 239.027C393.579 239.045 393.54 239.071 393.507 239.104C393.475 239.137 393.449 239.176 393.431 239.219C393.413 239.262 393.404 239.308 393.404 239.354V241.142H388.121V239.354C388.121 239.308 388.111 239.262 388.094 239.219C388.076 239.176 388.05 239.137 388.017 239.104C387.985 239.071 387.946 239.045 387.903 239.027C387.86 239.009 387.815 239 387.768 239H379.314C379.268 239 379.222 239.009 379.18 239.027C379.137 239.045 379.098 239.071 379.065 239.104C379.033 239.137 379.007 239.176 378.989 239.219C378.971 239.262 378.962 239.308 378.962 239.354V241.142H373.678V239.354C373.678 239.308 373.669 239.262 373.652 239.219C373.634 239.176 373.608 239.137 373.575 239.104C373.543 239.071 373.504 239.045 373.461 239.027C373.418 239.009 373.372 239 373.326 239H364.872C364.826 239 364.78 239.009 364.738 239.027C364.695 239.045 364.656 239.071 364.623 239.104C364.591 239.137 364.565 239.176 364.547 239.219C364.529 239.262 364.52 239.308 364.52 239.354V241.142H359.236V239.354C359.236 239.308 359.227 239.262 359.21 239.219C359.192 239.176 359.166 239.137 359.133 239.104C359.101 239.071 359.062 239.045 359.019 239.027C358.976 239.009 358.93 239 358.884 239H292.662C292.616 239 292.57 239.009 292.527 239.027C292.484 239.045 292.446 239.071 292.413 239.104C292.38 239.137 292.354 239.176 292.336 239.219C292.319 239.262 292.31 239.308 292.31 239.354V241.142H287.026V239.354C287.026 239.308 287.017 239.262 286.999 239.219C286.981 239.176 286.956 239.137 286.923 239.104C286.89 239.071 286.851 239.045 286.809 239.027C286.766 239.009 286.72 239 286.674 239H278.22C278.174 239 278.128 239.009 278.085 239.027C278.042 239.045 278.003 239.071 277.971 239.104C277.938 239.137 277.912 239.176 277.894 239.219C277.877 239.262 277.868 239.308 277.868 239.354V241.142H272.584V239.354C272.584 239.308 272.575 239.262 272.557 239.219C272.539 239.176 272.513 239.137 272.481 239.104C272.448 239.071 272.409 239.045 272.366 239.027C272.324 239.009 272.278 239 272.232 239H263.778C263.732 239 263.686 239.009 263.643 239.027C263.6 239.045 263.561 239.071 263.529 239.104C263.496 239.137 263.47 239.176 263.452 239.219C263.435 239.262 263.426 239.308 263.426 239.354V241.142H258.142V239.354C258.142 239.308 258.133 239.262 258.115 239.219C258.097 239.176 258.071 239.137 258.039 239.104C258.006 239.071 257.967 239.045 257.924 239.027C257.882 239.009 257.836 239 257.79 239H249.336C249.289 239 249.244 239.009 249.201 239.027C249.158 239.045 249.119 239.071 249.087 239.104C249.054 239.137 249.028 239.176 249.01 239.219C248.993 239.262 248.983 239.308 248.983 239.354V241.142H243.7V239.354C243.7 239.308 243.691 239.262 243.673 239.219C243.655 239.176 243.629 239.137 243.597 239.104C243.564 239.071 243.525 239.045 243.482 239.027C243.44 239.009 243.394 239 243.348 239H234.894C234.847 239 234.802 239.009 234.759 239.027C234.716 239.045 234.677 239.071 234.645 239.104C234.612 239.137 234.586 239.176 234.568 239.219C234.55 239.262 234.541 239.308 234.541 239.354V241.142H229.258V239.354C229.258 239.308 229.249 239.262 229.231 239.219C229.213 239.176 229.187 239.137 229.154 239.104C229.122 239.071 229.083 239.045 229.04 239.027C228.997 239.009 228.952 239 228.905 239H220.452C220.405 239 220.359 239.009 220.317 239.027C220.274 239.045 220.235 239.071 220.202 239.104C220.17 239.137 220.144 239.176 220.126 239.219C220.108 239.262 220.099 239.308 220.099 239.354V241.142H214.816V239.354C214.816 239.308 214.806 239.262 214.789 239.219C214.771 239.176 214.745 239.137 214.712 239.104C214.68 239.071 214.641 239.045 214.598 239.027C214.555 239.009 214.51 239 214.463 239H206.009C205.963 239 205.917 239.009 205.875 239.027C205.832 239.045 205.793 239.071 205.76 239.104C205.728 239.137 205.702 239.176 205.684 239.219C205.666 239.262 205.657 239.308 205.657 239.354V241.142H189.454C187.212 241.142 185.061 242.038 183.476 243.633C181.891 245.228 181 247.392 181 249.648V253.494C181 255.75 181.891 257.913 183.476 259.509C185.062 261.104 187.212 262 189.454 262H470.546C472.788 262 474.938 261.104 476.524 259.509C478.109 257.913 479 255.75 479 253.494V249.648C479 248.531 478.781 247.425 478.356 246.393C477.932 245.361 477.309 244.423 476.524 243.633C475.739 242.843 474.807 242.217 473.781 241.789C472.756 241.362 471.656 241.142 470.546 241.142V241.142Z"
    fill="var(--ion-color-step-200)"
  />
  <path
    d="M503.557 190.685H502.808V170.197C502.808 168.64 502.501 167.098 501.904 165.66C501.308 164.221 500.433 162.914 499.33 161.813C498.228 160.712 496.919 159.838 495.478 159.242C494.038 158.647 492.493 158.34 490.934 158.34H447.468C445.909 158.34 444.365 158.647 442.924 159.242C441.483 159.838 440.174 160.712 439.072 161.813C437.969 162.914 437.094 164.221 436.498 165.66C435.901 167.098 435.594 168.64 435.594 170.197V282.594C435.594 284.151 435.901 285.693 436.498 287.131C437.094 288.57 437.969 289.877 439.072 290.978C440.174 292.079 441.483 292.953 442.924 293.549C444.365 294.145 445.909 294.451 447.468 294.451H490.934C492.493 294.451 494.038 294.145 495.478 293.549C496.919 292.953 498.228 292.079 499.33 290.978C500.433 289.877 501.308 288.57 501.904 287.131C502.501 285.693 502.808 284.151 502.808 282.594V205.268H503.557V190.685Z"
    fill="var(--ion-color-step-200)"
  />
  <path
    d="M500.408 170.854V283.086C500.409 285.435 499.475 287.687 497.812 289.348C496.15 291.009 493.894 291.943 491.542 291.943H447.866C445.514 291.943 443.259 291.009 441.596 289.348C439.933 287.687 439 285.435 439 283.086V170.854C439 168.506 439.934 166.254 441.597 164.593C443.26 162.933 445.515 162 447.866 162H453.165C452.904 162.639 452.805 163.332 452.875 164.018C452.946 164.704 453.185 165.362 453.57 165.935C453.955 166.507 454.476 166.976 455.085 167.301C455.695 167.625 456.375 167.795 457.066 167.795H481.968C482.658 167.795 483.339 167.625 483.948 167.301C484.558 166.976 485.078 166.507 485.464 165.935C485.849 165.362 486.088 164.704 486.158 164.018C486.229 163.332 486.129 162.639 485.869 162H491.542C493.894 162 496.149 162.933 497.811 164.593C499.474 166.254 500.408 168.506 500.408 170.854V170.854Z"
    fill="var(--ion-background-color)"
  />
  <path
    fill-rule="evenodd"
    clip-rule="evenodd"
    d="M470.827 225.578L471.49 218L463.082 227.942L467.52 228.33L466.857 235.908L475.265 225.966L470.827 225.578Z"
    fill="var(--ion-color-primary)"
  />
</svg>
