<svg
  width="546"
  height="453"
  viewBox="0 0 546 453"
  fill="none"
  xmlns="http://www.w3.org/2000/svg"
>
  <title>girl looking at calendar</title>
  <path
    opacity="0.1"
    d="M35.9994 250.135C56.9326 284 53.0101 330.137 43.8162 366.514C40.7402 378.694 37.1958 391.552 39.8259 405.183C43.0429 421.851 54.771 434.94 66.6402 442.435C88.279 456.066 112.988 455.688 130.981 441.436C146.519 429.126 156.751 407.655 172.616 396.006C199.143 376.505 235.569 388.324 267.197 406.549C289.564 419.412 314.183 435.781 334.856 426.513C349.401 420.005 358.471 401.644 362.704 381.663C364.747 372.017 365.983 361.479 370.667 354.131C373.455 349.762 377.288 346.838 381.261 344.439C417.523 322.573 466.586 340.855 501.555 316.094C525.175 299.375 538.602 264.844 543.016 227.919C547.429 190.994 543.8 151.484 539.257 112.583C536.023 84.9264 531.649 55.3391 517.133 32.8466C501.776 9.05594 477.569 -1.58354 456.528 0.674177C435.488 2.93189 417.218 16.2637 401.472 32.5587C381.791 52.9233 364.041 78.9322 338.57 85.5021C321.221 89.9781 302.274 84.7966 283.824 81.8672C253.02 76.968 222.644 78.3734 192.483 80.2134C163.608 81.9744 134.559 84.1644 107.655 94.3241C88.6177 101.521 74.0055 116.501 56.2385 126.243C44.6571 132.592 31.5914 133.4 20.8002 141.866C7.50879 152.297 -3.99353 171.549 1.32874 195.887C6.40259 219.04 24.8921 232.163 35.9994 250.135Z"
    fill="#4DCAB1"
  />
  <path
    d="M78.9823 110.738L103.641 105.179C103.641 105.179 97.8217 131.188 78.9823 110.738Z"
    fill="#4DCAB1"
  />
  <path
    d="M69.2841 90.7625L91.8203 86.8115C91.8203 86.8115 77.6653 108.344 69.2841 90.7625Z"
    fill="#4DCAB1"
  />
  <path
    d="M113.999 19.1143H436.047V393.065H113.999V19.1143Z"
    fill="url(#paint0_linear)"
  />
  <path
    d="M117.746 23.4658H432.293V388.702H117.746V23.4658Z"
    fill="#F7F7FD"
  />
  <path
    d="M333.78 64.6357H413.297V70.9686H333.78V64.6357Z"
    fill="#E2E2EC"
  />
  <path
    d="M277.487 80.1172H413.297V86.4501H277.487V80.1172Z"
    fill="#E2E2EC"
  />
  <path d="M132.809 58.585H189.242V107.284H132.809V58.585Z" fill="white" />
  <path
    d="M133.112 58.8672V107.002H188.986V58.8672H133.112ZM132.547 58.3027H189.551V107.566H132.547V58.3027Z"
    fill="#E2E2EC"
  />
  <path d="M189.809 58.585H246.242V107.284H189.809V58.585Z" fill="white" />
  <path
    d="M190.115 58.8672V107.002H245.99V58.8672H190.115ZM189.551 58.3027H246.555V107.566H189.551V58.3027Z"
    fill="#E2E2EC"
  />
  <path
    d="M132.809 107.848H189.242V156.547H132.809V107.848Z"
    fill="white"
  />
  <path
    d="M133.112 108.13V156.264H188.986V108.13H133.112ZM132.547 107.565H189.551V156.829H132.547V107.565Z"
    fill="#E2E2EC"
  />
  <path
    d="M189.809 107.848H246.242V156.547H189.809V107.848Z"
    fill="white"
  />
  <path
    d="M190.115 108.13V156.264H245.99V108.13H190.115ZM189.551 107.565H246.555V156.829H189.551V107.565Z"
    fill="#E2E2EC"
  />
  <path
    d="M246.809 107.848H303.242V156.547H246.809V107.848Z"
    fill="white"
  />
  <path
    d="M247.088 108.13V156.264H302.963V108.13H247.088ZM246.524 107.565H303.527V156.829H246.524V107.565Z"
    fill="#E2E2EC"
  />
  <path
    d="M303.805 107.848H360.238V156.547H303.805V107.848Z"
    fill="white"
  />
  <path
    d="M304.088 108.13V156.264H359.963V108.13H304.088ZM303.524 107.565H360.527V156.829H303.524V107.565Z"
    fill="#E2E2EC"
  />
  <path
    d="M360.805 107.848H417.238V156.547H360.805V107.848Z"
    fill="white"
  />
  <path
    d="M361.084 108.13V156.264H416.959V108.13H361.084ZM360.52 107.565H417.523V156.829H360.52V107.565Z"
    fill="#E2E2EC"
  />
  <path
    d="M132.809 157.105H189.242V205.804H132.809V157.105Z"
    fill="white"
  />
  <path
    d="M133.112 157.394V205.528H188.986V157.394H133.112ZM132.547 156.829H189.551V206.092H132.547V156.829Z"
    fill="#E2E2EC"
  />
  <path
    d="M189.809 157.105H246.242V205.804H189.809V157.105Z"
    fill="white"
  />
  <path
    d="M190.115 157.394V205.528H245.99V157.394H190.115ZM189.551 156.829H246.555V206.092H189.551V156.829Z"
    fill="#E2E2EC"
  />
  <path
    d="M246.809 157.105H303.242V205.804H246.809V157.105Z"
    fill="white"
  />
  <path
    d="M247.088 157.394V205.528H302.963V157.394H247.088ZM246.524 156.829H303.527V206.092H246.524V156.829Z"
    fill="#E2E2EC"
  />
  <path
    d="M303.805 157.105H360.238V205.804H303.805V157.105Z"
    fill="white"
  />
  <path
    d="M304.088 157.394V205.528H359.963V157.394H304.088ZM303.524 156.829H360.527V206.092H303.524V156.829Z"
    fill="#E2E2EC"
  />
  <path
    d="M360.805 157.105H417.238V205.804H360.805V157.105Z"
    fill="white"
  />
  <path
    d="M361.084 157.394V205.528H416.959V157.394H361.084ZM360.52 156.829H417.523V206.092H360.52V156.829Z"
    fill="#E2E2EC"
  />
  <path
    d="M132.809 206.369H189.242V255.068H132.809V206.369Z"
    fill="white"
  />
  <path
    d="M133.112 206.651V254.786H188.986V206.651H133.112ZM132.547 206.087H189.551V255.35H132.547V206.087Z"
    fill="#E2E2EC"
  />
  <path
    d="M189.809 206.369H246.242V255.068H189.809V206.369Z"
    fill="white"
  />
  <path
    d="M190.115 206.651V254.786H245.99V206.651H190.115ZM189.551 206.087H246.555V255.35H189.551V206.087Z"
    fill="#E2E2EC"
  />
  <path
    d="M246.809 206.369H303.242V255.068H246.809V206.369Z"
    fill="white"
  />
  <path
    d="M247.088 206.651V254.786H302.963V206.651H247.088ZM246.524 206.087H303.527V255.35H246.524V206.087Z"
    fill="#E2E2EC"
  />
  <path
    d="M303.805 206.369H360.238V255.068H303.805V206.369Z"
    fill="white"
  />
  <path
    d="M304.088 206.651V254.786H359.963V206.651H304.088ZM303.524 206.087H360.527V255.35H303.524V206.087Z"
    fill="#E2E2EC"
  />
  <path
    d="M360.805 206.369H417.238V255.068H360.805V206.369Z"
    fill="white"
  />
  <path
    d="M361.084 206.651V254.786H416.959V206.651H361.084ZM360.52 206.087H417.523V255.35H360.52V206.087Z"
    fill="#E2E2EC"
  />
  <path
    d="M132.809 255.626H189.242V304.325H132.809V255.626Z"
    fill="white"
  />
  <path
    d="M133.112 255.914V304.043H188.986V255.914H133.112ZM132.547 255.35H189.551V304.607H132.547V255.35Z"
    fill="#E2E2EC"
  />
  <path
    d="M189.809 255.626H246.242V304.325H189.809V255.626Z"
    fill="white"
  />
  <path
    d="M190.115 255.914V304.043H245.99V255.914H190.115ZM189.551 255.35H246.555V304.607H189.551V255.35Z"
    fill="#E2E2EC"
  />
  <path
    d="M246.809 255.626H303.242V304.325H246.809V255.626Z"
    fill="white"
  />
  <path
    d="M247.088 255.914V304.043H302.963V255.914H247.088ZM246.524 255.35H303.527V304.607H246.524V255.35Z"
    fill="#E2E2EC"
  />
  <path
    d="M303.805 255.626H360.238V304.325H303.805V255.626Z"
    fill="white"
  />
  <path
    d="M304.088 255.914V304.043H359.963V255.914H304.088ZM303.524 255.35H360.527V304.607H303.524V255.35Z"
    fill="#E2E2EC"
  />
  <path
    d="M360.805 255.626H417.238V304.325H360.805V255.626Z"
    fill="white"
  />
  <path
    d="M361.084 255.914V304.043H416.959V255.914H361.084ZM360.52 255.35H417.523V304.607H360.52V255.35Z"
    fill="#E2E2EC"
  />
  <path d="M132.809 304.89H189.242V353.589H132.809V304.89Z" fill="white" />
  <path
    d="M133.112 305.172V353.306H188.986V305.172H133.112ZM132.547 304.607H189.551V353.871H132.547V304.607Z"
    fill="#E2E2EC"
  />
  <path d="M189.809 304.89H246.242V353.589H189.809V304.89Z" fill="white" />
  <path
    d="M190.115 305.172V353.306H245.99V305.172H190.115ZM189.551 304.607H246.555V353.871H189.551V304.607Z"
    fill="#E2E2EC"
  />
  <path d="M246.809 304.89H303.242V353.589H246.809V304.89Z" fill="white" />
  <path
    d="M247.088 305.172V353.306H302.963V305.172H247.088ZM246.524 304.607H303.527V353.871H246.524V304.607Z"
    fill="#E2E2EC"
  />
  <path d="M303.805 304.89H360.238V353.589H303.805V304.89Z" fill="white" />
  <path
    d="M304.088 305.172V353.306H359.963V305.172H304.088ZM303.524 304.607H360.527V353.871H303.524V304.607Z"
    fill="#E2E2EC"
  />
  <path d="M360.805 304.89H417.238V353.589H360.805V304.89Z" fill="white" />
  <path
    d="M361.084 305.172V353.306H416.959V305.172H361.084ZM360.52 304.607H417.523V353.871H360.52V304.607Z"
    fill="#E2E2EC"
  />
  <path
    d="M409.791 118.471C408.014 118.471 406.574 117.03 406.574 115.253C406.574 113.477 408.014 112.036 409.791 112.036C411.567 112.036 413.008 113.477 413.008 115.253C413.008 117.03 411.567 118.471 409.791 118.471Z"
    fill="#FC6681"
  />
  <path
    d="M401.756 118.471C399.979 118.471 398.539 117.03 398.539 115.253C398.539 113.477 399.979 112.036 401.756 112.036C403.532 112.036 404.973 113.477 404.973 115.253C404.973 117.03 403.532 118.471 401.756 118.471Z"
    fill="#FFD037"
  />
  <path
    d="M296.189 166.165C294.412 166.165 292.972 164.725 292.972 162.948C292.972 161.171 294.412 159.73 296.189 159.73C297.966 159.73 299.406 161.171 299.406 162.948C299.406 164.725 297.966 166.165 296.189 166.165Z"
    fill="#4DCAB1"
  />
  <path
    d="M288.15 166.165C286.373 166.165 284.933 164.725 284.933 162.948C284.933 161.171 286.373 159.73 288.15 159.73C289.927 159.73 291.367 161.171 291.367 162.948C291.367 164.725 289.927 166.165 288.15 166.165Z"
    fill="#4DCAB1"
  />
  <path
    d="M124.181 258.336C122.405 258.336 120.964 256.895 120.964 255.119C120.964 253.342 122.405 251.901 124.181 251.901C125.958 251.901 127.398 253.342 127.398 255.119C127.398 256.895 125.958 258.336 124.181 258.336Z"
    fill="#4DCAB1"
  />
  <path
    d="M122.572 254.588C120.795 254.588 119.355 253.147 119.355 251.371C119.355 249.594 120.795 248.153 122.572 248.153C124.349 248.153 125.789 249.594 125.789 251.371C125.789 253.147 124.349 254.588 122.572 254.588Z"
    fill="#4DCAB1"
  />
  <path
    d="M120.963 251.371C119.186 251.371 117.746 249.931 117.746 248.154C117.746 246.377 119.186 244.937 120.963 244.937C122.739 244.937 124.18 246.377 124.18 248.154C124.18 249.931 122.739 251.371 120.963 251.371Z"
    fill="#4DCAB1"
  />
  <path
    d="M180.982 118.471C179.205 118.471 177.765 117.03 177.765 115.253C177.765 113.477 179.205 112.036 180.982 112.036C182.759 112.036 184.199 113.477 184.199 115.253C184.199 117.03 182.759 118.471 180.982 118.471Z"
    fill="#4DCAB1"
  />
  <path
    d="M172.943 118.471C171.166 118.471 169.726 117.03 169.726 115.253C169.726 113.477 171.166 112.036 172.943 112.036C174.72 112.036 176.16 113.477 176.16 115.253C176.16 117.03 174.72 118.471 172.943 118.471Z"
    fill="#4DCAB1"
  />
  <path
    d="M164.9 118.471C163.123 118.471 161.683 117.03 161.683 115.253C161.683 113.477 163.123 112.036 164.9 112.036C166.677 112.036 168.117 113.477 168.117 115.253C168.117 117.03 166.677 118.471 164.9 118.471Z"
    fill="#4DCAB1"
  />
  <path
    d="M156.865 118.471C155.088 118.471 153.648 117.03 153.648 115.253C153.648 113.477 155.088 112.036 156.865 112.036C158.642 112.036 160.082 113.477 160.082 115.253C160.082 117.03 158.642 118.471 156.865 118.471Z"
    fill="#4DCAB1"
  />
  <path
    d="M180.982 218.142C179.205 218.142 177.765 216.702 177.765 214.925C177.765 213.148 179.205 211.708 180.982 211.708C182.759 211.708 184.199 213.148 184.199 214.925C184.199 216.702 182.759 218.142 180.982 218.142Z"
    fill="#4DCAB1"
  />
  <path
    d="M172.943 218.142C171.166 218.142 169.726 216.702 169.726 214.925C169.726 213.148 171.166 211.708 172.943 211.708C174.72 211.708 176.16 213.148 176.16 214.925C176.16 216.702 174.72 218.142 172.943 218.142Z"
    fill="#4DCAB1"
  />
  <path
    d="M164.9 218.142C163.123 218.142 161.683 216.702 161.683 214.925C161.683 213.148 163.123 211.708 164.9 211.708C166.677 211.708 168.117 213.148 168.117 214.925C168.117 216.702 166.677 218.142 164.9 218.142Z"
    fill="#4DCAB1"
  />
  <path
    d="M156.865 218.142C155.088 218.142 153.648 216.702 153.648 214.925C153.648 213.148 155.088 211.708 156.865 211.708C158.642 211.708 160.082 213.148 160.082 214.925C160.082 216.702 158.642 218.142 156.865 218.142Z"
    fill="#4DCAB1"
  />
  <path
    d="M352.99 166.165C351.213 166.165 349.773 164.725 349.773 162.948C349.773 161.171 351.213 159.73 352.99 159.73C354.767 159.73 356.207 161.171 356.207 162.948C356.207 164.725 354.767 166.165 352.99 166.165Z"
    fill="#FFD037"
  />
  <path
    d="M409.791 214.931C408.014 214.931 406.574 213.49 406.574 211.713C406.574 209.936 408.014 208.496 409.791 208.496C411.567 208.496 413.008 209.936 413.008 211.713C413.008 213.49 411.567 214.931 409.791 214.931Z"
    fill="#FC6681"
  />
  <path
    d="M126.96 263.19C123.432 265.273 117.929 266.627 110.959 262.152L111.027 272.063C110.53 278.836 102.126 303.62 102.126 303.62L96.2003 323.996C91.954 338.391 89.7614 353.313 89.6872 368.321C89.6872 373.293 89.2244 378.418 87.7965 382.273C84.6416 390.802 89.0382 401.791 90.9458 405.883C94.1569 406.968 97.4215 407.887 100.727 408.638C101.024 408.706 101.316 408.795 101.602 408.903L101.641 408.847C101.641 408.847 110.536 412.374 114.487 411.889C117.433 411.528 119.278 415.202 116.97 417.906C119.149 418.47 121.384 418.871 122.89 418.685C126.841 418.199 128.822 424.995 121.406 426.936C113.99 428.878 71.9709 426.936 71.9709 426.936C70.7891 426.345 69.8372 425.378 69.2651 424.186C68.693 422.995 68.533 421.647 68.8103 420.355C65.582 420.231 63.5671 420.135 63.5671 420.135C63.5671 420.135 56.151 416.749 63.5671 407.509L63.9622 407.808L65.5481 403.14V396.835C65.5481 396.835 56.1567 351.681 59.1197 346.342C62.0828 341.002 63.5671 313.814 63.5671 313.814L62.5625 284.198C59.8816 278.667 58.5102 269.997 57.816 263.218C56.8073 259.984 56.1711 256.646 55.9196 253.267C55.8011 251.676 55.7051 250.005 55.6431 248.272C55.618 244.471 56.2402 240.694 57.483 237.102C54.661 233.038 50.0725 226.756 46.2854 223.042C40.3536 217.217 41.838 210.416 41.838 210.416L44.31 193.906L50.2418 165.747C49.4968 157.935 51.1279 153.437 52.9283 150.897C52.4994 148.374 52.0987 145.851 51.7995 143.317C50.4847 132.296 51.0708 121.131 53.5322 110.309C54.3901 106.533 55.5584 102.661 58.2054 99.7993C61.2023 96.5595 66.0674 94.584 67.1849 90.3395C67.4614 89.284 67.4727 88.1608 67.8734 87.1448C68.9571 84.3679 72.3886 83.3575 75.3911 82.9963C80.7416 82.3472 88.4794 81.8674 93.6211 83.9558C97.2106 85.4233 102.155 89.4646 104.119 93.7995C105.248 95.7919 105.772 97.8859 105.293 99.8558C105.103 100.582 104.817 101.278 104.44 101.927C105.206 104.003 105.596 106.2 105.592 108.413C105.574 112.217 104.411 115.927 102.255 119.061C100.099 122.195 97.0488 124.607 93.5025 125.983C93.384 126.356 93.2768 126.723 93.1865 127.084C92.9618 127.954 92.7997 128.838 92.7011 129.731C92.797 131.424 92.9043 133.168 92.9833 134.89C93.0397 135.127 93.0999 135.36 93.1639 135.59C97.4154 137.472 101.56 139.586 105.58 141.923C102.612 146.291 106.077 164.742 106.077 164.742C113.493 169.111 120.909 180.281 112.997 191.931C105.084 203.581 109.537 216.201 109.537 216.201L110.773 235.183V235.217L111.021 239.016H110.925L111.021 240.455L110.807 240.494V242.041C114.278 243.317 119.352 245.89 122.377 250.648C123.807 252.989 125.548 255.125 127.552 256.998C128.013 257.397 128.371 257.9 128.597 258.465C128.824 259.03 128.912 259.641 128.854 260.247C128.796 260.853 128.594 261.437 128.264 261.949C127.935 262.461 127.487 262.886 126.96 263.19ZM67.2696 212.753C67.5671 209.469 66.9601 206.166 65.5143 203.203C64.3516 203.225 63.1871 203.238 62.0207 203.242C61.9022 204.061 61.7611 204.839 61.5918 205.551C60.5872 209.829 64.6 211.878 67.2752 212.747L67.2696 212.753Z"
    fill="url(#paint1_linear)"
  />
  <path
    d="M66.2933 400.927L64.3913 406.634L70.5996 412.842L91.0532 417.6L105.801 416.172L104.847 410.94C104.565 409.815 103.979 408.79 103.153 407.976C102.326 407.163 101.292 406.593 100.163 406.329C94.1009 404.906 82.5422 401.655 80.1153 397.146L66.2933 400.927Z"
    fill="#FFB8B8"
  />
  <path
    opacity="0.1"
    d="M66.2933 400.927L64.3913 406.634L70.5996 412.842L91.0532 417.6L105.801 416.172L104.847 410.94C104.565 409.815 103.979 408.79 103.153 407.976C102.326 407.163 101.292 406.593 100.163 406.329C94.1009 404.906 82.5422 401.655 80.1153 397.146L66.2933 400.927Z"
    fill="black"
  />
  <path
    d="M101.018 414.722L98.1621 410.917L101.018 406.509C101.018 406.509 109.58 409.963 113.384 409.489C117.188 409.015 119.09 415.698 111.956 417.578C104.822 419.457 64.3888 417.578 64.3888 417.578C64.3888 417.578 57.2548 414.247 64.3888 405.211L70.5971 409.969C70.5971 409.969 81.0609 415.675 86.2929 414.727L101.018 414.722Z"
    fill="#2E3037"
  />
  <path
    d="M113.863 422.799L99.1157 424.227L78.6621 419.469L72.4538 413.26L72.9561 411.747L73.6672 409.625L74.3784 407.559L88.1721 403.755C88.8768 404.905 89.8439 405.872 90.9941 406.577C95.4754 409.642 103.524 411.854 108.248 412.961C108.439 413.008 108.627 413.066 108.812 413.136C109.812 413.472 110.712 414.054 111.428 414.83C112.144 415.605 112.654 416.548 112.909 417.572L113.863 422.799Z"
    fill="#FFB8B8"
  />
  <path
    opacity="0.1"
    d="M113.863 422.799L99.1157 424.227L78.6621 419.468L72.4538 413.26L72.9561 411.747L78.6339 416.116C78.6339 416.116 89.0977 421.822 94.3296 420.874H109.105L106.25 417.07L108.812 413.119C109.812 413.455 110.712 414.037 111.428 414.813C112.144 415.588 112.654 416.531 112.909 417.555L113.863 422.799Z"
    fill="black"
  />
  <path
    d="M109.108 421.383L106.252 417.578L109.108 413.17C109.108 413.17 117.67 416.625 121.474 416.15C125.278 415.676 127.18 422.359 120.046 424.239C112.912 426.118 72.4787 424.239 72.4787 424.239C72.4787 424.239 65.3448 420.909 72.4787 411.872L78.687 416.63C78.687 416.63 89.1509 422.337 94.3828 421.388L109.108 421.383Z"
    fill="#2E3037"
  />
  <path
    d="M97.2148 145.473C97.2148 145.473 74.3795 147.849 77.7094 138.339C78.6406 135.642 78.8831 132.755 78.4149 129.94C77.8226 126.45 76.4425 123.142 74.3795 120.266L95.7869 123.596C94.5042 125.741 93.5278 128.055 92.8859 130.47C90.3349 140.557 97.2148 145.473 97.2148 145.473Z"
    fill="#DB8B8B"
  />
  <path
    d="M58.2085 253.933C58.2085 253.933 58.6826 274.388 63.4404 284.378L64.3943 313.395C64.3943 313.395 62.9663 340.036 60.1105 345.268C57.2547 350.501 66.3188 394.741 66.3188 394.741V402.355C66.3188 402.355 81.5574 408.061 85.8242 401.401L81.5405 344.789L83.4425 266.299L58.2085 253.933Z"
    fill="#474463"
  />
  <path
    opacity="0.1"
    d="M58.2085 253.933C58.2085 253.933 58.6826 274.388 63.4404 284.378L64.3943 313.395C64.3943 313.395 62.9663 340.036 60.1105 345.268C57.2547 350.501 66.3188 394.741 66.3188 394.741V402.355C66.3188 402.355 81.5574 408.061 85.8242 401.401L81.5405 344.789L83.4425 266.299L58.2085 253.933Z"
    fill="black"
  />
  <path
    d="M48.692 188.284L45.8361 195.898L43.46 212.075C43.139 214.328 43.3602 216.626 44.1052 218.777C44.8502 220.927 46.0976 222.87 47.7438 224.441C53.4498 230.148 61.0635 242.04 61.0635 242.04L70.0938 214.948C70.0938 214.948 61.0635 213.52 62.4801 207.334C63.8967 201.148 63.4396 189.69 63.4396 189.69L48.692 188.284Z"
    fill="#FC6681"
  />
  <path
    opacity="0.05"
    d="M48.692 188.284L45.8361 195.898L43.46 212.075C43.139 214.328 43.3602 216.626 44.1052 218.777C44.8502 220.927 46.0976 222.87 47.7438 224.441C53.4498 230.148 61.0635 242.04 61.0635 242.04L70.0938 214.948C70.0938 214.948 61.0635 213.52 62.4801 207.334C63.8967 201.148 63.4396 189.69 63.4396 189.69L48.692 188.284Z"
    fill="black"
  />
  <path
    opacity="0.1"
    d="M90.9727 406.583C84.8716 416.178 75.3728 410.742 73.6909 409.659L74.3795 407.559L88.1733 403.755C88.8709 404.905 89.83 405.874 90.9727 406.583Z"
    fill="black"
  />
  <path
    d="M110.055 272.486C109.581 279.146 101.493 303.405 101.493 303.405L95.7868 323.369C91.698 337.485 89.5878 352.1 89.5164 366.796C89.5164 371.667 89.0706 376.691 87.6934 380.467C83.8894 390.931 91.4975 405.206 91.4975 405.206C84.8376 417.098 73.4369 409.01 73.4369 409.01V401.402C73.4369 401.402 64.4066 360.012 66.777 351.929C69.1475 343.847 70.107 321.958 70.107 321.958V282.448C62.4871 274.855 57.8535 264.774 57.0525 254.046C56.9397 252.488 56.8494 250.851 56.7873 249.153C56.4035 238.428 63.7406 225.836 66.6077 221.354C67.2963 220.271 67.7365 219.661 67.7365 219.661L109.739 236.323L109.835 236.363V237.988V241.584L110.055 272.486Z"
    fill="#474463"
  />
  <path
    opacity="0.1"
    d="M95.7852 123.59C94.5025 125.735 93.526 128.049 92.8842 130.465C90.5589 131.347 88.0804 131.755 85.595 131.664C83.1096 131.572 80.6677 130.984 78.4132 129.934C77.82 126.447 76.44 123.14 74.3778 120.266L95.7852 123.59Z"
    fill="black"
  />
  <path
    d="M86.2687 130.718C76.023 130.718 67.7172 122.411 67.7172 112.165C67.7172 101.919 76.023 93.6123 86.2687 93.6123C96.5145 93.6123 104.82 101.919 104.82 112.165C104.82 122.411 96.5145 130.718 86.2687 130.718Z"
    fill="#FFB8B8"
  />
  <path
    opacity="0.1"
    d="M110.055 241.566L109.851 241.606C89.9058 245.709 64.8638 224.916 64.8638 224.916C65.5348 223.784 66.1142 222.601 66.5965 221.377C67.285 220.293 67.7252 219.684 67.7252 219.684L109.727 236.345L109.835 238.011L110.055 241.566Z"
    fill="black"
  />
  <path
    d="M104.821 144.993C104.821 144.993 78.1814 128.816 69.6196 135.477L57.7278 150.716C57.7278 150.716 50.1142 153.092 51.5195 168.315L45.8361 195.899L62.9598 200.183C62.9598 200.183 72.9495 209.699 64.8618 223.494C64.8618 223.494 90.0732 244.423 110.053 240.144L108.625 217.787C108.625 217.787 104.341 205.421 111.955 194.002C119.568 182.584 112.429 171.645 105.295 167.361C105.295 167.356 101.971 149.277 104.821 144.993Z"
    fill="#FC6681"
  />
  <path
    d="M106.25 242.041C106.25 242.041 116.24 243.943 120.998 251.557C122.371 253.841 124.045 255.93 125.976 257.766C126.41 258.16 126.747 258.65 126.959 259.196C127.171 259.743 127.253 260.332 127.198 260.916C127.144 261.499 126.954 262.063 126.643 262.56C126.333 263.058 125.911 263.476 125.411 263.783C121.636 266.041 115.478 267.446 107.701 261.057C94.3585 250.129 106.25 242.041 106.25 242.041Z"
    fill="#FFB8B8"
  />
  <path
    opacity="0.1"
    d="M91.5012 154.035C91.5012 154.035 81.9855 153.081 79.6094 177.82C77.2333 202.559 73.4011 208.265 73.4011 208.265C73.4011 208.265 71.025 221.112 76.731 228.72C82.437 236.329 93.3806 252.505 93.3806 252.505C93.3806 252.505 105.272 255.835 107.648 243.943L92.9008 216.353C92.9008 216.353 90.5247 206.837 96.2307 200.177C101.937 193.517 106.249 149.277 91.5012 154.035Z"
    fill="black"
  />
  <path
    d="M92.4738 152.607C92.4738 152.607 82.9582 151.653 80.5821 176.392C78.206 201.131 74.3738 206.837 74.3738 206.837C74.3738 206.837 71.9977 219.684 77.7037 227.292C83.4097 234.901 94.3533 251.077 94.3533 251.077C94.3533 251.077 106.245 254.407 108.621 242.515L93.8735 214.926C93.8735 214.926 91.4974 205.409 97.2034 198.749C102.909 192.089 107.204 147.849 92.4738 152.607Z"
    fill="#FC6681"
  />
  <path
    opacity="0.1"
    d="M100.309 170.443C100.309 170.443 101.257 185.175 96.99 193.28C92.7232 201.385 92.7063 211.833 96.99 217.551"
    fill="black"
  />
  <path
    opacity="0.1"
    d="M102.684 152.37C102.684 152.37 98.8796 148.565 87.936 148.086C76.9924 147.606 72.2403 144.281 72.2403 144.281"
    fill="black"
  />
  <path
    opacity="0.1"
    d="M76.226 88.1949C73.3363 88.5505 70.0176 89.5439 68.9904 92.2588C68.6067 93.2578 68.5953 94.3584 68.3301 95.3913C67.2521 99.5455 62.5733 101.482 59.6892 104.659C57.1438 107.481 56.0207 111.257 55.1741 114.954C52.7991 125.556 52.2267 136.482 53.4809 147.274C54.4065 155.176 56.3029 162.931 56.8334 170.855C57.3639 178.78 56.3932 187.117 52.0643 193.777C50.2018 196.639 47.7411 199.156 46.4204 202.305C49.1464 204.518 52.9109 204.834 56.4271 204.953C60.517 205.092 64.6089 205.092 68.7026 204.953C70.8473 204.879 73.0879 204.738 74.9391 203.654C76.3099 202.778 77.4361 201.568 78.2126 200.138C80.5548 196.187 81.1418 191.389 81.0346 186.784C80.9273 182.178 80.2049 177.595 80.1202 172.983C80.0751 170.472 80.2726 167.802 81.7175 165.747C82.7616 164.263 84.3476 163.264 85.7021 162.062C90.7816 157.546 92.5425 150.31 92.7118 143.509C92.8812 136.708 91.758 129.895 92.3337 123.116C92.5595 120.463 93.5528 117.274 96.1603 116.761C96.9843 116.597 97.8535 116.761 98.6436 116.445C100.737 115.637 100.534 112.685 101.133 110.524C101.804 108.097 103.876 106.223 104.457 103.751C105.828 97.9934 98.5025 91.1243 93.6995 89.1205C88.8175 87.0773 81.3732 87.5627 76.226 88.1949Z"
    fill="black"
  />
  <path
    d="M75.7493 87.2459C72.8596 87.6015 69.541 88.5949 68.5138 91.3098C68.13 92.3089 68.1188 93.4095 67.8535 94.4424C66.7755 98.5966 62.0967 100.533 59.2126 103.71C56.6672 106.532 55.5441 110.308 54.6975 114.006C52.3225 124.607 51.7501 135.533 53.0043 146.325C53.9299 154.227 55.8263 161.982 56.3568 169.907C56.8873 177.831 55.9166 186.168 51.5877 192.828C49.7252 195.69 47.2644 198.207 45.9438 201.356C48.6698 203.569 52.4343 203.885 55.9504 204.004C60.0404 204.143 64.1322 204.143 68.226 204.004C70.3707 203.93 72.6113 203.789 74.4625 202.705C75.8333 201.829 76.9595 200.619 77.736 199.189C80.0782 195.238 80.6652 190.44 80.558 185.835C80.4507 181.229 79.7283 176.646 79.6437 172.034C79.5985 169.523 79.796 166.853 81.2409 164.798C82.285 163.314 83.8709 162.315 85.2255 161.113C90.305 156.597 92.0659 149.361 92.2353 142.56C92.4046 135.759 91.2814 128.946 91.8571 122.167C92.0828 119.514 93.0762 116.325 95.6837 115.812C96.5077 115.648 97.3769 115.812 98.167 115.496C100.261 114.688 100.058 111.736 100.656 109.575C101.328 107.148 103.399 105.274 103.98 102.802C105.352 97.0444 98.0259 90.1753 93.2229 88.1716C88.341 86.1227 80.8966 86.6081 75.7493 87.2459Z"
    fill="#4F4135"
  />
  <defs>
    <linearGradient
      id="paint0_linear"
      x1="275.02"
      y1="393.059"
      x2="275.02"
      y2="19.1143"
      gradientUnits="userSpaceOnUse"
    >
      <stop stop-color="#808080" stop-opacity="0.25" />
      <stop offset="0.54" stop-color="#808080" stop-opacity="0.12" />
      <stop offset="1" stop-color="#808080" stop-opacity="0.1" />
    </linearGradient>
    <linearGradient
      id="paint1_linear"
      x1="159472"
      y1="278741"
      x2="159472"
      y2="67420.3"
      gradientUnits="userSpaceOnUse"
    >
      <stop stop-color="#808080" stop-opacity="0.25" />
      <stop offset="0.54" stop-color="#808080" stop-opacity="0.12" />
      <stop offset="1" stop-color="#808080" stop-opacity="0.1" />
    </linearGradient>
  </defs>
</svg>
