<svg
  width="648"
  height="510"
  viewBox="0 0 648 510"
  fill="none"
  xmlns="http://www.w3.org/2000/svg"
>
  <title>couple jumping for joy</title>
  <path
    opacity="0.1"
    d="M583.086 304.075C556.6 335.492 556.414 381.831 563.018 419.035C565.226 431.491 567.887 444.673 563.639 457.951C558.444 474.186 544.182 485.932 530.313 492.096C505.032 503.3 477.728 500.228 459.216 484.082C443.231 470.137 434.015 447.654 417.603 434.33C390.165 412.03 348.699 419.818 311.913 434.503C285.901 444.864 257.053 458.467 235.087 446.988C219.632 438.925 211.397 419.664 208.674 399.319C207.359 389.497 207.026 378.876 202.563 371.051C199.907 366.4 195.953 363.072 191.792 360.252C153.812 334.536 97.7294 347.376 61.4639 318.92C36.9683 299.706 25.4993 263.877 24.2386 226.651C22.9779 189.424 30.8702 150.503 39.7144 112.287C46.0065 85.1178 53.7496 56.1518 72.019 35.3526C91.3464 13.3533 119.176 5.40667 142.236 9.94895C165.297 14.4912 184.204 29.7513 200.029 47.685C219.808 70.0976 236.897 97.9163 264.437 107.233C283.195 113.58 304.669 110.491 325.372 109.589C359.938 108.074 393.412 112.787 426.605 117.909C458.383 122.811 490.312 128.16 519.086 141.206C539.444 150.444 554.143 166.945 572.847 178.578C585.039 186.161 599.418 188.389 610.528 197.992C624.212 209.822 635.05 230.236 626.773 253.875C618.887 276.361 597.14 287.403 583.086 304.075Z"
    fill="#4DCAB1"
  />
  <path
    d="M375.157 373.794C373.331 382.925 370.623 390.023 365.61 394.205C360.597 398.388 353.557 409.603 353.557 409.603C353.435 424.522 349.496 429.055 349.496 429.055L345.435 430.13H335.408C335.408 430.13 333.618 425.116 333.26 422.137C333.138 421.141 333.847 419.473 334.835 417.682C338.419 411.119 340.648 403.903 341.388 396.461L341.854 392.057C341.009 364.72 351.881 355.846 356.443 353.318C357.073 352.967 357.609 352.468 358.004 351.864C358.399 351.26 358.643 350.57 358.713 349.852V349.852L359.522 342.038L386.494 343.363C386.494 343.363 385.921 345.741 386.945 351.241C387.153 352.38 387.432 353.648 387.805 355.058C389.953 363.287 375.271 373.192 375.157 373.794Z"
    fill="#EFB7B9"
  />
  <path
    d="M420.895 354.915C419.97 358.914 418.693 362.823 417.078 366.596C415.673 369.97 414.896 373.571 414.786 377.224C414.786 377.346 414.786 377.468 414.786 377.59C414.438 388.416 412.191 399.096 408.147 409.145C404.187 419.057 398.937 431.956 397.361 434.67C394.74 439.203 396.287 446.845 396.287 446.845L381.104 445.771L381.369 420.224C379.786 401.983 385.616 385.131 388.774 377.518C390.05 374.473 390.778 371.226 390.923 367.928L391.639 350.983L391.861 345.97C391.861 345.97 418.704 342.152 420.967 348.24C421.59 349.851 421.44 352.251 420.895 354.915Z"
    fill="#EFB7B9"
  />
  <path
    opacity="0.1"
    d="M386.948 351.241L358.688 349.852L359.497 342.038L386.497 343.363C386.497 343.363 385.903 345.734 386.948 351.241Z"
    fill="black"
  />
  <path
    opacity="0.1"
    d="M420.889 354.915L391.625 350.984L391.716 349.162L421.216 353.112L420.889 354.915Z"
    fill="black"
  />
  <path
    d="M436.271 302.648L424.576 353.977L389.962 349.322V331.653L386.969 349.809L345.43 347.775L347.578 308.026C349.804 300.094 351.361 291.99 352.233 283.798C353.043 274.817 357.297 252.665 359.352 242.258C360.069 238.828 360.47 236.665 360.47 236.665C360.47 236.665 431.616 251.462 436.271 256.833C437.066 257.75 437.589 259.698 437.911 262.283C439.473 274.831 436.271 302.648 436.271 302.648Z"
    fill="#444053"
  />
  <path
    opacity="0.1"
    d="M353.191 305.992C353.191 305.992 381.194 291.311 388.02 294.412L353.191 305.992Z"
    fill="black"
  />
  <path
    opacity="0.1"
    d="M368.465 258.007C368.465 258.007 391.741 275.675 392.457 280.445L368.465 258.007Z"
    fill="black"
  />
  <path
    opacity="0.1"
    d="M362.145 318.885C362.145 318.885 378.975 318.168 384.346 322.466L362.145 318.885Z"
    fill="black"
  />
  <path
    opacity="0.1"
    d="M392.46 299.99C392.46 299.99 400.46 326.174 396.993 333.336C393.527 340.498 389.953 331.66 389.953 331.66L392.46 299.99Z"
    fill="black"
  />
  <path
    d="M381.221 436.468C381.221 436.468 373.343 437.664 374.776 456.757C376.208 475.851 378.357 479.203 381.221 479.439C384.086 479.676 398.052 483.142 397.336 476.095C396.619 469.047 395.903 453.42 396.856 451.028C397.808 448.636 399.456 442.341 395.846 440.786L395.065 444.468C395.065 444.468 387.424 437.42 382.89 442.555C382.695 441.304 382.381 440.073 381.952 438.881C381.501 437.764 380.512 437.184 381.221 436.468Z"
    fill="#494457"
  />
  <path
    d="M525.401 202.146C525.401 202.146 523.596 203.155 520.946 204.416C516.857 206.364 510.762 208.928 506.25 209.307C498.816 209.938 496.488 210.654 487.987 204.566C481.463 199.897 470.541 193.386 465.785 190.608L463.716 189.383L463.508 189.261V189.175L467.454 178.332L481.42 170.905L484.886 173.877L495.206 182.722C495.206 182.722 496.818 185.315 499.418 185.136C502.017 184.957 515.89 186.117 515.89 186.117L518.511 186.547L524.033 187.464L525.401 202.146Z"
    fill="#EFB7B9"
  />
  <path
    opacity="0.1"
    d="M525.403 202.145C525.403 202.145 523.599 203.154 520.949 204.415C518.148 202.982 514.668 200.297 516.007 195.878C517.217 191.903 517.547 188.802 518.542 186.567L524.064 187.484L525.403 202.145Z"
    fill="black"
  />
  <path
    d="M523.523 182.808C523.523 182.808 539.1 178.331 537.94 197.131C536.78 215.931 524.776 205.64 524.776 205.64C524.776 205.64 514.57 202.954 516.719 195.878C518.868 188.802 518.245 184.512 523.523 182.808Z"
    fill="#EFB7B9"
  />
  <path
    d="M355.372 118.03L345.54 128.856C341.343 126.765 325.73 119.016 316.656 114.769C305.913 109.756 307.582 104.742 307.582 104.742L306.035 52.2241L303.284 42.7918C303.284 42.7918 301.344 10.8211 316.892 2.80691C332.441 -5.20726 322.385 49.1158 322.385 49.1158L323.588 60.403C324.366 67.6235 325.792 74.7594 327.85 81.7239C328.522 84.0136 328.945 86.3693 329.11 88.7498C329.59 96.3844 333.171 95.8759 333.171 95.8759C338.827 96.764 344.288 98.6198 349.314 101.362C351.181 102.347 352.967 103.478 354.657 104.742L355.372 118.03Z"
    fill="#EFB7B9"
  />
  <path
    d="M419.794 146.998L401.992 145.566C401.992 145.566 406.074 139.493 407.872 133.584C408.126 132.774 408.33 131.949 408.481 131.113C408.896 128.771 408.789 126.601 407.722 125.033C403.668 119.067 435.787 110.709 435.787 110.709C435.444 114.011 435.342 117.333 435.479 120.65C435.559 122.958 435.799 125.257 436.195 127.532C437.047 132.166 438.745 136.528 441.982 138.762C450.827 144.85 419.794 146.998 419.794 146.998Z"
    fill="#EFB7B9"
  />
  <path
    opacity="0.1"
    d="M419.794 146.997L401.992 138.98C401.992 138.98 406.913 134.474 408.711 128.565C413.32 136.254 413.972 135.803 416.213 136.254C416.213 136.254 430.193 138.324 436.209 127.531C437.062 132.165 438.759 136.527 441.996 138.761C450.827 144.849 419.794 146.997 419.794 146.997Z"
    fill="black"
  />
  <path
    opacity="0.1"
    d="M465.809 190.608C465.793 191.033 465.812 191.46 465.867 191.882L463.718 189.383L463.539 189.175L467.485 178.332L481.451 170.905L484.917 173.877C479.954 175.775 466.031 181.799 465.809 190.608Z"
    fill="black"
  />
  <path
    opacity="0.1"
    d="M362.025 121.931L345.796 128.749H345.367L344.113 128.835C344.113 128.835 344.206 128.628 344.357 128.241C345.71 124.954 351.991 108.904 349.277 101.341C351.144 102.326 352.93 103.457 354.62 104.721L362.025 121.931Z"
    fill="black"
  />
  <path
    opacity="0.1"
    d="M437.907 262.261C431.59 261.695 368.393 255.851 362.499 246.548C361.567 245.032 360.513 243.595 359.348 242.251C360.064 238.82 360.465 236.657 360.465 236.657C360.465 236.657 431.611 251.454 436.267 256.825C437.062 257.728 437.584 259.668 437.907 262.261Z"
    fill="black"
  />
  <path
    d="M416.213 136.972C416.213 136.972 430.344 139.063 436.317 128.084C436.317 128.084 446.293 136.277 452.259 136.979C458.225 137.681 485.92 172.545 485.92 172.545C485.92 172.545 463.718 179.707 465.151 191.166L454.644 178.991C454.644 178.991 449.395 178.747 444.861 193.315C444.861 193.315 439.368 201.665 440.084 228.165C440.8 254.664 438.415 260.873 438.415 260.873C438.415 260.873 368.701 254.907 362.499 245.117C356.297 235.326 355.337 240.103 355.337 240.103C355.337 240.103 354.378 221.482 360.823 206.442C367.269 191.402 365.837 148.195 365.837 148.195C365.837 148.195 365.837 143.75 361.474 138.691C358.555 135.305 353.682 131.645 345.547 128.858C345.547 128.858 354.378 108.324 350.324 100.446C350.324 100.446 362.406 103.726 371.015 103.827C376.298 103.868 381.506 105.091 386.255 107.408C388.841 108.675 391.226 110.272 392.579 112.177C396.633 117.907 403.322 115.286 403.322 115.286C405.008 120.529 407.091 125.636 409.553 130.562C409.832 131.085 410.111 131.601 410.398 132.095C410.813 132.811 411.243 133.527 411.673 134.114C413.392 136.571 413.879 136.506 416.213 136.972Z"
    fill="#1898E2"
  />
  <path
    d="M394.551 161.053C392.586 160.581 390.61 161.793 390.139 163.758C389.667 165.724 390.879 167.7 392.844 168.171C394.81 168.643 396.786 167.431 397.257 165.465C397.718 163.497 396.506 161.522 394.551 161.053Z"
    fill="#EAECF0"
  />
  <path
    d="M399.576 162.592C400.474 162.807 401.376 162.254 401.592 161.356C401.807 160.459 401.254 159.556 400.356 159.341C399.458 159.126 398.556 159.679 398.341 160.577C398.125 161.475 398.679 162.377 399.576 162.592Z"
    fill="#EAECF0"
  />
  <path
    d="M401.574 163.072L401.546 162.908L401.409 163.01C401.072 163.244 400.676 163.396 400.271 163.445L400.155 163.462L400.172 163.579C400.315 164.433 400.276 165.3 400.075 166.139C399.231 169.656 395.685 171.839 392.158 170.994C388.631 170.148 386.471 166.596 387.314 163.08C388.158 159.563 391.704 157.38 395.231 158.225C396.187 158.455 397.05 158.886 397.814 159.496L397.899 159.562L397.967 159.466C398.216 159.132 398.536 158.872 398.916 158.693L399.069 158.618L398.938 158.508C397.96 157.666 396.831 157.081 395.567 156.778C391.264 155.746 386.917 158.411 385.885 162.714C384.853 167.017 387.519 171.364 391.822 172.396C396.125 173.428 400.471 170.763 401.503 166.46C401.768 165.355 401.794 164.215 401.574 163.072Z"
    fill="#EAECF0"
  />
  <path
    d="M407.987 164.443L406.34 164.048L404.709 170.848L406.356 171.242L407.987 164.443Z"
    fill="#EAECF0"
  />
  <path
    d="M425.768 168.704L424.121 168.31L422.491 175.109L424.137 175.504L425.768 168.704Z"
    fill="#EAECF0"
  />
  <path
    d="M420.35 167.237C419.192 166.959 418.132 167.447 417.884 167.589L417.953 166.831L416.583 166.502L414.952 173.302L416.599 173.697L417.585 169.585C417.779 168.778 419.031 168.381 419.838 168.575C420.625 168.763 421.057 169.676 420.838 170.59L419.903 174.489L421.55 174.884L422.447 171.144C422.864 169.357 422.433 167.736 420.35 167.237Z"
    fill="#EAECF0"
  />
  <path
    d="M428.743 175.305C427.5 175.007 426.913 173.844 427.201 172.644C427.489 171.443 428.539 170.673 429.782 170.971C430.834 171.223 431.237 172.398 431.237 172.398L432.619 171.887C432.406 171.274 432.079 170.858 431.616 170.399C431.271 170.058 430.777 169.726 430.172 169.581C428.11 169.087 426.166 170.261 425.674 172.266C425.203 174.277 426.403 176.205 428.465 176.699C429.07 176.845 429.66 176.773 430.123 176.625C430.744 176.426 431.224 176.204 431.691 175.754L430.692 174.672C430.69 174.683 429.805 175.56 428.743 175.305Z"
    fill="#EAECF0"
  />
  <path
    d="M412.317 165.312C410.245 164.815 408.368 166.084 407.912 167.985C407.448 169.919 408.496 171.923 410.642 172.438C412.586 172.904 414.526 171.796 415.02 169.735C415.586 167.376 414.028 165.722 412.317 165.312ZM412.002 166.719C413.022 166.964 413.79 168.024 413.469 169.363C413.156 170.67 411.985 171.288 410.954 171.041C409.828 170.771 409.155 169.643 409.455 168.389C409.754 167.146 410.855 166.444 412.002 166.719Z"
    fill="#EAECF0"
  />
  <path
    opacity="0.1"
    d="M425.265 128.835C429.994 126.876 434.036 123.559 436.879 119.303L389.98 109.975C390.979 114.995 393.444 119.606 397.063 123.225C400.682 126.844 405.293 129.309 410.313 130.307C415.333 131.306 420.537 130.793 425.265 128.835Z"
    fill="black"
  />
  <path
    d="M440.407 104.904C440.407 109.861 438.937 114.708 436.182 118.83C433.428 122.952 429.513 126.165 424.933 128.062C420.352 129.96 415.312 130.456 410.45 129.489C405.587 128.522 401.121 126.134 397.615 122.629C394.11 119.123 391.722 114.656 390.755 109.794C389.788 104.932 390.284 99.8915 392.182 95.3112C394.079 90.7308 397.292 86.8159 401.414 84.0616C405.536 81.3072 410.382 79.8371 415.34 79.8371C418.635 79.8248 421.9 80.4647 424.947 81.7201C427.994 82.9755 430.762 84.8214 433.092 87.1515C435.422 89.4816 437.268 92.2498 438.524 95.2966C439.779 98.3434 440.419 101.609 440.407 104.904V104.904Z"
    fill="#EFB7B9"
  />
  <path
    opacity="0.1"
    d="M392.098 179.527C392.098 179.527 411.793 206.564 423.252 209.307C434.711 212.05 396.395 188.294 392.098 179.527Z"
    fill="black"
  />
  <path
    opacity="0.1"
    d="M412.992 182.342C412.992 182.342 423.971 194.746 431.849 196.293L412.992 182.342Z"
    fill="black"
  />
  <path
    opacity="0.1"
    d="M374.32 213.604C374.32 213.604 394.374 233.299 405.833 234.495L374.32 213.604Z"
    fill="black"
  />
  <path
    opacity="0.1"
    d="M440.087 105.458C440.091 112.011 437.519 118.303 432.925 122.976L430.175 121.265C429.111 120.711 428.194 119.913 427.497 118.937C426.587 117.419 426.852 115.514 426.924 113.745C427.074 109.999 426.043 105.945 423.114 103.603C418.365 99.8005 410.752 101.906 405.925 98.1748C404.763 97.1877 403.739 96.0482 402.881 94.7872L398.355 88.7211C398.083 88.363 397.753 88.0049 397.402 87.5823C400.926 84.1169 405.396 81.7707 410.25 80.8385C415.104 79.9064 420.125 80.4299 424.682 82.3434C429.239 84.2568 433.129 87.4748 435.862 91.5927C438.596 95.7105 440.051 100.545 440.044 105.487L440.087 105.458Z"
    fill="black"
  />
  <path
    d="M399.915 73.3593C402.156 71.6476 404.892 70.7452 407.413 69.4847C409.934 68.2242 412.162 66.6199 414.683 65.5457C417.203 64.4714 420.118 63.8411 422.732 64.7364C428.34 66.6629 430.46 74.498 436.226 75.8731C437.2 76.1023 438.202 76.1238 439.183 76.2742C441.056 76.6292 442.832 77.3778 444.394 78.4705C445.956 79.5631 447.268 80.9749 448.243 82.6125C450.168 85.9169 451.158 89.6821 451.108 93.5057C451.188 95.6278 450.879 97.7467 450.198 99.7581C448.494 104.435 444.218 107.636 441.332 111.683C438.6 115.555 437.15 120.186 437.185 124.925L430.195 120.578C429.13 120.026 428.211 119.228 427.517 118.25C426.607 116.732 426.872 114.827 426.944 113.058C427.094 109.312 426.063 105.258 423.141 102.916C418.385 99.1135 410.772 101.219 405.952 97.4878C404.79 96.5007 403.766 95.3612 402.908 94.1002L398.382 88.034C397.401 86.7163 395.517 85.0762 395.088 83.4719C394.135 80.0199 397.394 75.3002 399.915 73.3593Z"
    fill="#A3876E"
  />
  <path
    opacity="0.1"
    d="M430.977 119.768C429.912 119.217 428.994 118.419 428.299 117.441C427.389 115.922 427.654 114.017 427.726 112.248C427.876 108.502 426.845 104.449 423.916 102.107C419.167 98.3039 411.554 100.41 406.727 96.6782C405.565 95.6911 404.541 94.5516 403.683 93.2906L399.157 87.2245C398.169 85.9067 396.292 84.2666 395.862 82.6623C395.082 79.8978 397.059 76.2954 399.171 73.9893C396.801 76.1808 394.201 80.3419 395.082 83.443C395.54 85.0472 397.395 86.6873 398.376 88.0051L402.903 94.0712C403.76 95.3323 404.784 96.4717 405.946 97.4588C410.752 101.19 418.365 99.0846 423.135 102.888C426.057 105.229 427.088 109.283 426.938 113.029C426.866 114.798 426.601 116.703 427.511 118.221C428.206 119.199 429.124 119.997 430.19 120.549L437.18 124.896C437.18 124.481 437.18 124.065 437.222 123.657L430.977 119.768Z"
    fill="black"
  />
  <path
    d="M334.386 418.521C334.386 418.521 327.41 419.953 328.842 439.082C330.275 458.212 332.423 461.528 335.288 461.764C338.153 462 352.118 465.467 351.402 458.42C350.686 451.372 349.97 435.745 350.922 433.353C351.875 430.961 355.656 424.536 352.047 422.982L349.132 426.793C349.132 426.793 341.49 419.745 336.957 424.88C336.957 424.88 332.717 420.189 334.386 418.521Z"
    fill="#494457"
  />
  <path
    opacity="0.1"
    d="M338.797 430.38C340.308 431.096 341.719 431.97 343.223 432.686C344.704 433.462 346.357 433.851 348.029 433.818C348.738 433.804 349.425 433.566 349.991 433.137"
    fill="black"
  />
  <path
    opacity="0.1"
    d="M384.703 449.087C385.598 449.911 386.293 450.963 387.303 451.644C388.735 452.603 390.569 452.661 392.316 452.682C392.607 452.709 392.9 452.672 393.176 452.575C393.488 452.405 393.752 452.159 393.942 451.859L394.88 450.648"
    fill="black"
  />
  <path
    opacity="0.1"
    d="M222.535 427.873C221.851 428.426 221.055 428.824 220.201 429.039C219.348 429.254 218.459 429.281 217.594 429.119"
    fill="black"
  />
  <path
    d="M158.246 324.631C158.246 324.631 152.743 315.941 144.478 323.849C136.212 331.757 130.323 358.058 130.323 358.058C130.323 358.058 127.175 379.3 137.796 373.787C137.796 373.787 150.348 356.089 153.921 355.306C157.493 354.524 161.394 344.685 161.394 344.685L158.246 324.631Z"
    fill="#4F4135"
  />
  <path
    d="M217.229 345.864C217.229 345.864 209.756 342.321 207.4 345.082C205.044 347.844 197.175 375.362 197.175 375.362C197.175 375.362 194.819 393.456 202.678 392.664C210.538 391.872 224.306 363.543 224.306 363.543L217.229 345.864Z"
    fill="#4F4135"
  />
  <path
    opacity="0.05"
    d="M217.229 345.864C217.229 345.864 209.756 342.321 207.4 345.082C205.044 347.844 197.175 375.362 197.175 375.362C197.175 375.362 194.819 393.456 202.678 392.664C210.538 391.872 224.306 363.543 224.306 363.543L217.229 345.864Z"
    fill="black"
  />
  <path
    d="M243.745 292.383L260.651 318.732C260.651 318.732 259.473 324.632 249.248 323.454L214.247 345.478C214.247 345.478 211.206 372.291 220.929 369.858C222.503 369.462 233.481 358.059 241.379 358.851L287.793 340.757C287.793 340.757 298.8 334.461 292.901 313.625C287.001 292.788 267.497 244.472 267.497 244.472L263.086 224.706L236.088 253.021L243.745 292.383Z"
    fill="#39386C"
  />
  <path
    d="M253.802 331.313C256.158 346.26 242.795 347.438 242.795 347.438C242.795 347.438 182.622 348.616 175.545 347.042C168.467 345.468 159.024 349.794 159.024 349.794C146.829 342.32 156.668 323.84 156.668 323.84C156.668 323.84 181.84 323.058 187.739 321.909C193.639 320.76 223.523 319.128 223.523 319.128C223.523 319.128 221.167 304.577 205.428 267.616C194.74 242.512 202.532 227.739 208.682 220.855C210.252 219.028 212.068 217.429 214.08 216.104L262.453 218.46C262.401 220.9 262.492 223.341 262.724 225.77C248.694 237.217 248.694 266.429 248.694 266.429C248.694 266.429 251.436 316.376 253.802 331.313Z"
    fill="#3E3D77"
  />
  <path
    opacity="0.1"
    d="M160.206 325.415C160.206 325.415 185.377 324.633 191.277 323.484C197.176 322.335 227.06 320.732 227.06 320.732C227.06 320.732 224.704 306.181 208.966 269.22C198.277 244.116 206.069 229.343 212.22 222.459C213.789 220.632 215.606 219.033 217.617 217.709L262.438 219.891C262.438 219.427 262.438 218.925 262.438 218.491L214.064 216.135C212.053 217.46 210.236 219.058 208.666 220.885C202.545 227.779 194.724 242.542 205.412 267.647C221.189 304.579 223.526 319.129 223.526 319.129C223.526 319.129 193.594 320.703 187.743 321.881C181.892 323.059 156.672 323.812 156.672 323.812C156.672 323.812 146.843 342.302 159.028 349.805C159.028 349.805 159.395 349.631 159.993 349.38C151.892 341.047 160.206 325.415 160.206 325.415Z"
    fill="black"
  />
  <path d="M232.161 71.7656H207.781V133.503H232.161V71.7656Z" fill="#4F4135" />
  <path
    opacity="0.1"
    d="M232.161 71.7656H207.781V133.503H232.161V71.7656Z"
    fill="black"
  />
  <path
    d="M246.108 62.709C246.948 62.9407 247.894 62.9697 248.464 64.1284C248.818 65.0544 249.011 66.034 249.034 67.025L250.569 86.1042C250.591 87.3533 250.833 88.5888 251.283 89.7539C251.93 91.0478 253.002 91.2022 253.842 92.0326C255.532 93.7126 256.024 97.9224 255.561 101.35C255.097 104.778 253.929 107.713 253.012 110.812C251.699 115.254 250.83 120.246 248.985 123.992C247.141 127.738 243.791 129.785 241.628 126.638C239.465 123.49 239.755 117.137 239.349 111.932C238.674 103.243 235.284 95.75 235.053 87.0021C234.86 79.9247 236.762 73.3204 237.949 66.6098C238.799 62.0042 238.847 56.4137 240.083 52.2715C241.116 57.1958 243.086 61.8786 246.108 62.709Z"
    fill="#4F4135"
  />
  <path
    opacity="0.1"
    d="M246.108 62.709C246.948 62.9407 247.894 62.9697 248.464 64.1284C248.818 65.0544 249.011 66.034 249.034 67.025L250.569 86.1042C250.591 87.3533 250.833 88.5888 251.283 89.7539C251.93 91.0478 253.002 91.2022 253.842 92.0326C255.532 93.7126 256.024 97.9224 255.561 101.35C255.097 104.778 253.929 107.713 253.012 110.812C251.699 115.254 250.83 120.246 248.985 123.992C247.141 127.738 243.791 129.785 241.628 126.638C239.465 123.49 239.755 117.137 239.349 111.932C238.674 103.243 235.284 95.75 235.053 87.0021C234.86 79.9247 236.762 73.3204 237.949 66.6098C238.799 62.0042 238.847 56.4137 240.083 52.2715C241.116 57.1958 243.086 61.8786 246.108 62.709Z"
    fill="black"
  />
  <path
    d="M142.902 35.5866L133.468 43.4558C133.468 43.4558 132.348 42.1427 130.678 40.0185C124.122 31.6472 109.05 10.6466 119.7 6.89066C130.35 3.13469 138.769 23.6139 141.743 32.0721C142.496 34.2156 142.902 35.5866 142.902 35.5866Z"
    fill="#FFB8B8"
  />
  <path
    d="M311.109 33.7225C304.683 36.7148 303.053 28.813 303.053 28.813C303.053 28.813 302.999 27.5475 303.034 25.5788C303.122 19.2206 304.021 5.55548 310.11 3.63545C317.092 1.45666 317.549 23.6941 313.284 31.396C312.818 32.3787 312.058 33.1919 311.109 33.7225V33.7225Z"
    fill="#FFB8B8"
  />
  <path
    d="M216.438 96.5412C216.438 96.5412 224.307 121.713 221.941 129.177C219.576 136.64 238.857 145.33 238.857 145.33H260.881C260.881 145.33 268.751 129.206 266.781 124.484C264.811 119.762 247.905 116.229 247.905 116.229C247.905 116.229 238.075 116.229 238.471 89.8789L216.438 96.5412Z"
    fill="#FFB8B8"
  />
  <path
    opacity="0.1"
    d="M142.9 35.5868L133.466 43.456C133.466 43.456 132.346 42.1429 130.676 40.0187C134.103 39.4104 139.424 34.4089 141.751 32.0723C142.494 34.2158 142.9 35.5868 142.9 35.5868Z"
    fill="black"
  />
  <path
    opacity="0.1"
    d="M313.184 32.8362C309.254 38.7356 303.75 32.8362 303.75 32.8362C303.75 32.8362 303.045 31.7837 302.051 30.0844L302.176 29.6885C304.725 31.5134 312.652 29.9588 313.83 29.6885C313.95 30.7796 313.724 31.8807 313.184 32.8362V32.8362Z"
    fill="black"
  />
  <path
    opacity="0.1"
    d="M262.707 225.761C250.541 231.313 211.012 221.425 208.637 220.836C210.206 219.01 212.023 217.411 214.034 216.086L262.408 218.442C262.365 220.885 262.465 223.329 262.707 225.761V225.761Z"
    fill="black"
  />
  <path
    d="M221.552 118.17C221.552 118.17 212.119 121.317 198.746 109.122C198.746 109.122 168.814 79.625 166.883 72.5476L143.71 31.9947C143.71 31.9947 133.881 42.6157 129.941 41.0419L155.895 86.268C155.895 86.268 160.617 94.9579 164.942 97.2752C164.942 97.2752 197.192 138.572 197.578 146.827C197.964 155.082 212.109 177.193 212.109 177.193C212.109 177.193 216.831 212.976 208.566 219.272C208.566 219.272 254.574 231.071 264.403 223.201C264.403 223.201 260.077 178.786 264.403 174.046C264.403 174.046 277.776 158.317 268.729 141.014C268.729 141.014 266.798 131.581 271.876 126.859C276.955 122.138 299.8 87.137 299.8 87.137C299.8 87.137 305.304 79.2678 305.304 74.1601C305.304 74.1601 315.529 39.555 313.993 30.5078C313.993 30.5078 304.946 32.4389 302.195 30.5078C302.195 30.5078 288.822 71.0607 287.248 72.5862C285.674 74.1118 274.696 106.013 260.116 109.557C245.536 113.1 243.209 114.665 243.209 114.665C243.209 114.665 271.519 132.363 257.76 140.223C244.001 148.082 221.552 118.17 221.552 118.17Z"
    fill="#FFAAC4"
  />
  <path
    opacity="0.1"
    d="M239.426 102.595C238.959 98.8907 238.768 95.1566 238.856 91.4238L216.832 98.1054C217.412 99.5726 217.873 101.084 218.213 102.624C220.733 103.734 224.132 106.361 227.057 106.361C231.483 106.505 235.832 105.181 239.426 102.595V102.595Z"
    fill="black"
  />
  <path
    d="M226.665 105.193C237.959 105.193 247.115 96.0375 247.115 84.7432C247.115 73.4488 237.959 64.293 226.665 64.293C215.371 64.293 206.215 73.4488 206.215 84.7432C206.215 96.0375 215.371 105.193 226.665 105.193Z"
    fill="#FFB8B8"
  />
  <path
    opacity="0.1"
    d="M202.327 53.2364C197.827 53.584 192.807 56.693 193.058 61.2021C193.193 63.6836 194.892 65.7788 195.636 68.1541C197.422 73.899 193.444 79.6633 189.949 84.5683C186.453 89.4733 183.19 95.9714 186.183 101.166C187.036 102.417 187.958 103.619 188.944 104.767C192.642 109.759 192.594 116.499 194.236 122.495C196.332 130.166 201.287 136.742 208.082 140.873C214.878 145.003 222.997 146.374 230.772 144.702C227.845 140.966 226.386 136.289 226.668 131.552C226.89 128.114 228.001 124.523 226.668 121.346C224.95 117.262 219.909 115.649 217.312 112.077C214.715 108.504 214.889 103.551 216.144 99.2929C217.399 95.0348 219.571 91.0857 220.614 86.7408C220.872 85.4731 221.194 84.2195 221.58 82.9848C223.395 77.8288 228.821 74.8356 234.132 73.5514C239.442 72.2673 245.023 72.19 250.208 70.5003C255.393 68.8106 260.433 64.8519 261.032 59.4159C256.668 61.1635 252.622 56.6061 248.412 54.5109C241.48 51.0736 233.572 54.3081 226.427 55.0999C218.287 56.0075 210.563 52.6377 202.327 53.2364Z"
    fill="black"
  />
  <path
    d="M201.936 52.4542C197.437 52.8018 192.416 55.9108 192.667 60.4199C192.802 62.9013 194.502 64.9966 195.245 67.3718C197.031 73.1168 193.053 78.8811 189.558 83.7861C186.063 88.6911 182.799 95.1892 185.792 100.384C186.646 101.634 187.567 102.837 188.554 103.985C192.252 108.977 192.204 115.717 193.845 121.713C195.941 129.384 200.896 135.96 207.692 140.091C214.487 144.221 222.607 145.591 230.381 143.92C227.454 140.184 225.995 135.507 226.278 130.769C226.5 127.332 227.61 123.74 226.278 120.564C224.559 116.479 219.519 114.867 216.922 111.294C214.324 107.722 214.498 102.769 215.753 98.5106C217.008 94.2526 219.181 90.3035 220.224 85.9586C220.481 84.6909 220.803 83.4372 221.189 82.2026C223.004 77.0466 228.431 74.0534 233.741 72.7692C239.052 71.485 244.633 71.4078 249.818 69.7181C255.003 68.0284 260.043 64.0697 260.641 58.6337C256.277 60.3813 252.231 55.8239 248.022 53.7287C241.089 50.2913 233.181 53.5259 226.036 54.3177C217.916 55.2156 210.221 51.8072 201.936 52.4542Z"
    fill="#4F4135"
  />
  <path
    opacity="0.1"
    d="M242.973 130.171C242.973 130.171 251.16 137.48 252.773 140.705Z"
    fill="black"
  />
  <path
    opacity="0.1"
    d="M264.634 173.823C264.634 173.823 254.409 173.823 249.687 175.001C244.966 176.179 233.562 175.001 233.562 175.001"
    fill="black"
  />
  <g opacity="0.1">
    <path
      opacity="0.1"
      d="M257.73 140.194C256.849 140.698 255.895 141.063 254.901 141.275C257.466 141.844 260.15 141.459 262.452 140.194C276.221 132.325 247.901 114.636 247.901 114.636H243.18C243.18 114.636 271.499 132.334 257.73 140.194Z"
      fill="black"
    />
    <path
      opacity="0.1"
      d="M314.062 31.193C314.062 30.942 314.004 30.7006 313.966 30.4785C312.348 30.8137 310.714 31.0619 309.07 31.222C310.73 31.4045 312.405 31.3948 314.062 31.193V31.193Z"
      fill="black"
    />
    <path
      opacity="0.1"
      d="M213.299 219.243C221.554 212.947 216.842 177.164 216.842 177.164C216.842 177.164 202.687 155.14 202.291 146.885C201.896 138.629 169.656 97.3329 169.656 97.3329C165.33 94.977 160.609 86.3257 160.609 86.3257C160.609 86.3257 133.863 42.6734 129.934 41.0996L155.887 86.3257C155.887 86.3257 160.609 95.0156 164.935 97.3329C164.935 97.3329 197.184 138.629 197.57 146.885C197.956 155.14 212.111 177.193 212.111 177.193C212.111 177.193 216.833 212.976 208.568 219.271C208.568 219.271 236.848 226.523 253.803 225.866C236.81 225.268 213.299 219.243 213.299 219.243Z"
      fill="black"
    />
    <path
      opacity="0.1"
      d="M221.787 118.478L221.555 118.179C221.286 118.258 221.012 118.32 220.734 118.362C221.101 118.41 221.449 118.449 221.787 118.478Z"
      fill="black"
    />
  </g>
  <g opacity="0.1">
    <path
      opacity="0.1"
      d="M313.962 30.4297L313.72 30.478C313.305 42.5569 304.924 70.9343 304.924 70.9343C304.924 76.042 299.42 83.9112 299.42 83.9112C299.42 83.9112 276.614 118.912 271.497 123.634C266.38 128.355 268.349 137.789 268.349 137.789L268.398 137.885C268.243 134.708 268.629 129.784 271.883 126.772C276.991 122.05 299.807 87.0492 299.807 87.0492C299.807 87.0492 305.31 79.18 305.31 74.0723C305.31 74.1302 315.535 39.5251 313.962 30.4297Z"
      fill="black"
    />
    <path
      opacity="0.1"
      d="M264.027 170.87C264.616 174.211 264.22 170.677 264.423 174.018C264.423 174.018 274.079 162.692 271.443 148.691C272.234 161.205 264.027 170.87 264.027 170.87Z"
      fill="black"
    />
  </g>
</svg>
