<svg
  width="635"
  height="527"
  viewBox="0 0 635 527"
  fill="none"
  xmlns="http://www.w3.org/2000/svg"
>
  <title>lady frustrated at laptop</title>
  <path
    opacity="0.1"
    d="M593.056 235.814C568.667 196.331 573.237 142.542 583.949 100.13C587.532 85.9295 591.662 70.9391 588.598 55.0471C584.85 35.6147 571.185 20.3545 557.356 11.6155C532.145 -4.27649 503.356 -3.83562 482.393 12.7802C464.29 27.1324 452.368 52.1648 433.883 65.747C402.977 88.4828 360.538 74.7031 323.687 53.4546C297.627 38.4575 268.944 19.3739 244.857 30.1792C227.911 37.7666 217.344 59.1731 212.412 82.4682C210.032 93.7143 208.592 106 203.134 114.568C199.885 119.661 195.42 123.07 190.791 125.867C148.542 151.36 91.3789 130.045 50.6356 158.914C23.116 178.406 7.47233 218.666 2.33009 261.715C-2.81214 304.765 1.41606 350.829 6.70954 396.182C10.4774 428.427 15.5737 462.922 32.4865 489.146C50.3791 516.883 78.5825 529.287 103.097 526.655C127.611 524.022 148.897 508.479 167.243 489.481C190.173 465.739 210.854 435.415 240.53 427.756C260.744 422.537 282.819 428.578 304.315 431.994C340.205 437.705 375.596 436.067 410.737 433.922C444.378 431.869 478.224 429.315 509.57 417.47C531.75 409.08 548.775 391.615 569.475 380.257C582.969 372.854 598.192 371.913 610.765 362.042C626.25 349.882 639.652 327.435 633.451 299.06C627.539 272.067 605.997 256.767 593.056 235.814Z"
    fill="#4DCAB1"
  />
  <path
    d="M270.44 109.046H325.106C338.476 109.045 351.716 111.678 364.069 116.794C376.422 121.91 387.646 129.409 397.101 138.863C406.555 148.318 414.055 159.541 419.172 171.894C424.289 184.247 426.922 197.486 426.922 210.857V348.804H168.629V210.857C168.629 183.855 179.355 157.959 198.449 138.866C217.542 119.772 243.438 109.046 270.44 109.046V109.046Z"
    fill="#2F2E41"
  />
  <path
    opacity="0.2"
    d="M276.416 114.594H319.124C332.495 114.593 345.734 117.226 358.087 122.342C370.44 127.458 381.665 134.957 391.119 144.411C400.574 153.865 408.074 165.089 413.19 177.442C418.307 189.794 420.941 203.034 420.941 216.404V343.249H174.605V216.404C174.605 189.403 185.332 163.507 204.425 144.413C223.518 125.32 249.414 114.594 276.416 114.594V114.594Z"
    fill="black"
  />
  <path
    d="M601.208 368.29V378.729C587.489 385.475 572.395 388.954 557.107 388.893H106.845C103.258 388.893 99.7023 388.75 96.1786 388.463C83.6565 387.476 71.3517 384.627 59.6708 380.008C57.3908 379.108 55.1546 378.139 52.9623 377.103C51.918 376.612 50.8836 376.108 49.8592 375.59C49.2194 375.267 48.5797 374.932 47.9459 374.597C44.1007 372.556 40.3756 370.297 36.7891 367.829V339.477C36.7891 334.894 38.6096 330.499 41.8501 327.258C45.0906 324.018 49.4856 322.197 54.0684 322.197H551.062C555.243 322.205 559.279 323.728 562.422 326.484L595.307 355.303C597.159 356.922 598.644 358.918 599.662 361.158C600.68 363.398 601.207 365.829 601.208 368.29V368.29Z"
    fill="#2F2E41"
  />
  <path
    d="M265.589 143.012C252.551 143.873 239.563 145.268 226.624 147.198C222.947 147.748 219.216 148.358 215.862 149.984C213.255 151.349 210.852 153.071 208.723 155.102C199.118 163.706 191.385 174.193 186.003 185.912C182.672 193.176 180.281 200.859 177.142 208.184C165.967 234.342 145.698 255.735 133.902 281.618C131.349 287.22 129.196 293.068 128.341 299.16C127.456 305.462 128.461 312.816 133.638 316.499C136.03 318.191 138.936 318.891 141.782 319.489C177.609 327.423 213.853 333.341 250.343 337.217C246.391 333.402 245.069 327.489 245.59 322.024C246.11 316.559 248.256 311.393 250.373 306.329C229.721 301.773 209.122 296.99 188.574 291.979C185.506 291.232 181.823 289.827 181.447 286.694C181.255 285.098 182.045 283.561 182.822 282.156C191.585 266.287 202.094 251.447 214.152 237.911C214.152 254.688 213.321 273.636 213.321 290.419H407.101C404.77 280.843 403.4 271.059 403.011 261.211C402.108 229.068 412.93 197.17 410.12 165.093C409.857 162.133 409.45 159.084 407.902 156.549C405.229 152.172 399.896 150.36 394.993 148.866C376.195 143.15 357.003 137.368 337.356 137.817C331.514 137.954 325.696 138.636 319.891 139.323C302.199 141.41 283.365 141.834 265.589 143.012Z"
    fill="#4B5E76"
  />
  <path
    d="M174.833 335.841L188.943 381.001C189.033 381.287 189.212 381.537 189.454 381.714C189.696 381.892 189.988 381.987 190.288 381.987H250.838L236.488 329.372L176.064 334.018C175.854 334.035 175.65 334.1 175.468 334.206C175.285 334.313 175.129 334.459 175.011 334.634C174.893 334.809 174.816 335.009 174.785 335.217C174.754 335.426 174.77 335.64 174.833 335.841V335.841Z"
    fill="#656478"
  />
  <path
    d="M278.343 162.432C275.712 163.945 272.645 164.489 269.655 165.009L250.361 168.358C246.606 169.009 242.654 169.751 239.76 172.232C233.841 177.296 235.12 186.618 236.914 194.199L240.502 209.41C243.204 220.841 245.966 232.411 251.509 242.767C261.189 260.841 278.947 273.857 298.474 280.129C305.452 282.372 312.824 283.83 320.106 283.029C334.372 281.463 346.575 271.292 354.097 259.065C361.619 246.838 365.2 232.656 368.482 218.677C371.633 205.296 374.629 191.724 374.426 177.972C374.366 173.691 373.935 169.219 371.651 165.589C366.647 157.619 355.305 157.021 346.007 158.492C344.56 158.725 343.06 158.977 341.667 158.54C337.481 157.237 337.386 151.491 335.592 147.503C332.202 139.981 322.145 138.648 313.924 139.33C305.703 140.011 292.902 140.89 285.739 145.548C278.851 150.002 286.42 157.775 278.343 162.432Z"
    fill="#CB9A9A"
  />
  <path
    d="M262.372 179.568C265.29 185.69 267.478 192.183 271.006 197.977C273.81 202.581 277.404 206.641 280.979 210.676C290.24 221.152 299.622 231.711 311.083 239.687C315.83 215.302 327.296 192.73 344.189 174.515C349.128 169.212 355.31 163.986 362.557 164.184C367.053 164.309 371.202 166.539 374.945 169.021C379.131 171.789 383.089 175 386.096 178.988C390.849 185.337 392.9 193.379 393.271 201.301C393.642 209.223 392.41 217.128 391.19 224.96L384.912 265.444C384.547 267.788 384.039 270.377 382.126 271.782C381.039 272.47 379.815 272.911 378.539 273.073C355.717 277.516 332.195 274.634 308.943 274.407C283.233 274.162 256.812 277.091 232.459 268.912C231.186 268.482 229.864 267.985 229.003 266.963C228.438 266.192 228.031 265.316 227.808 264.386C222.134 246.018 226.684 226.282 230.05 207.358C232.715 192.362 234.613 177.239 235.736 162.049C235.837 160.68 250.881 163.705 252.561 164.674C257.135 167.382 260.172 174.952 262.372 179.568Z"
    fill="#4B5E76"
  />
  <path
    d="M301.661 169.135C329.399 169.135 351.885 146.649 351.885 118.911C351.885 91.1734 329.399 68.6875 301.661 68.6875C273.923 68.6875 251.438 91.1734 251.438 118.911C251.438 146.649 273.923 169.135 301.661 169.135Z"
    fill="#FBBEBE"
  />
  <path
    d="M281.261 20.3587C267.862 22.0567 253.399 24.2988 243.928 33.925C238.631 39.3062 235.528 46.481 232.975 53.584C229.017 64.6452 226.069 76.3043 226.996 88.0411C227.821 98.5403 231.707 109.279 228.562 119.335C227.115 123.963 224.275 128.005 222.069 132.316C217.979 140.322 216.054 149.296 215.349 158.259C214.858 164.423 214.954 170.767 216.981 176.608C219.139 182.826 223.348 188.118 226.015 194.133C229.961 203.018 230.356 213.014 230.661 222.73C230.966 232.446 231.223 242.096 231.45 251.776C231.594 257.863 231.605 264.38 228.239 269.456C240.67 264.476 253.273 259.394 263.91 251.262C274.547 243.131 283.157 231.406 284.532 218.085C285.644 207.287 281.997 196.644 278.852 186.252C271.079 160.543 266.057 133.135 271.713 106.881C273.752 97.4282 278.708 86.8752 288.221 85.1353C294.026 84.077 299.82 86.7257 305.052 89.4641C317.416 95.9334 330.164 104.304 334.767 117.476C338.953 129.386 335.431 142.653 329.984 154.026C324.537 165.398 317.123 175.855 312.89 187.741C306.391 205.977 308.221 227.328 319.019 243.394C329.817 259.459 349.769 269.343 368.955 266.748C367.455 260.267 362.749 255.029 360.226 248.871C355.64 237.684 358.731 224.817 363.664 213.78C368.597 202.743 375.329 192.453 378.414 180.734C380.591 172.483 380.854 163.861 380.842 155.329C380.842 141.9 380.178 128.465 378.887 115.096C377.595 101.727 375.622 88.1906 371.365 75.3297C367.945 65.0159 362.964 55.0429 355.515 47.1327C347.586 38.7083 337.267 32.9983 327.132 27.4019C321.069 24.0656 314.875 20.6875 308.071 19.4379C302.69 18.4514 297.034 17.0463 291.545 16.9566C287.814 16.9028 283.892 17.71 281.261 20.3587Z"
    fill="#4F4135"
  />
  <path
    d="M368.625 128.179C367.047 125.387 365.361 122.499 362.7 120.711C361.171 119.773 359.527 119.036 357.809 118.517C352.016 116.49 346.126 114.445 339.998 114.122C338.999 114.075 337.857 114.122 337.206 114.888C335.866 116.46 337.989 118.601 339.824 119.551L354.425 127.115L340.966 125.692C339.011 125.483 336.225 126.015 336.369 127.976C336.464 129.261 337.875 129.961 339.095 130.367C347.735 133.357 357.72 135.701 362.449 143.521C356.147 142.923 349.708 142.325 343.531 143.713C341.839 144.095 340.088 144.687 338.981 146.02C337.875 147.354 337.75 149.608 339.143 150.666C340.004 151.306 341.164 151.324 342.24 151.264C346.623 151.055 351.119 150.182 355.328 151.432C359.537 152.681 363.274 157.094 361.821 161.231C365.552 161.566 369.965 161.231 373.415 159.623C377.217 157.829 377.128 154.457 376.894 150.391C376.398 142.427 372.446 134.995 368.625 128.179Z"
    fill="#FBBEBE"
  />
  <path
    opacity="0.1"
    d="M364.854 258.515C361.508 234.986 356.918 211.651 351.102 188.608C348.113 176.65 344.717 164.489 345.572 152.184C357.924 153.756 368.991 154.922 380.376 149.876C380.561 156.339 385.248 161.834 386.952 168.082C388.094 172.267 387.664 176.698 388.112 181.009C388.561 185.32 389.906 189.499 391.06 193.69C396.786 214.46 398.135 236.192 395.024 257.51C384.459 258.766 375.395 260.147 364.854 258.515Z"
    fill="black"
  />
  <path
    d="M363.057 258.515C359.711 234.986 355.121 211.651 349.305 188.608C346.316 176.65 342.92 164.489 343.775 152.184C356.127 153.756 367.195 154.922 378.579 149.876C378.764 156.339 383.452 161.834 385.156 168.082C386.298 172.267 385.867 176.698 386.315 181.009C386.764 185.32 388.109 189.499 389.263 193.69C394.989 214.46 396.339 236.192 393.227 257.51C382.662 258.766 373.598 260.147 363.057 258.515Z"
    fill="#4B5E76"
  />
  <path
    d="M190.23 374.974L196.083 229.762C196.176 227.454 197.165 225.272 198.839 223.681C200.513 222.089 202.742 221.212 205.052 221.236L436.153 223.448C437.377 223.461 438.586 223.726 439.703 224.228C440.82 224.73 441.821 225.458 442.644 226.365C443.466 227.272 444.092 228.34 444.483 229.501C444.873 230.661 445.019 231.89 444.912 233.11L432.703 372.224C432.511 374.411 431.516 376.451 429.909 377.948C428.303 379.445 426.199 380.294 424.003 380.331L199.264 384.218C198.054 384.238 196.853 384.012 195.734 383.552C194.614 383.092 193.601 382.408 192.755 381.543C191.909 380.677 191.249 379.648 190.815 378.519C190.381 377.389 190.182 376.183 190.23 374.974Z"
    fill="#3F3D56"
  />
  <path
    d="M319.297 299.178C324.911 299.178 329.461 293.824 329.461 287.22C329.461 280.616 324.911 275.262 319.297 275.262C313.684 275.262 309.133 280.616 309.133 287.22C309.133 293.824 313.684 299.178 319.297 299.178Z"
    fill="#4B5E76"
  />
  <path
    opacity="0.1"
    d="M486.472 267.926C486.161 267.86 485.748 267.968 485.688 268.279C485.681 268.437 485.722 268.594 485.808 268.727C486.493 269.811 487.489 270.663 488.666 271.172C488.867 271.285 489.089 271.357 489.318 271.382C489.437 271.396 489.558 271.374 489.665 271.318C489.771 271.263 489.859 271.177 489.916 271.071C489.949 270.98 489.962 270.884 489.955 270.788C489.948 270.692 489.92 270.599 489.874 270.515C489.691 270.191 489.438 269.913 489.132 269.702C488.331 269.074 487.512 268.099 486.472 267.926Z"
    fill="black"
  />
</svg>
