<svg
  width="435"
  height="522"
  viewBox="0 0 435 522"
  fill="none"
  xmlns="http://www.w3.org/2000/svg"
>
  <title>couple looking at phone</title>
  <path
    fill-rule="evenodd"
    clip-rule="evenodd"
    d="M71.8576 0H362.126C408.822 2.39641e-06 432.493 33.0259 432.493 70.0002V197.558L431.715 198.276L434.302 199.396V199.397L434.303 199.396V297.06L434.302 297.058V297.06L431.729 298.089L432.493 299.441V798.359C432.493 833.538 409.863 868 363.168 868H241.399C238.928 868 236.582 867.701 234.656 867.455C233.315 867.284 232.177 867.138 231.342 867.138H201.888C200.916 867.138 199.946 867.279 198.789 867.446C197.08 867.694 194.963 868 191.83 868H71.3833C25.124 868 2.53223 833.538 2.53223 798.359L2.74966 315.417L2.99108 314.814L2.92084 314.674L1.08691 313.94V313.939L1.08594 313.94V254.86L1.08691 254.861V254.86L2.95037 254.052L3.01852 253.865L2.77767 253.202L2.78416 238.793L3.13326 237.864L1.08691 237.045V237.044L1.08594 237.045V177.965L1.08691 177.966V177.965L2.98574 177.142L3.05315 176.94L2.81234 176.216L2.82496 148.183L2.94249 147.701H1.35644H0.926348H0.844006L0 146.857V115.026L0.844006 114.182H0.926348H1.35644H3.0724L2.8399 113.338L2.85953 69.6411C2.85953 33.0258 23.725 6.16221e-06 71.8576 0ZM29.54 73.7476C29.54 41.9378 46.4719 27.3203 73.5786 27.3203H361.883C391.45 27.3203 405.438 44.2004 405.438 73.7428V794.279C405.438 823.821 391.45 840.701 361.883 840.701H73.5786C46.4719 840.701 29.54 826.084 29.54 794.274V73.7476Z"
    fill="var(--ion-color-step-200)"
  />
  <path
    fill-rule="evenodd"
    clip-rule="evenodd"
    d="M357.584 6.26953H76.4322C25.953 6.26954 9.6012 35.2352 9.6012 75.4849L9.28418 791.429C9.28418 826.394 27.3081 860.645 75.9728 860.645H358.593C405.751 860.645 425.741 828.323 425.741 791.429V75.8419C425.741 35.2352 406.672 6.26953 357.584 6.26953ZM29.54 73.7476C29.54 41.9378 46.4719 27.3203 73.5786 27.3203H106.586C111.288 27.9232 112.006 31.4801 112.006 34.8107C112.006 45.165 119.367 57.5385 135.704 57.5385L216.548 57.584L299.321 57.5385C315.658 57.5385 323.019 45.165 323.019 34.8107C323.019 31.4801 323.737 27.9232 328.439 27.3203H361.883C391.45 27.3203 405.438 44.2004 405.438 73.7428V794.279C405.438 823.821 391.45 840.701 361.883 840.701H73.5786C46.4719 840.701 29.54 826.083 29.54 794.274V73.7476Z"
    fill="var(--ion-color-step-100)"
  />
  <rect
    x="193.47"
    y="34.1572"
    width="52.0872"
    height="7.47548"
    rx="3.73774"
    fill="var(--ion-color-step-200)"
  />
  <circle
    cx="264.848"
    cy="37.8948"
    r="6.02862"
    fill="var(--ion-color-step-200)"
  />
  <rect x="42" y="321" width="351" height="65" rx="4" fill="#E5809E" />
  <rect x="107" y="358" width="274" height="5" rx="2.5" fill="#DD557E" />
  <path
    d="M107 360.5C107 359.119 108.119 358 109.5 358H198V363H109.5C108.119 363 107 361.881 107 360.5V360.5Z"
    fill="white"
  />
  <path
    d="M87.125 341.5H84V343.375C84 343.719 83.7188 344 83.375 344H82.125C81.7812 344 81.5 343.719 81.5 343.375V341.5H66.5V343.375C66.5 343.719 66.2188 344 65.875 344H64.625C64.2812 344 64 343.719 64 343.375V341.5H60.875C59.1562 341.5 57.75 342.906 57.75 344.625V365.875C57.75 367.594 59.1562 369 60.875 369H87.125C88.8438 369 90.25 367.594 90.25 365.875V344.625C90.25 342.906 88.8438 341.5 87.125 341.5ZM87.75 364.938C87.75 365.797 87.0469 366.5 86.1875 366.5H61.8125C60.9531 366.5 60.25 365.797 60.25 364.938V350.875C60.25 350.531 60.5312 350.25 60.875 350.25H87.125C87.4688 350.25 87.75 350.531 87.75 350.875V364.938ZM66.5 339.625C66.5 339.281 66.2188 339 65.875 339H64.625C64.2812 339 64 339.281 64 339.625V341.5H66.5V339.625ZM84 339.625C84 339.281 83.7188 339 83.375 339H82.125C81.7812 339 81.5 339.281 81.5 339.625V341.5H84V339.625Z"
    fill="white"
  />
  <rect opacity="0.5" x="198" y="358" width="57" height="5" fill="white" />
  <path d="M255.5 361L260 367H251L255.5 361Z" fill="#2D4054" />
  <rect x="216.5" y="367" width="79" height="20" rx="3" fill="#2D4054" />
  <path d="M220.5 383.5H234.5L227.5 370.5L220.5 383.5Z" fill="#D9525B" />
  <path d="M228.25 381.5H226.75V380H228.25V381.5Z" fill="white" />
  <path d="M228.25 379H226.75V376H228.25V379Z" fill="white" />
  <rect x="42" y="244" width="351" height="65" rx="4" fill="#21BD9D" />
  <path
    fill-rule="evenodd"
    clip-rule="evenodd"
    d="M90.6938 265.102L92.2156 267.443L82.7527 272.421L80.1138 270.005L86.5752 259.769L89.1247 261.129L84.5803 268.332L90.6938 265.102ZM83.9905 275.457L84.0003 275.46C84.5541 275.948 84.837 276.628 84.837 277.364C84.837 278.255 84.3597 279.043 83.6343 279.55C83.6343 279.55 78.9095 282.707 73.834 286.113L70.3297 283.474C69.9705 283.225 69.6384 283.16 69.4265 283.354L69.416 283.364C69.2414 283.524 69.2745 283.872 69.5465 284.191L72.2207 287.183L61.6199 294.301C61.0435 294.648 60.4397 294.935 59.7158 294.935C58.0844 294.935 56.7695 293.724 56.7695 292.23C56.7695 291.677 56.9541 291.163 57.2311 290.735C57.3413 290.574 58.6964 288.593 60.543 285.893L62.4094 287.292C62.7686 287.541 63.1007 287.606 63.3127 287.412L63.3232 287.402C63.4977 287.242 63.4647 286.894 63.1927 286.575L61.4275 284.6L69.1509 273.307L72.471 275.795C72.8301 276.045 73.1623 276.109 73.3742 275.915L73.3847 275.905C73.5593 275.745 73.5262 275.397 73.2542 275.078L70.2434 271.709C71.2781 270.196 71.9349 269.237 71.9349 269.237C72.4458 268.392 73.3995 267.87 74.4926 267.87C75.3526 267.87 76.1267 268.222 76.6665 268.73L83.9495 275.408C83.956 275.414 83.9633 275.423 83.9705 275.433C83.9775 275.442 83.9844 275.451 83.9905 275.457Z"
    fill="white"
  />
  <rect x="107" y="281" width="274" height="5" rx="2.5" fill="#1A9B81" />
  <path
    d="M107 283.5C107 282.119 108.119 281 109.5 281H248V286H109.5C108.119 286 107 284.881 107 283.5V283.5Z"
    fill="white"
  />
  <rect x="42" y="167" width="351" height="65" rx="4" fill="#5AB5E3" />
  <path
    fill-rule="evenodd"
    clip-rule="evenodd"
    d="M87.9954 192.756H83.4943V192.44C83.4943 187.622 79.6262 183.754 74.8086 183.754H74.246C69.4284 183.754 65.4899 187.622 65.4899 192.44V192.756H60.9888L58.7383 215.262H90.246L87.9954 192.756V192.756ZM67.7405 192.44C67.7405 188.874 70.6803 186.004 74.246 186.004H74.7734H74.8086C78.3743 186.004 81.2438 188.874 81.2438 192.44V192.756H67.7405V192.44V192.44ZM61.2561 213.011L63.0073 195.007H65.4899V197.56C64.8148 197.946 64.3647 198.678 64.3647 199.508C64.3647 200.753 65.3704 201.758 66.6152 201.758C67.86 201.758 68.8658 200.753 68.8658 199.508C68.8658 198.678 68.4156 197.946 67.7405 197.56V195.007H81.2438V197.56C80.5686 197.946 80.1185 198.678 80.1185 199.508C80.1185 200.753 81.1242 201.758 82.3691 201.758C83.6139 201.758 84.6196 200.753 84.6196 199.508C84.6196 198.678 84.1695 197.946 83.4943 197.56V195.007H85.984L87.7352 213.011H61.2561V213.011Z"
    fill="white"
  />
  <rect x="107" y="204" width="274" height="5" rx="2.5" fill="#2A9AD3" />
  <path
    d="M107 206.5C107 205.119 108.119 204 109.5 204H338V209H109.5C108.119 209 107 207.881 107 206.5V206.5Z"
    fill="white"
  />
  <rect x="42" y="475" width="351" height="65" rx="4" fill="#C21032" />
  <path
    fill-rule="evenodd"
    clip-rule="evenodd"
    d="M77.3309 498.632L64.6315 511.331L71.6473 518.347L84.3466 505.648L77.3309 498.632ZM72.6464 520.367C72.3799 520.634 72.0247 520.767 71.6473 520.767C71.2699 520.767 70.9146 520.634 70.6482 520.367L62.6112 512.33C62.0562 511.775 62.0562 510.887 62.6112 510.332L76.3318 496.612C76.8647 496.079 77.7971 496.079 78.33 496.612L86.367 504.649C86.922 505.204 86.922 506.092 86.367 506.647L72.6464 520.367ZM92.3837 506.225C93.4715 505.137 93.4715 503.317 92.3837 502.207L89.5862 499.431C87.9211 501.096 85.2125 501.096 83.5474 499.431C81.8823 497.766 81.8823 495.058 83.5474 493.392L80.7722 490.617C79.6621 489.507 77.8416 489.507 76.7537 490.617L56.6167 510.732C55.5067 511.842 55.5067 513.663 56.6167 514.75L59.392 517.548C61.0571 515.883 63.7657 515.883 65.4308 517.548C67.0959 519.213 67.0959 521.922 65.4308 523.587L68.2282 526.384C69.3161 527.472 71.1366 527.472 72.2467 526.384L92.3837 506.225Z"
    fill="white"
  />
  <rect x="107" y="512" width="274" height="5" rx="2.5" fill="#A00D2A" />
  <path
    d="M107 514.5C107 513.119 108.119 512 109.5 512H206V517H109.5C108.119 517 107 515.881 107 514.5V514.5Z"
    fill="white"
  />
  <rect x="42" y="398" width="351" height="65" rx="4" fill="#9E4EA2" />
  <path
    fill-rule="evenodd"
    clip-rule="evenodd"
    d="M92.2215 433.397C92.2215 431.451 91.9445 429.549 91.8337 429.339C91.7506 429.187 91.2175 428.788 90.0057 428.033C89.7487 427.872 89.5468 427.75 89.3862 427.653L89.3861 427.653C88.7808 427.287 88.7614 427.275 88.5863 426.879C88.6775 426.853 88.7674 426.817 88.8493 426.784C88.9476 426.744 89.0345 426.709 89.0987 426.702C89.2117 426.691 89.2787 426.727 89.3618 426.771C89.4721 426.83 89.6107 426.905 89.9226 426.905C90.4697 426.905 91.6537 426.772 91.896 426.55C92.1384 426.328 92.2146 426.252 92.2146 426.055C92.2146 425.859 92.0899 425.453 91.8545 425.212C91.6191 424.971 90.6151 424.85 90.0265 424.781C89.4659 424.714 89.3639 424.774 89.2238 424.857L89.2025 424.869C88.9602 425.009 88.9463 426.283 88.9463 426.283L88.3716 426.296C88.261 426.046 88.1376 425.722 87.9977 425.354L87.9976 425.354L87.9976 425.354C87.6648 424.479 87.2386 423.358 86.6683 422.416C85.782 420.957 84.8541 420.501 84.4664 420.387C84.0855 420.279 83.7393 420.203 81.1427 419.962C78.4908 419.708 76.3789 419.677 74.4955 419.677C72.6121 419.677 70.5002 419.715 67.8483 419.962C65.2517 420.209 64.9055 420.279 64.5246 420.387C64.1438 420.495 63.209 420.957 62.3227 422.416C61.7524 423.358 61.3262 424.479 60.9934 425.354C60.8535 425.722 60.7301 426.046 60.6194 426.296L60.0447 426.283C60.0447 426.283 60.0378 425.009 59.7885 424.869L59.7621 424.854C59.6246 424.772 59.5183 424.709 58.9645 424.781L58.8495 424.795C58.2534 424.872 57.3572 424.986 57.1365 425.212C56.9011 425.453 56.7765 425.859 56.7765 426.055C56.7765 426.252 56.8526 426.334 57.095 426.55C57.3373 426.772 58.5214 426.905 59.0684 426.905C59.3804 426.905 59.5189 426.83 59.6292 426.771C59.7123 426.727 59.7793 426.691 59.8923 426.702C59.9586 426.709 60.0511 426.746 60.1539 426.788L60.1539 426.788C60.2338 426.82 60.3199 426.854 60.4047 426.879C60.223 427.278 60.2077 427.287 59.5921 427.66C59.4338 427.756 59.2359 427.876 58.9853 428.033C57.7735 428.794 57.2335 429.187 57.1573 429.339C57.0465 429.549 56.7695 431.451 56.7695 433.397C56.7695 434.641 56.8317 435.804 56.8766 436.644C56.902 437.119 56.9219 437.49 56.9219 437.715C56.9219 437.975 56.9219 438.431 56.9842 438.869C57.0257 439.129 57.088 439.382 57.1988 439.579C57.3858 439.928 57.5589 439.959 58.2721 439.928C59.1861 439.89 60.5086 439.928 61.8727 439.978C62.7867 440.01 63.7214 440.042 64.5523 440.061C65.8113 440.084 66.0834 439.976 66.2998 439.891C66.4404 439.836 66.5574 439.789 66.9066 439.794C67.1464 439.798 67.5773 439.81 68.1418 439.826C69.6634 439.869 72.1552 439.94 74.4886 439.94C76.8268 439.94 79.3278 439.869 80.8478 439.826H80.8478L80.8482 439.826C81.4076 439.81 81.834 439.798 82.0706 439.794C82.4197 439.789 82.5368 439.836 82.6774 439.891C82.8937 439.976 83.1659 440.084 84.4248 440.061C85.0849 440.051 85.8106 440.025 86.5394 439.998L86.5395 439.998L86.5402 439.998C86.7285 439.992 86.9169 439.985 87.1045 439.978L87.1705 439.976H87.1706C88.5114 439.932 89.8127 439.89 90.7051 439.928C91.4183 439.959 91.5914 439.928 91.7783 439.579C91.8822 439.382 91.9514 439.129 91.993 438.869C92.0567 438.466 92.0559 438.047 92.0554 437.78L92.0553 437.715C92.0595 437.527 92.0767 437.232 92.0985 436.858C92.1481 436.008 92.2215 434.748 92.2215 433.397ZM62.7382 423.798C63.0706 423.088 64.0676 421.661 64.5523 421.408C64.6701 421.344 65.7018 421.046 68.2845 420.888C70.6595 420.742 73.2838 420.685 74.5024 420.685C75.7211 420.685 78.3454 420.742 80.7204 420.888C83.2962 421.046 84.3417 421.338 84.4525 421.408C85.0757 421.801 85.9343 423.088 86.2667 423.798C86.599 424.508 87.0422 425.903 86.9591 426.093C86.9472 426.12 86.9404 426.146 86.9342 426.169L86.9342 426.169C86.8972 426.307 86.8812 426.367 85.9204 426.296C84.8057 426.22 77.8053 426.137 74.5094 426.137C71.2204 426.137 64.22 426.22 63.0983 426.296C62.1366 426.361 62.1215 426.305 62.0844 426.168C62.0783 426.145 62.0715 426.12 62.0596 426.093C61.9627 425.903 62.4058 424.514 62.7382 423.798ZM65.2863 431.736C65.1084 431.777 64.956 431.834 64.8053 431.891C64.5337 431.994 64.2676 432.095 63.8668 432.091C63.4878 432.091 62.7167 431.995 62.0897 431.917C61.686 431.866 61.3421 431.823 61.201 431.818C60.9586 431.81 60.7349 431.913 60.5576 431.996L60.5576 431.996C60.4716 432.035 60.3966 432.07 60.3355 432.085C60.172 432.123 59.8707 432.036 59.427 431.908C59.3635 431.889 59.297 431.87 59.2276 431.85C59.1388 431.825 59.0558 431.804 58.9784 431.786C58.573 431.687 58.3194 431.625 58.1682 431.045C57.9813 430.36 58.1682 429.377 58.1682 429.377C59.3661 429.327 60.5225 429.428 62.6897 429.986C64.857 430.544 66.0618 431.615 66.0618 431.615C66.0618 431.615 65.7848 431.622 65.2863 431.736ZM81.572 436.732C80.5819 436.853 76.4343 436.884 74.4955 436.884C72.5567 436.884 68.4091 436.846 67.419 436.732C66.408 436.612 65.0924 435.502 65.9995 434.621C66.0877 434.535 66.1684 434.455 66.2432 434.381C66.588 434.039 66.8081 433.822 67.0666 433.668C67.5234 433.398 68.0998 433.33 69.6949 433.141L69.7801 433.131C72.1897 432.845 74.0177 432.833 74.4955 432.833C74.9664 432.833 76.8013 432.852 79.2109 433.131L79.2961 433.141C80.8912 433.33 81.4677 433.398 81.9244 433.668C82.1829 433.822 82.403 434.039 82.7478 434.381C82.8226 434.455 82.9033 434.535 82.9915 434.621C83.8986 435.502 82.583 436.612 81.572 436.732ZM90.8228 431.051C90.6648 431.63 90.4127 431.692 90.004 431.794C89.9292 431.812 89.8491 431.832 89.7634 431.856L89.6254 431.896C89.148 432.033 88.8265 432.126 88.6555 432.091C88.5911 432.078 88.511 432.041 88.419 432L88.419 432C88.2441 431.92 88.026 431.821 87.79 431.825C87.6489 431.83 87.305 431.873 86.9013 431.923L86.9013 431.923C86.2743 432.001 85.5032 432.097 85.1242 432.097C84.7239 432.097 84.4578 431.998 84.1866 431.897C84.0356 431.84 83.883 431.783 83.7047 431.742C83.2062 431.628 82.9292 431.628 82.9292 431.628C82.9292 431.628 84.1271 430.55 86.3013 429.999C88.4686 429.441 89.6249 429.339 90.8228 429.39C90.8228 429.377 91.0097 430.36 90.8228 431.051ZM56.9773 439.376C57.0188 439.636 57.088 439.89 57.1919 440.086C57.3789 440.435 57.5589 440.466 58.2652 440.435C59.1792 440.397 60.4878 440.435 61.8727 440.485C61.8727 440.834 61.8588 440.999 61.8588 440.999C61.7688 441.956 61.298 441.988 61.111 441.988H58.1336C57.8705 441.988 57.6489 441.988 57.4412 441.874C57.1919 441.741 57.095 441.303 57.005 440.562C56.9911 440.454 56.9842 440.314 56.9773 440.149V440.143C56.9773 440.12 56.9758 440.094 56.9742 440.066C56.9724 440.033 56.9703 439.997 56.9703 439.959V439.89C56.9773 439.718 56.9773 439.528 56.9773 439.376ZM91.7853 440.086C91.8891 439.89 91.9584 439.636 91.9999 439.376C92.0068 439.528 92.0068 439.718 92.0068 439.89V439.959C92.0068 439.997 92.0048 440.033 92.0029 440.066C92.0014 440.094 91.9999 440.12 91.9999 440.143V440.149C91.993 440.314 91.9861 440.454 91.9722 440.562C91.8822 441.303 91.7783 441.728 91.536 441.874C91.349 441.988 91.1067 441.988 90.8436 441.988H87.8661C87.6792 441.988 87.2084 441.956 87.1183 440.999C87.1183 440.999 87.1045 440.834 87.1045 440.485C88.4893 440.435 89.798 440.397 90.712 440.435C91.4183 440.466 91.5983 440.435 91.7853 440.086Z"
    fill="white"
  />
  <rect x="107" y="435" width="274" height="5" rx="2.5" fill="#8A458D" />
  <path
    d="M107 437.5C107 436.119 108.119 435 109.5 435H158V440H109.5C108.119 440 107 438.881 107 437.5V437.5Z"
    fill="white"
  />
  <rect x="42" y="90" width="351" height="65" rx="4" fill="#D74751" />
  <path
    fill-rule="evenodd"
    clip-rule="evenodd"
    d="M67.3046 119.372C63.4571 117.245 58.9271 114.741 58.3884 114.453C58.0391 114.271 57.4512 113.951 57.3234 113.57C57.1018 112.921 57.3404 112.662 58.2862 112.662H74.5774H90.8687C91.8145 112.662 92.0531 112.913 91.8315 113.57C91.7037 113.942 91.1158 114.271 90.7665 114.453C90.2278 114.741 85.698 117.245 81.8506 119.372C79.0038 120.946 76.5307 122.313 76.3242 122.423C75.8385 122.683 75.3443 122.804 74.5774 122.804C73.8106 122.804 73.3164 122.683 72.8307 122.423C72.6242 122.313 70.1512 120.946 67.3046 119.372ZM87.7882 117.387C89.703 116.047 91.1882 115.009 91.5078 114.842C92.2213 114.476 92.2182 114.853 92.2153 115.201C92.2151 115.223 92.215 115.245 92.215 115.266V133.007C92.215 133.803 91.2181 134.815 90.3831 134.815H74.5775H58.7719C57.9368 134.815 56.7695 133.812 56.7695 133.007V115.266C56.7695 114.912 56.8121 114.453 57.5619 114.842C57.891 115.014 59.4711 116.11 61.4844 117.507C63.746 119.076 66.5541 121.024 68.7494 122.466L61.754 130.471C61.5836 130.644 61.5069 130.861 61.6092 130.956C61.7114 131.06 61.9415 131.008 62.1119 130.835L70.5132 123.635C71.7827 124.465 72.6689 125.037 72.8307 125.123C73.4868 125.461 73.9469 125.504 74.5775 125.504C75.208 125.504 75.6681 125.461 76.3242 125.123C76.4775 125.037 77.3722 124.465 78.6418 123.635L87.043 130.835C87.2219 130.999 87.4435 131.051 87.5457 130.956C87.6394 130.852 87.5628 130.644 87.3923 130.471L80.3885 122.466C82.6401 120.987 85.5164 118.976 87.7882 117.387Z"
    fill="white"
  />
  <rect x="107" y="127" width="274" height="5" rx="2.5" fill="white" />
</svg>
