<svg
  width="648"
  height="560"
  viewBox="0 0 648 560"
  fill="none"
  xmlns="http://www.w3.org/2000/svg"
>
  <title>man looking at graph</title>
  <path
    opacity="0.1"
    d="M583.086 354.075C556.6 385.492 556.414 431.831 563.018 469.035C565.226 481.491 567.887 494.673 563.639 507.951C558.444 524.186 544.182 535.932 530.313 542.096C505.032 553.3 477.728 550.228 459.216 534.082C443.231 520.137 434.015 497.654 417.603 484.33C390.165 462.03 348.699 469.818 311.913 484.503C285.901 494.864 257.053 508.467 235.087 496.988C219.632 488.925 211.397 469.664 208.674 449.319C207.359 439.497 207.026 428.876 202.563 421.051C199.907 416.4 195.953 413.072 191.792 410.252C153.812 384.536 97.7294 397.376 61.4639 368.92C36.9683 349.706 25.4993 313.877 24.2386 276.651C22.9779 239.424 30.8702 200.503 39.7144 162.287C46.0065 135.118 53.7496 106.152 72.019 85.3526C91.3464 63.3533 119.176 55.4067 142.236 59.949C165.297 64.4912 184.204 79.7513 200.029 97.685C219.808 120.098 236.897 147.916 264.437 157.233C283.195 163.58 304.669 160.491 325.372 159.589C359.938 158.074 393.412 162.787 426.605 167.909C458.383 172.811 490.312 178.16 519.086 191.206C539.444 200.444 554.143 216.945 572.847 228.578C585.039 236.161 599.418 238.389 610.528 247.992C624.212 259.822 635.05 280.236 626.773 303.875C618.887 326.361 597.14 337.403 583.086 354.075Z"
    fill="#4DCAB1"
  />
  <path
    d="M448.044 242.06C448.044 242.06 446.429 254.167 450.465 259.009C454.5 263.852 460.957 296.135 460.957 296.135V315.506C460.957 315.506 435.937 279.187 431.095 264.659C426.252 250.131 431.095 238.832 431.095 238.832L448.044 242.06Z"
    fill="#EFB7B9"
  />
  <path
    d="M450.465 182.336L450.124 182.72C445.956 187.407 442.685 192.82 440.474 198.69C435.176 212.759 423.787 247.442 427.867 250.939C433.516 255.781 449.658 259.009 450.465 258.202C451.272 257.395 467.414 207.356 467.414 207.356L450.465 182.336Z"
    fill="#3F3D56"
  />
  <path
    d="M476.693 525.349C476.693 525.349 457.323 529.384 456.515 525.349C455.999 522.84 455.186 520.402 454.094 518.085C454.094 518.085 436.538 518.816 441.121 534.208C441.581 535.725 442.584 537.019 443.939 537.841C448.12 540.4 457.969 546.435 462.972 549.561C466.733 551.912 472.136 550.156 475.992 548.279C477.375 547.602 478.493 546.485 479.174 545.105C479.854 543.724 480.058 542.156 479.752 540.648L476.693 525.349Z"
    fill="#3F3D56"
  />
  <path
    d="M532.384 527.77C532.384 527.77 551.754 531.805 552.561 527.77C553.077 525.261 553.89 522.823 554.983 520.506C554.983 520.506 572.505 521.236 567.969 536.585C567.502 538.131 566.48 539.449 565.099 540.286C560.896 542.858 551.092 548.865 546.105 551.982C541.987 554.556 535.899 552.205 532.029 550.165C530.954 549.603 530.089 548.709 529.565 547.616C529.04 546.522 528.883 545.289 529.118 544.099L532.384 527.77Z"
    fill="#3F3D56"
  />
  <path
    d="M556.598 252.553C556.598 252.553 558.212 264.659 554.177 269.501C550.141 274.344 543.685 292.907 543.685 292.907V312.277C543.685 312.277 568.704 289.679 573.547 275.151C578.39 260.623 573.547 249.324 573.547 249.324L556.598 252.553Z"
    fill="#EFB7B9"
  />
  <path
    d="M500.1 153.28C488.957 153.28 479.923 144.247 479.923 133.103C479.923 121.959 488.957 112.926 500.1 112.926C511.244 112.926 520.277 121.959 520.277 133.103C520.277 144.247 511.244 153.28 500.1 153.28Z"
    fill="#EFB7B9"
  />
  <path
    d="M483.958 141.174C483.958 141.174 489.607 167.001 483.958 170.229C478.308 173.457 517.855 170.229 517.855 170.229C517.855 170.229 508.977 148.437 513.013 141.174C517.048 133.91 483.958 141.174 483.958 141.174Z"
    fill="#EFB7B9"
  />
  <path
    d="M464.585 313.085C464.585 313.085 457.321 323.577 459.742 355.86C462.164 388.144 464.585 422.042 464.585 422.042C464.585 422.042 446.829 523.735 452.479 526.156C458.128 528.578 476.691 530.999 479.113 528.578C481.534 526.156 492.833 431.727 492.833 431.727L503.325 354.246L519.467 443.026C519.467 443.026 528.345 529.385 534.802 533.42C539.418 536.305 548.57 534.24 553.414 532.828C554.323 532.567 555.117 532.009 555.67 531.242C556.222 530.475 556.501 529.544 556.461 528.6C555.869 515.019 553.213 461.423 546.908 428.498C539.644 390.565 554.172 314.699 541.259 313.085C528.345 311.47 464.585 313.085 464.585 313.085Z"
    fill="#2F2E41"
  />
  <path
    d="M521.085 167.001C521.085 167.001 517.856 152.473 505.75 154.087C493.643 155.701 485.573 154.894 483.151 162.965C480.73 171.036 454.903 177.493 454.903 177.493C454.903 177.493 448.446 178.3 449.253 188.792C450.061 199.284 466.202 238.024 466.202 238.024C466.202 238.024 465.395 270.308 461.36 284.836C457.324 299.363 457.324 317.119 466.202 321.155C475.08 325.19 530.77 339.718 543.683 321.962C543.683 321.962 550.947 296.135 546.104 285.643C541.262 275.151 546.911 233.989 546.911 233.989L562.246 200.091C562.246 200.091 557.404 183.949 543.683 179.107C535.563 176.279 527.937 172.194 521.085 167.001V167.001Z"
    fill="#3F3D56"
  />
  <path
    d="M555.79 192.828L562.247 200.092C562.247 200.092 581.617 247.71 575.967 252.553C570.318 257.395 554.176 260.624 553.369 259.817C552.562 259.01 538.841 217.848 538.841 217.848L555.79 192.828Z"
    fill="#3F3D56"
  />
  <path
    d="M476.694 120.997C476.694 120.997 479.922 123.418 480.729 129.068C481.536 134.718 486.493 125.849 487.646 137.547C488.8 149.245 508.17 157.316 515.434 151.666C522.698 146.017 534.804 110.505 517.855 104.855C500.907 99.2056 483.958 100.013 480.729 105.662C477.501 111.312 476.694 120.997 476.694 120.997Z"
    fill="#A3876E"
  />
  <path
    opacity="0.1"
    d="M492.488 137.547C491.334 125.849 486.378 134.717 485.571 129.068C484.764 123.418 481.535 120.997 481.535 120.997C481.535 120.997 482.342 111.312 485.571 105.662C487.115 102.959 491.805 101.368 498.129 101.059C489.405 100.659 482.646 102.306 480.728 105.662C477.5 111.312 476.693 120.997 476.693 120.997C476.693 120.997 479.921 123.418 480.728 129.068C481.535 134.717 486.491 125.849 487.645 137.547C488.624 147.464 502.692 154.771 511.379 153.324C503.1 152.187 493.299 145.766 492.488 137.547Z"
    fill="black"
  />
  <path
    d="M73.8777 295.481H47.4516C42.6868 295.481 38.8242 299.344 38.8242 304.109V401.88C38.8242 406.645 42.6868 410.508 47.4516 410.508H73.8777C78.6424 410.508 82.505 406.645 82.505 401.88V304.109C82.505 299.344 78.6424 295.481 73.8777 295.481Z"
    fill="#656380"
    fill-opacity="0.1"
  />
  <path
    d="M156.874 226.32H130.448C125.683 226.32 121.82 230.183 121.82 234.948V401.88C121.82 406.645 125.683 410.508 130.448 410.508H156.874C161.639 410.508 165.501 406.645 165.501 401.88V234.948C165.501 230.183 161.639 226.32 156.874 226.32Z"
    fill="#656380"
    fill-opacity="0.1"
  />
  <path
    d="M239.866 178.271H213.44C208.675 178.271 204.812 182.134 204.812 186.899V401.88C204.812 406.645 208.675 410.508 213.44 410.508H239.866C244.631 410.508 248.493 406.645 248.493 401.88V186.899C248.493 182.134 244.631 178.271 239.866 178.271Z"
    fill="#656380"
    fill-opacity="0.1"
  />
  <path
    d="M322.858 132.406H296.432C291.667 132.406 287.805 136.269 287.805 141.034V401.88C287.805 406.645 291.667 410.507 296.432 410.507H322.858C327.623 410.507 331.486 406.645 331.486 401.88V141.034C331.486 136.269 327.623 132.406 322.858 132.406Z"
    fill="#656380"
    fill-opacity="0.1"
  />
  <path
    d="M405.85 52.3252H379.424C374.659 52.3252 370.797 56.1878 370.797 60.9525V401.881C370.797 406.645 374.659 410.508 379.424 410.508H405.85C410.615 410.508 414.478 406.645 414.478 401.881V60.9525C414.478 56.1878 410.615 52.3252 405.85 52.3252Z"
    fill="#656380"
    fill-opacity="0.1"
  />
  <path
    d="M68.0535 301.306H41.6273C36.8626 301.306 33 305.168 33 309.933V407.704C33 412.469 36.8626 416.332 41.6273 416.332H68.0535C72.8182 416.332 76.6808 412.469 76.6808 407.704V309.933C76.6808 305.168 72.8182 301.306 68.0535 301.306Z"
    fill="#4DCAB1"
  />
  <path
    d="M151.046 232.145H124.62C119.855 232.145 115.992 236.007 115.992 240.772V407.705C115.992 412.469 119.855 416.332 124.62 416.332H151.046C155.81 416.332 159.673 412.469 159.673 407.705V240.772C159.673 236.007 155.81 232.145 151.046 232.145Z"
    fill="#4DCAB1"
  />
  <path
    d="M234.042 184.096H207.616C202.851 184.096 198.988 187.958 198.988 192.723V407.705C198.988 412.469 202.851 416.332 207.616 416.332H234.042C238.807 416.332 242.669 412.469 242.669 407.705V192.723C242.669 187.958 238.807 184.096 234.042 184.096Z"
    fill="#4DCAB1"
  />
  <path
    d="M317.034 138.23H290.608C285.843 138.23 281.98 142.093 281.98 146.858V407.704C281.98 412.469 285.843 416.332 290.608 416.332H317.034C321.799 416.332 325.661 412.469 325.661 407.704V146.858C325.661 142.093 321.799 138.23 317.034 138.23Z"
    fill="#4DCAB1"
  />
  <path
    d="M400.026 58.1494H373.6C368.835 58.1494 364.973 62.012 364.973 66.7768V407.705C364.973 412.47 368.835 416.332 373.6 416.332H400.026C404.791 416.332 408.653 412.47 408.653 407.705V66.7768C408.653 62.012 404.791 58.1494 400.026 58.1494Z"
    fill="#4DCAB1"
  />
  <path
    d="M60.3008 251.436L143.294 182.275L227.016 134.954L310.009 89.0893L393.003 9.00781"
    stroke="#444053"
    stroke-miterlimit="10"
  />
  <path
    d="M58.1175 263.085C62.5403 263.085 66.1257 259.499 66.1257 255.077C66.1257 250.654 62.5403 247.068 58.1175 247.068C53.6947 247.068 50.1094 250.654 50.1094 255.077C50.1094 259.499 53.6947 263.085 58.1175 263.085Z"
    fill="#4DCAB1"
  />
  <path
    d="M141.11 193.924C145.532 193.924 149.118 190.338 149.118 185.915C149.118 181.493 145.532 177.907 141.11 177.907C136.687 177.907 133.102 181.493 133.102 185.915C133.102 190.338 136.687 193.924 141.11 193.924Z"
    fill="#4DCAB1"
  />
  <path
    d="M224.832 146.602C229.255 146.602 232.841 143.017 232.841 138.594C232.841 134.171 229.255 130.586 224.832 130.586C220.41 130.586 216.824 134.171 216.824 138.594C216.824 143.017 220.41 146.602 224.832 146.602Z"
    fill="#4DCAB1"
  />
  <path
    d="M307.825 100.738C312.247 100.738 315.833 97.1526 315.833 92.7298C315.833 88.3071 312.247 84.7217 307.825 84.7217C303.402 84.7217 299.816 88.3071 299.816 92.7298C299.816 97.1526 303.402 100.738 307.825 100.738Z"
    fill="#4DCAB1"
  />
  <path
    d="M390.821 20.6559C395.243 20.6559 398.829 17.0706 398.829 12.6478C398.829 8.22502 395.243 4.63965 390.821 4.63965C386.398 4.63965 382.812 8.22502 382.812 12.6478C382.812 17.0706 386.398 20.6559 390.821 20.6559Z"
    fill="#4DCAB1"
  />
  <path
    d="M60.3011 259.445C64.7239 259.445 68.3093 255.86 68.3093 251.437C68.3093 247.014 64.7239 243.429 60.3011 243.429C55.8783 243.429 52.293 247.014 52.293 251.437C52.293 255.86 55.8783 259.445 60.3011 259.445Z"
    stroke="#444053"
    stroke-miterlimit="10"
  />
  <path
    d="M143.293 190.284C147.716 190.284 151.301 186.699 151.301 182.276C151.301 177.853 147.716 174.268 143.293 174.268C138.871 174.268 135.285 177.853 135.285 182.276C135.285 186.699 138.871 190.284 143.293 190.284Z"
    stroke="#444053"
    stroke-miterlimit="10"
  />
  <path
    d="M227.016 142.963C231.439 142.963 235.024 139.377 235.024 134.954C235.024 130.532 231.439 126.946 227.016 126.946C222.593 126.946 219.008 130.532 219.008 134.954C219.008 139.377 222.593 142.963 227.016 142.963Z"
    stroke="#444053"
    stroke-miterlimit="10"
  />
  <path
    d="M310.008 97.0974C314.431 97.0974 318.016 93.512 318.016 89.0892C318.016 84.6664 314.431 81.0811 310.008 81.0811C305.585 81.0811 302 84.6664 302 89.0892C302 93.512 305.585 97.0974 310.008 97.0974Z"
    stroke="#444053"
    stroke-miterlimit="10"
  />
  <path
    d="M393.004 17.0163C397.427 17.0163 401.012 13.4309 401.012 9.00815C401.012 4.58537 397.427 1 393.004 1C388.581 1 384.996 4.58537 384.996 9.00815C384.996 13.4309 388.581 17.0163 393.004 17.0163Z"
    stroke="#444053"
    stroke-miterlimit="10"
  />
</svg>
