<svg width="135" height="40" viewBox="0 0 135 40" fill="none" xmlns="http://www.w3.org/2000/svg">
<title>PWA logo</title>
<path d="M130 0H5C2.23858 0 0 2.23858 0 5V35C0 37.7614 2.23858 40 5 40H130C132.761 40 135 37.7614 135 35V5C135 2.23858 132.761 0 130 0Z" fill="black"/>
<path d="M130 0.8C132.32 0.8 134.2 2.6804 134.2 5V35C134.2 37.3196 132.32 39.2 130 39.2H5C2.6804 39.2 0.8 37.3196 0.8 35V5C0.8 2.6804 2.6804 0.8 5 0.8H130ZM130 0H5C2.23858 0 0 2.23858 0 5V35C0 37.7614 2.23858 40 5 40H130C132.761 40 135 37.7614 135 35V5C135 2.23858 132.761 0 130 0Z" fill="#A6A6A6"/>
<path d="M39.2969 25.1338L40.5255 22.0295H44.0727L42.3893 17.3203L44.4947 12L50.5251 27.9994H46.0779L45.0474 25.1338H39.2969Z" fill="white"/>
<path d="M35.5054 27.9994L41.9611 12H37.6812L33.2652 22.3392L30.1249 12H26.8352L23.4634 22.3392L21.0855 17.6278L18.9336 24.2525L21.1184 27.9994H25.3304L28.3773 18.7274L31.2824 27.9994H35.5054Z" fill="#21BD9D"/>
<path d="M12.0626 22.508H14.6988C15.4973 22.508 16.2084 22.419 16.832 22.2408L17.5138 20.1421L19.4192 14.2763C19.274 14.0463 19.1082 13.8289 18.9219 13.6241C17.9436 12.542 16.5123 12.001 14.6278 12.001H8V28.0003H12.0626V22.508ZM15.552 15.6818C15.9341 16.0661 16.1252 16.5804 16.1252 17.2246C16.1252 17.8739 15.9571 18.3888 15.6211 18.7693C15.2527 19.1922 14.5743 19.4037 13.5861 19.4037H12.0626V15.1053H13.5973C14.5183 15.1053 15.1699 15.2975 15.552 15.6818Z" fill="white"/>
<path d="M61.9141 13.8867H64.6094V14.5H61.1602V8.8125H61.9141V13.8867Z" fill="white"/>
<path d="M68.1992 14.5C68.1576 14.4167 68.1237 14.2682 68.0977 14.0547C67.7617 14.4036 67.3607 14.5781 66.8945 14.5781C66.4779 14.5781 66.1353 14.4609 65.8671 14.2266C65.6015 13.9896 65.4688 13.6901 65.4688 13.3281C65.4688 12.888 65.6354 12.5469 65.9688 12.3047C66.3047 12.0599 66.7761 11.9375 67.3828 11.9375H68.086V11.6055C68.086 11.3529 68.0104 11.1523 67.8594 11.0039C67.7084 10.8529 67.4857 10.7773 67.1914 10.7773C66.9336 10.7773 66.7175 10.8424 66.543 10.9727C66.3685 11.1029 66.2813 11.2604 66.2813 11.4453H65.5546C65.5546 11.2344 65.6289 11.0312 65.7774 10.8359C65.9284 10.638 66.1315 10.4818 66.3867 10.3672C66.6445 10.2526 66.9271 10.1953 67.2344 10.1953C67.7214 10.1953 68.1029 10.3177 68.3789 10.5625C68.655 10.8047 68.7982 11.1393 68.8086 11.5664V13.5117C68.8086 13.8997 68.8581 14.2083 68.957 14.4375V14.5H68.1992ZM67 13.9492C67.2266 13.9492 67.4414 13.8906 67.6445 13.7734C67.8477 13.6562 67.9948 13.5039 68.086 13.3164V12.4492H67.5195C66.6341 12.4492 66.1914 12.7083 66.1914 13.2266C66.1914 13.4531 66.2669 13.6302 66.418 13.7578C66.569 13.8854 66.763 13.9492 67 13.9492Z" fill="white"/>
<path d="M72.793 14.082C72.5117 14.4128 72.099 14.5781 71.5547 14.5781C71.1042 14.5781 70.7604 14.4479 70.5235 14.1875C70.2891 13.9245 70.1706 13.5365 70.168 13.0234V10.2734H70.8907V13.0039C70.8907 13.6445 71.1511 13.9648 71.6719 13.9648C72.224 13.9648 72.5912 13.7591 72.7735 13.3477V10.2734H73.4961V14.5H72.8086L72.793 14.082Z" fill="white"/>
<path d="M75.5195 10.2734L75.5429 10.8047C75.8658 10.3984 76.2877 10.1953 76.8085 10.1953C77.7018 10.1953 78.1523 10.6992 78.1601 11.707V14.5H77.4375V11.7031C77.4348 11.3984 77.3645 11.1732 77.2265 11.0273C77.0911 10.8815 76.8789 10.8086 76.5898 10.8086C76.3554 10.8086 76.1497 10.8711 75.9726 10.9961C75.7955 11.1211 75.6575 11.2852 75.5585 11.4883V14.5H74.8359V10.2734H75.5195Z" fill="white"/>
<path d="M81.1876 13.9883C81.4454 13.9883 81.6706 13.9102 81.8633 13.7539C82.0561 13.5977 82.1628 13.4023 82.1837 13.168H82.8672C82.8542 13.4102 82.7709 13.6406 82.6172 13.8594C82.4636 14.0781 82.2579 14.2526 82.0001 14.3828C81.7449 14.513 81.474 14.5781 81.1876 14.5781C80.612 14.5781 80.1537 14.3867 79.8126 14.0039C79.474 13.6185 79.3047 13.0924 79.3047 12.4258V12.3047C79.3047 11.8932 79.3803 11.5273 79.5313 11.207C79.6824 10.8867 79.8985 10.638 80.1797 10.4609C80.4636 10.2839 80.7982 10.1953 81.1837 10.1953C81.6576 10.1953 82.0508 10.3372 82.3633 10.6211C82.6784 10.9049 82.8464 11.2734 82.8672 11.7266H82.1837C82.1628 11.4531 82.0587 11.2292 81.8712 11.0547C81.6863 10.8776 81.4571 10.7891 81.1837 10.7891C80.8165 10.7891 80.5313 10.9219 80.3282 11.1875C80.1277 11.4505 80.0274 11.832 80.0274 12.332V12.4688C80.0274 12.9557 80.1277 13.3307 80.3282 13.5938C80.5287 13.8568 80.8152 13.9883 81.1876 13.9883Z" fill="white"/>
<path d="M84.6406 10.7852C84.9609 10.3919 85.3776 10.1953 85.8906 10.1953C86.7838 10.1953 87.2344 10.6992 87.2422 11.707V14.5H86.5195V11.7031C86.5169 11.3984 86.4466 11.1732 86.3086 11.0273C86.1732 10.8815 85.9609 10.8086 85.6719 10.8086C85.4375 10.8086 85.2318 10.8711 85.0547 10.9961C84.8776 11.1211 84.7396 11.2852 84.6406 11.4883V14.5H83.918V8.5H84.6406V10.7852Z" fill="white"/>
<path d="M93.3985 14.5C93.3568 14.4167 93.3229 14.2682 93.2969 14.0547C92.961 14.4036 92.5599 14.5781 92.0938 14.5781C91.6771 14.5781 91.3346 14.4609 91.0664 14.2266C90.8008 13.9896 90.668 13.6901 90.668 13.3281C90.668 12.888 90.8346 12.5469 91.168 12.3047C91.5039 12.0599 91.9753 11.9375 92.582 11.9375H93.2852V11.6055C93.2852 11.3529 93.2096 11.1523 93.0586 11.0039C92.9076 10.8529 92.6849 10.7773 92.3906 10.7773C92.1328 10.7773 91.9167 10.8424 91.7422 10.9727C91.5677 11.1029 91.4805 11.2604 91.4805 11.4453H90.7539C90.7539 11.2344 90.8281 11.0312 90.9766 10.8359C91.1276 10.638 91.3307 10.4818 91.586 10.3672C91.8438 10.2526 92.1263 10.1953 92.4336 10.1953C92.9206 10.1953 93.3021 10.3177 93.5781 10.5625C93.8542 10.8047 93.9974 11.1393 94.0078 11.5664V13.5117C94.0078 13.8997 94.0573 14.2083 94.1563 14.4375V14.5H93.3985ZM92.1992 13.9492C92.4258 13.9492 92.6406 13.8906 92.8438 13.7734C93.0469 13.6562 93.194 13.5039 93.2852 13.3164V12.4492H92.7188C91.8333 12.4492 91.3906 12.7083 91.3906 13.2266C91.3906 13.4531 91.4662 13.6302 91.6172 13.7578C91.7682 13.8854 91.9623 13.9492 92.1992 13.9492Z" fill="white"/>
<path d="M97.8437 13.3789C97.8437 13.1836 97.7695 13.0326 97.621 12.9258C97.4752 12.8164 97.2187 12.7227 96.8515 12.6445C96.4869 12.5664 96.1965 12.4727 95.9804 12.3633C95.7669 12.2539 95.608 12.1237 95.5038 11.9727C95.4023 11.8216 95.3515 11.6419 95.3515 11.4336C95.3515 11.0872 95.4973 10.7943 95.789 10.5547C96.0833 10.3151 96.4583 10.1953 96.914 10.1953C97.3932 10.1953 97.7812 10.319 98.078 10.5664C98.3775 10.8138 98.5273 11.1302 98.5273 11.5156H97.8007C97.8007 11.3177 97.7161 11.1471 97.5468 11.0039C97.3801 10.8607 97.1692 10.7891 96.914 10.7891C96.651 10.7891 96.4452 10.8464 96.2968 10.9609C96.1484 11.0755 96.0741 11.2253 96.0741 11.4102C96.0741 11.5846 96.1432 11.7161 96.2812 11.8047C96.4192 11.8932 96.6679 11.9779 97.0273 12.0586C97.3892 12.1393 97.6822 12.2357 97.9062 12.3477C98.1301 12.4596 98.2955 12.5951 98.4023 12.7539C98.5116 12.9102 98.5663 13.1016 98.5663 13.3281C98.5663 13.7057 98.4153 14.0091 98.1132 14.2383C97.8111 14.4648 97.4192 14.5781 96.9374 14.5781C96.5989 14.5781 96.2994 14.5182 96.039 14.3984C95.7786 14.2786 95.5741 14.112 95.4257 13.8984C95.2799 13.6823 95.207 13.4492 95.207 13.1992H95.9296C95.9426 13.4414 96.039 13.6341 96.2187 13.7773C96.401 13.918 96.6405 13.9883 96.9374 13.9883C97.2109 13.9883 97.4296 13.9336 97.5937 13.8242C97.7603 13.7122 97.8437 13.5638 97.8437 13.3789Z" fill="white"/>
<path d="M64.5361 25.6382L64.7412 27.0444L65.0415 25.7773L67.1508 18.3359H68.3374L70.3955 25.7773L70.6884 27.0664L70.9155 25.6309L72.5708 18.3359H73.9843L71.3989 29H70.1172L67.9199 21.229L67.7514 20.416L67.583 21.229L65.3051 29H64.0234L61.4453 18.3359H62.8515L64.5361 25.6382Z" fill="white"/>
<path d="M78.3945 29.1465C77.3203 29.1465 76.4463 28.7949 75.7724 28.0918C75.0986 27.3838 74.7617 26.439 74.7617 25.2573V25.0083C74.7617 24.2222 74.9106 23.5215 75.2085 22.9062C75.5112 22.2861 75.9311 21.8027 76.4683 21.4561C77.0102 21.1045 77.5962 20.9287 78.2261 20.9287C79.2563 20.9287 80.0571 21.2681 80.6284 21.9468C81.1997 22.6255 81.4853 23.5972 81.4853 24.8618V25.4258H76.1167C76.1362 26.207 76.3633 26.8394 76.7978 27.3228C77.2373 27.8013 77.7939 28.0405 78.4678 28.0405C78.9463 28.0405 79.3516 27.9429 79.6836 27.7476C80.0156 27.5522 80.3061 27.2935 80.5552 26.9712L81.3828 27.6157C80.7187 28.6362 79.7226 29.1465 78.3945 29.1465ZM78.2261 22.042C77.6792 22.042 77.2202 22.2422 76.8491 22.6426C76.478 23.0381 76.2485 23.5947 76.1606 24.3125H80.1304V24.21C80.0913 23.5215 79.9057 22.9893 79.5737 22.6133C79.2417 22.2324 78.7925 22.042 78.2261 22.042Z" fill="white"/>
<path d="M89.7676 25.1255C89.7676 26.3364 89.4893 27.3105 88.9327 28.0479C88.376 28.7803 87.629 29.1465 86.6915 29.1465C85.6905 29.1465 84.9166 28.7925 84.3697 28.0845L84.3038 29H83.0586V17.75H84.4136V21.9468C84.9605 21.2681 85.7149 20.9287 86.6768 20.9287C87.6387 20.9287 88.3931 21.2925 88.94 22.02C89.4918 22.7476 89.7676 23.7437 89.7676 25.0083V25.1255ZM88.4127 24.9717C88.4127 24.0488 88.2344 23.3359 87.878 22.833C87.5215 22.3301 87.0088 22.0786 86.3399 22.0786C85.4463 22.0786 84.8043 22.4937 84.4136 23.3237V26.7515C84.8287 27.5815 85.4756 27.9966 86.3545 27.9966C87.004 27.9966 87.5093 27.7451 87.8707 27.2422C88.232 26.7393 88.4127 25.9824 88.4127 24.9717Z" fill="white"/>
<path d="M101.304 26.2168H96.8364L95.833 29H94.3828L98.4551 18.3359H99.6855L103.765 29H102.322L101.304 26.2168ZM97.2612 25.0596H100.887L99.0703 20.0718L97.2612 25.0596Z" fill="white"/>
<path d="M111.683 25.1255C111.683 26.3315 111.407 27.3032 110.855 28.0405C110.303 28.7778 109.556 29.1465 108.614 29.1465C107.652 29.1465 106.895 28.8413 106.343 28.231V32.0469H104.988V21.0752H106.226L106.292 21.9541C106.844 21.2705 107.61 20.9287 108.592 20.9287C109.544 20.9287 110.296 21.2876 110.848 22.0054C111.404 22.7231 111.683 23.7217 111.683 25.001V25.1255ZM110.328 24.9717C110.328 24.0781 110.137 23.3726 109.756 22.855C109.375 22.3374 108.853 22.0786 108.189 22.0786C107.369 22.0786 106.753 22.4424 106.343 23.1699V26.9565C106.749 27.6792 107.369 28.0405 108.204 28.0405C108.853 28.0405 109.368 27.7842 109.749 27.2715C110.135 26.7539 110.328 25.9873 110.328 24.9717Z" fill="white"/>
<path d="M120.104 25.1255C120.104 26.3315 119.829 27.3032 119.277 28.0405C118.725 28.7778 117.978 29.1465 117.036 29.1465C116.074 29.1465 115.317 28.8413 114.765 28.231V32.0469H113.41V21.0752H114.648L114.714 21.9541C115.266 21.2705 116.032 20.9287 117.014 20.9287C117.966 20.9287 118.718 21.2876 119.269 22.0054C119.826 22.7231 120.104 23.7217 120.104 25.001V25.1255ZM118.749 24.9717C118.749 24.0781 118.559 23.3726 118.178 22.855C117.797 22.3374 117.275 22.0786 116.611 22.0786C115.79 22.0786 115.175 22.4424 114.765 23.1699V26.9565C115.17 27.6792 115.79 28.0405 116.625 28.0405C117.275 28.0405 117.79 27.7842 118.171 27.2715C118.557 26.7539 118.749 25.9873 118.749 24.9717Z" fill="white"/>
</svg>
