<svg
  width="635"
  height="527"
  viewBox="0 0 635 527"
  fill="none"
  xmlns="http://www.w3.org/2000/svg"
>
  <path
    opacity="0.1"
    d="M593.056 291.186C568.667 330.669 573.237 384.458 583.949 426.87C587.532 441.07 591.662 456.061 588.598 471.953C584.85 491.385 571.185 506.646 557.356 515.384C532.145 531.276 503.356 530.836 482.393 514.22C464.29 499.868 452.368 474.835 433.883 461.253C402.977 438.517 360.538 452.297 323.687 473.545C297.627 488.542 268.944 507.626 244.857 496.821C227.911 489.233 217.344 467.827 212.412 444.532C210.032 433.286 208.592 421 203.134 412.432C199.885 407.339 195.42 403.93 190.791 401.133C148.542 375.64 91.3789 396.955 50.6356 368.086C23.116 348.594 7.47233 308.334 2.33009 265.285C-2.81214 222.235 1.41606 176.171 6.70954 130.818C10.4774 98.5731 15.5737 64.0779 32.4865 37.8545C50.3791 10.1175 78.5825 -2.28683 103.097 0.345388C127.611 2.9776 148.897 18.5208 167.243 37.5189C190.173 61.2614 210.854 91.5846 240.53 99.2443C260.744 104.463 282.819 98.4218 304.315 95.0065C340.205 89.2945 375.596 90.9331 410.737 93.0784C444.378 95.1315 478.224 97.6847 509.57 109.53C531.75 117.92 548.775 135.385 569.475 146.743C582.969 154.146 598.192 155.087 610.765 164.958C626.25 177.118 639.652 199.565 633.451 227.94C627.539 254.933 605.997 270.233 593.056 291.186Z"
    fill="#4DCAB1"
  />
  <path
    d="M539 245L531 221C531 221 542.637 235.927 550 247.5C554.987 255.339 557.94 262.097 557.112 262.718C555.061 264.256 548.397 258.105 548.397 258.105L539 245Z"
    fill="#4B5E76"
  />
  <path
    d="M556.649 269.789C558.641 268.2 557.824 263.862 554.824 260.098C551.824 256.334 547.776 254.571 545.784 256.159C543.791 257.748 544.608 262.086 547.608 265.85C550.609 269.614 554.656 271.377 556.649 269.789Z"
    fill="#FFB8B8"
  />
  <path
    d="M559.674 316.033C559.674 316.033 558.649 348.843 555.06 367.811C551.471 386.779 557.111 454.961 557.111 454.961L545.832 460.088L538.655 452.398C538.655 452.398 541.218 438.557 537.63 428.816C534.041 419.076 532.503 377.039 532.503 377.039L526.352 320.647L559.674 316.033Z"
    fill="#FFB8B8"
  />
  <path
    d="M517.635 325.774L485.338 384.729L456.117 438.557V449.836L441.25 445.222L446.376 433.431C446.376 433.431 448.94 387.292 467.395 369.349L483.287 323.724L517.635 325.774Z"
    fill="#FFB8B8"
  />
  <path
    d="M536.861 246.569H542.5C542.5 246.569 573.259 315.718 571.721 341.351L527.633 345.738L526.095 342.149C526.095 342.149 482.919 348.813 473.691 341.124L493.285 261.949L494.311 252.721L536.861 246.569Z"
    fill="#2B3A4A"
  />
  <path
    d="M550.957 454.449C550.957 454.449 543.78 445.221 552.495 444.709C561.21 444.196 561.21 449.835 561.21 449.835L580.691 463.164C580.691 463.164 612.988 474.955 589.919 478.544C589.919 478.544 580.178 480.594 567.875 475.98C560.485 473.205 552.694 471.647 544.806 471.367C544.806 471.367 533.527 470.854 533.527 465.215C533.527 459.576 539.029 449.835 539.029 449.835C539.029 449.835 547.882 455.987 550.957 454.449Z"
    fill="#2B3A4A"
  />
  <path
    d="M440.226 441.633C440.226 441.633 457.656 438.044 458.169 444.709C458.681 451.373 458.169 462.651 458.169 462.651C458.169 462.651 454.067 467.778 455.093 471.366C456.118 474.955 452.529 486.233 440.226 484.695C427.922 483.157 432.023 465.727 432.023 465.727L440.226 445.734V441.633Z"
    fill="#2B3A4A"
  />
  <path
    d="M496.103 158.393C505.588 158.393 513.277 150.704 513.277 141.22C513.277 131.735 505.588 124.046 496.103 124.046C486.619 124.046 478.93 131.735 478.93 141.22C478.93 150.704 486.619 158.393 496.103 158.393Z"
    fill="#FFB8B8"
  />
  <path
    d="M507.637 150.704L507.894 180.181L486.875 173.004C486.875 173.004 489.438 156.087 488.926 154.549L507.637 150.704Z"
    fill="#FFB8B8"
  />
  <path
    d="M511.486 171.466C511.486 171.466 489.442 163.776 486.879 164.801C484.316 165.826 483.29 171.466 483.29 171.466C483.29 171.466 470.987 168.902 469.449 177.105C467.911 185.307 479.189 221.193 479.189 221.193L490.467 242.211C490.467 242.211 484.828 250.926 494.569 254.002C504.309 257.078 542.5 247 542.5 247L533.017 225.807C533.017 225.807 543.27 211.965 534.043 200.687C524.815 189.408 523.533 178.899 518.92 177.361C514.306 175.823 511.486 171.466 511.486 171.466Z"
    fill="#4B5E76"
  />
  <path
    d="M508.538 292.398C509.496 290.036 506.658 286.655 502.198 284.845C497.738 283.034 493.346 283.481 492.388 285.842C491.429 288.203 494.268 291.585 498.728 293.395C503.187 295.205 507.58 294.759 508.538 292.398Z"
    fill="#FFB8B8"
  />
  <path
    d="M477.135 175.567H469.908C469.908 175.567 448.939 226.32 455.091 242.212C461.243 258.104 483.799 285.787 483.799 285.787C483.799 285.787 490.977 298.603 496.103 298.603C501.23 298.603 506.869 280.148 506.869 280.148L490.464 272.971L470.983 237.085L480.211 209.402L477.135 175.567Z"
    fill="#4B5E76"
  />
  <path
    opacity="0.2"
    d="M533.273 225.551L544.552 245.544L542.501 246.57L533.273 225.551Z"
    fill="black"
  />
  <path
    opacity="0.2"
    d="M511.712 270.54L510.719 270.795L525.608 328.719L526.602 328.463L511.712 270.54Z"
    fill="black"
  />
  <path
    d="M489.354 110.16C484.827 110.738 479.94 111.502 476.74 114.78C474.95 116.613 473.902 119.057 473.039 121.476C471.702 125.243 470.706 129.214 471.019 133.212C471.298 136.788 472.611 137.445 471.548 140.87C471.059 142.447 470.1 143.823 469.354 145.291C467.972 148.018 467.322 151.075 467.083 154.127C466.918 156.227 466.95 158.388 467.635 160.377C468.364 162.495 469.786 164.297 470.687 166.346C472.021 169.372 472.154 172.777 472.257 176.086C472.36 179.395 472.447 182.682 472.524 185.979C472.572 188.052 472.576 190.271 471.439 192C475.639 190.304 479.897 188.573 483.491 185.804C487.085 183.034 489.994 179.041 490.459 174.504C490.835 170.826 489.602 167.201 488.54 163.662C485.913 154.905 484.217 145.57 486.128 136.629C486.817 133.409 488.491 129.815 491.705 129.222C493.667 128.862 499.624 127.764 501.392 128.697C505.57 130.9 509.877 133.751 511.432 138.237C512.847 142.294 511.657 146.812 509.816 150.686C507.976 154.559 505.471 158.121 504.041 162.169C501.845 168.38 502.463 175.652 506.111 181.124C509.76 186.595 512.501 191.962 518.984 191.078C518.477 188.87 516.887 187.086 516.034 184.989C514.485 181.179 515.529 176.797 517.196 173.037C518.863 169.278 521.137 165.774 522.18 161.782C522.915 158.972 523.004 156.035 523 153.13C523 148.556 522.776 143.98 522.339 139.427C521.903 134.873 521.236 130.263 519.798 125.883C518.642 122.37 517.96 120.973 515.442 118.279C512.764 115.41 510.277 113.465 506.853 111.559C504.804 110.422 502.711 109.272 500.412 108.846C498.594 108.51 496.683 108.032 494.829 108.001C493.568 107.983 490.243 109.258 489.354 110.16Z"
    fill="#4F4135"
  />
  <g filter="url(#filter0_d)">
    <path
      d="M334 42H60C55.5817 42 52 45.5817 52 50V436C52 440.418 55.5817 444 60 444H334C338.418 444 342 440.418 342 436V50C342 45.5817 338.418 42 334 42Z"
      fill="white"
    />
  </g>
  <rect x="52" y="251" width="290" height="181" fill="#D6DADF" />
  <path
    fill-rule="evenodd"
    clip-rule="evenodd"
    d="M52 252H342V296H52V252Z"
    fill="white"
  />
  <path
    fill-rule="evenodd"
    clip-rule="evenodd"
    d="M319.333 281L326 274.5L319.333 268L318 269.3L323.333 274.5L318 279.7L319.333 281Z"
    fill="#D1D1D6"
  />
  <rect x="60" y="264" width="80" height="20" rx="2" fill="#9F4BA4" />
  <path
    fill-rule="evenodd"
    clip-rule="evenodd"
    d="M52 297H342V341H52V297Z"
    fill="white"
  />
  <path
    fill-rule="evenodd"
    clip-rule="evenodd"
    d="M319.333 326L326 319.5L319.333 313L318 314.3L323.333 319.5L318 324.7L319.333 326Z"
    fill="#D1D1D6"
  />
  <rect x="60" y="309" width="80" height="20" rx="2" fill="#1898E2" />
  <path
    fill-rule="evenodd"
    clip-rule="evenodd"
    d="M52 342H342V386H52V342Z"
    fill="white"
  />
  <path
    fill-rule="evenodd"
    clip-rule="evenodd"
    d="M319.333 371L326 364.5L319.333 358L318 359.3L323.333 364.5L318 369.7L319.333 371Z"
    fill="#D1D1D6"
  />
  <rect x="60" y="354" width="80" height="20" rx="2" fill="#F7853F" />
  <path
    fill-rule="evenodd"
    clip-rule="evenodd"
    d="M52 387H342V431H52V387Z"
    fill="white"
  />
  <path
    fill-rule="evenodd"
    clip-rule="evenodd"
    d="M319.333 416L326 409.5L319.333 403L318 404.3L323.333 409.5L318 414.7L319.333 416Z"
    fill="#D1D1D6"
  />
  <rect x="60" y="399" width="80" height="20" rx="2" fill="#21BD9E" />
  <path
    d="M198.898 72.0226C198.267 72.0069 197.635 71.999 197 71.999C166.422 71.999 140.117 90.299 128.441 116.545L143.455 123.435C152.518 102.87 173.083 88.5133 197 88.5133C197.672 88.5133 198.341 88.5246 199.008 88.5471L198.898 72.0226Z"
    fill="#F7853F"
  />
  <path
    d="M223.968 217.004C215.599 220.23 206.506 221.999 197 221.999C155.579 221.999 122 188.42 122 146.999C122 135.601 124.542 124.798 129.091 115.124L144.026 122.178C140.49 129.713 138.513 138.125 138.513 146.999C138.513 179.3 164.698 205.486 196.999 205.486C204.519 205.486 211.707 204.067 218.31 201.482L223.968 217.004Z"
    fill="#1898E2"
  />
  <path
    d="M271.859 151.658C270.027 181.547 250.69 206.704 223.97 217.004L218.312 201.482C238.939 193.407 253.862 173.956 255.362 150.847L271.859 151.658Z"
    fill="#9E4FA3"
  />
  <path
    d="M271.856 151.658C271.95 150.117 271.998 148.564 271.998 146.999C271.998 106.194 239.41 72.9993 198.84 72.0215V88.542C230.288 89.5152 255.484 115.315 255.484 147C255.484 148.292 255.442 149.575 255.359 150.846L271.856 151.658Z"
    fill="#21BD9E"
  />
  <defs>
    <filter
      id="filter0_d"
      x="42"
      y="32"
      width="310"
      height="422"
      filterUnits="userSpaceOnUse"
      color-interpolation-filters="s-rGB"
    >
      <feFlood flood-opacity="0" result="BackgroundImageFix" />
      <feColorMatrix
        in="SourceAlpha"
        type="matrix"
        values="0 0 0 0 0 0 0 0 0 0 0 0 0 0 0 0 0 0 127 0"
      />
      <feOffset />
      <feGaussianBlur stdDeviation="5" />
      <feColorMatrix
        type="matrix"
        values="0 0 0 0 0.168627 0 0 0 0 0.227451 0 0 0 0 0.290196 0 0 0 0.1 0"
      />
      <feBlend
        mode="normal"
        in2="BackgroundImageFix"
        result="effect1_dropShadow"
      />
      <feBlend
        mode="normal"
        in="SourceGraphic"
        in2="effect1_dropShadow"
        result="shape"
      />
    </filter>
  </defs>
</svg>
