<?xml version="1.0" standalone="no"?>
<!DOCTYPE svg PUBLIC "-//W3C//DTD SVG 20010904//EN"
 "http://www.w3.org/TR/2001/REC-SVG-20010904/DTD/svg10.dtd">
<svg version="1.0" xmlns="http://www.w3.org/2000/svg"
 width="512.000000pt" height="512.000000pt" viewBox="0 0 512.000000 512.000000"
 preserveAspectRatio="xMidYMid meet">
<metadata>
Created by potrace 1.11, written by Peter Selinger 2001-2013
</metadata>
<g transform="translate(0.000000,512.000000) scale(0.100000,-0.100000)"
fill="#000000" stroke="none">
<path d="M3174 5063 c-22 -26 -46 -55 -54 -64 -15 -16 -22 -23 -100 -119 -25
-30 -54 -64 -65 -76 -11 -12 -27 -30 -35 -40 -19 -24 -173 -207 -180 -214 -3
-3 -41 -48 -85 -100 -44 -52 -84 -100 -90 -106 -5 -6 -26 -30 -45 -54 -19 -23
-43 -52 -53 -64 -11 -11 -35 -41 -55 -65 -21 -24 -42 -49 -47 -55 -6 -6 -33
-38 -60 -71 -28 -33 -54 -65 -60 -71 -5 -6 -28 -32 -50 -58 -22 -27 -48 -58
-58 -70 -10 -11 -37 -43 -60 -70 -23 -27 -82 -97 -132 -156 -49 -59 -109 -129
-132 -156 -23 -27 -51 -60 -63 -74 -12 -14 -29 -34 -38 -45 -53 -65 -118 -141
-127 -151 -24 -26 -65 -75 -135 -159 -77 -92 -117 -140 -135 -159 -6 -6 -44
-51 -85 -101 -41 -49 -77 -92 -80 -95 -3 -3 -27 -32 -55 -65 -27 -33 -52 -62
-55 -65 -3 -3 -28 -32 -55 -65 -28 -33 -52 -62 -55 -65 -26 -25 -100 -120
-100 -128 0 -6 8 -10 18 -10 18 1 175 -11 232 -17 19 -3 62 -7 95 -9 126 -10
211 -17 240 -21 17 -2 66 -7 110 -10 44 -3 100 -8 125 -10 25 -3 73 -7 108
-10 34 -3 90 -8 125 -11 104 -10 120 -12 164 -13 l41 -1 -3 -37 c-4 -55 -15
-182 -20 -228 -2 -22 -7 -71 -10 -110 -3 -38 -8 -88 -10 -110 -6 -68 -25 -287
-30 -350 -3 -33 -8 -87 -11 -120 -7 -66 -10 -102 -19 -220 -3 -44 -8 -96 -10
-115 -2 -19 -7 -71 -10 -115 -4 -44 -8 -93 -9 -110 -2 -16 -6 -66 -10 -110 -4
-44 -9 -96 -11 -115 -2 -19 -7 -70 -10 -113 -3 -43 -8 -95 -10 -115 -1 -20 -6
-73 -9 -117 l-7 -80 27 30 c61 70 83 95 154 180 41 49 84 101 95 114 11 13 25
29 30 35 11 12 157 184 190 224 11 14 25 30 31 36 5 6 46 54 90 106 44 52 89
106 101 120 12 14 65 77 118 140 53 63 107 126 118 140 12 14 58 68 102 120
71 85 101 120 179 210 12 14 55 66 96 115 41 50 77 92 80 95 3 3 28 32 55 65
28 33 52 62 55 65 3 3 28 32 55 65 28 33 55 65 60 71 6 6 26 31 47 55 20 24
46 55 58 69 12 14 38 45 58 69 21 24 42 49 47 55 6 6 33 38 60 71 60 71 72 86
161 190 38 45 87 103 109 129 42 50 61 74 98 116 78 90 117 138 117 147 0 5
-21 11 -47 12 -27 1 -61 4 -78 6 -16 2 -75 7 -129 10 -55 4 -106 8 -116 10 -9
2 -56 6 -106 10 -49 4 -100 8 -114 10 -14 2 -63 7 -110 10 -47 4 -101 8 -120
10 -19 2 -73 6 -120 10 -47 4 -98 9 -115 11 -16 2 -66 6 -110 10 -44 3 -83 8
-88 11 -4 2 -5 16 -2 31 2 15 7 61 10 102 3 41 8 93 10 116 3 22 7 74 10 115
3 40 7 94 10 119 2 25 7 79 10 120 4 41 8 86 10 100 2 14 7 66 10 115 4 50 8
106 10 125 2 19 6 67 9 105 4 39 8 88 10 110 2 22 7 78 11 125 4 47 8 99 10
115 2 17 6 64 10 105 3 41 8 95 10 120 2 25 7 79 10 120 3 41 8 95 10 120 17
164 26 290 22 290 -3 0 -22 -21 -43 -47z"/>
</g>
</svg>
